{"glyphs":{"0":{"x_min":40,"x_max":972,"ha":1012,"o":"m 506 -16 l 506 -16 q 283 -16 162 109 q 40 234 40 469 l 40 469 l 40 1263 q 40 1511 156 1644 q 271 1776 506 1776 l 506 1776 q 742 1776 857 1644 q 972 1511 972 1263 l 972 1263 l 972 469 q 972 234 851 109 q 730 -16 506 -16 m 506 308 l 506 308 q 547 308 570 345 q 593 382 593 428 l 593 428 l 593 1297 q 593 1359 580 1406 q 566 1452 506 1452 l 506 1452 q 446 1452 433 1406 q 419 1359 419 1297 l 419 1297 l 419 428 q 419 382 443 345 q 466 308 506 308"},"1":{"x_min":25,"x_max":616,"ha":677,"o":"m 616 0 l 243 0 l 243 1356 q 207 1313 144 1287 q 81 1260 25 1260 l 25 1260 l 25 1541 q 78 1549 139 1576 q 200 1602 253 1649 q 305 1695 333 1761 l 333 1761 l 616 1761 l 616 0"},"2":{"x_min":58,"x_max":987,"ha":1012,"o":"m 975 0 l 62 0 l 62 84 q 62 215 103 320 q 143 424 207 514 q 271 603 342 689 l 342 689 q 411 773 474 862 q 536 950 576 1054 q 615 1157 615 1286 l 615 1286 q 615 1348 597 1393 q 578 1437 520 1437 l 520 1437 q 432 1437 432 1280 l 432 1280 l 432 1065 l 62 1065 q 61 1088 60 1117 q 58 1146 58 1173 l 58 1173 q 58 1363 98 1496 q 138 1628 240 1698 q 341 1767 525 1767 l 525 1767 q 744 1767 866 1644 q 987 1521 987 1293 l 987 1293 q 987 1138 947 1022 q 907 905 841 810 q 775 714 696 619 l 696 619 q 640 552 588 482 q 535 412 495 332 l 495 332 l 975 332 l 975 0"},"3":{"x_min":39,"x_max":961,"ha":1012,"o":"m 484 -20 l 484 -20 q 251 -20 145 103 q 39 226 39 474 l 39 474 l 39 658 l 400 658 l 400 473 q 400 403 418 355 q 435 306 496 306 l 496 306 q 558 306 575 359 q 592 411 592 530 l 592 530 l 592 574 q 592 665 562 733 q 531 801 442 801 l 442 801 q 431 801 423 801 q 414 800 408 799 l 408 799 l 408 1115 q 499 1115 547 1156 q 595 1196 595 1291 l 595 1291 q 595 1440 509 1440 l 509 1440 q 453 1440 434 1397 q 414 1353 414 1286 l 414 1286 l 414 1233 l 50 1233 q 49 1245 49 1262 q 48 1279 48 1295 l 48 1295 q 48 1537 161 1650 q 274 1763 507 1763 l 507 1763 q 957 1763 957 1295 l 957 1295 q 957 1165 922 1081 q 887 996 792 962 l 792 962 q 867 926 903 870 q 939 814 950 731 q 961 648 961 530 l 961 530 q 961 266 851 123 q 740 -20 484 -20"},"4":{"x_min":18,"x_max":993,"ha":1012,"o":"m 899 -1 l 540 -1 l 540 278 l 18 278 l 18 553 l 351 1761 l 899 1761 l 899 572 l 993 572 l 993 278 l 899 278 l 899 -1 m 540 1459 l 332 572 l 540 572 l 540 1459"},"5":{"x_min":46,"x_max":977,"ha":1012,"o":"m 506 -25 l 506 -25 q 303 -25 175 76 q 46 176 46 384 l 46 384 l 46 646 l 412 646 l 412 495 q 412 448 418 404 q 423 360 443 332 q 463 304 506 304 l 506 304 q 563 304 581 343 q 599 381 599 441 l 599 441 l 599 787 q 599 830 594 872 q 588 914 569 942 q 550 970 508 970 l 508 970 q 408 970 408 825 l 408 825 l 85 825 l 85 1761 l 924 1761 l 924 1431 l 419 1431 l 419 1183 q 445 1215 490 1240 q 534 1264 594 1264 l 594 1264 q 714 1264 790 1218 q 865 1172 906 1090 q 946 1008 962 900 q 977 792 977 668 l 977 668 q 977 509 961 382 q 944 254 896 163 q 847 72 754 24 q 660 -25 506 -25"},"6":{"x_min":54,"x_max":988,"ha":1012,"o":"m 529 -16 l 529 -16 q 346 -16 243 47 q 139 109 97 235 q 54 361 54 549 l 54 549 l 54 1025 q 54 1208 70 1348 q 85 1488 134 1583 q 183 1678 280 1727 q 377 1776 539 1776 l 539 1776 q 650 1776 746 1738 q 842 1699 901 1623 q 960 1546 960 1431 l 960 1431 l 960 1241 l 621 1241 l 621 1277 q 621 1321 617 1365 q 612 1409 594 1438 q 576 1467 533 1467 l 533 1467 q 474 1467 451 1435 q 428 1402 428 1341 l 428 1341 l 428 988 q 453 1035 503 1064 q 553 1092 625 1092 l 625 1092 q 771 1092 850 1034 q 928 975 958 859 q 988 743 988 569 l 988 569 q 988 393 945 262 q 902 130 802 57 q 701 -16 529 -16 m 516 308 l 516 308 q 578 308 590 361 q 602 413 602 495 l 602 495 l 602 637 q 602 781 521 781 l 521 781 q 428 781 428 656 l 428 656 l 428 438 q 428 308 516 308"},"7":{"x_min":70,"x_max":958,"ha":1012,"o":"m 543 1 l 145 1 q 161 247 214 461 q 267 675 336 860 q 405 1044 469 1198 l 469 1198 l 567 1435 l 70 1435 l 70 1761 l 958 1761 l 958 1569 q 958 1463 923 1355 q 888 1247 831 1117 l 831 1117 q 707 835 634 556 q 560 276 543 1 l 543 1"},"8":{"x_min":46,"x_max":966,"ha":1012,"o":"m 506 -19 l 506 -19 q 258 -19 152 123 q 46 265 46 525 l 46 525 l 46 642 q 46 776 78 859 q 110 942 196 986 l 196 986 q 115 1019 81 1097 q 47 1174 47 1289 l 47 1289 l 47 1335 q 47 1569 165 1676 q 282 1782 506 1782 l 506 1782 q 736 1782 850 1673 q 964 1563 964 1321 l 964 1321 q 964 1194 934 1108 q 904 1022 815 984 l 815 984 q 910 935 938 856 q 966 776 966 642 l 966 642 l 966 525 q 966 265 860 123 q 754 -19 506 -19 m 506 1134 l 506 1134 q 599 1134 599 1302 l 599 1302 q 599 1358 580 1408 q 560 1458 506 1458 l 506 1458 q 452 1458 433 1408 q 413 1358 413 1302 l 413 1302 q 413 1134 506 1134 m 506 329 l 506 329 q 602 329 602 484 l 602 484 l 602 645 q 602 725 581 770 q 559 815 506 815 l 506 815 q 451 815 431 770 q 411 725 411 645 l 411 645 l 411 484 q 411 329 506 329"},"9":{"x_min":54,"x_max":988,"ha":1012,"o":"m 503 -16 l 503 -16 q 392 -16 296 23 q 200 61 141 138 q 82 215 82 329 l 82 329 l 82 519 l 421 519 l 421 483 q 421 439 426 395 q 430 351 449 322 q 467 293 509 293 l 509 293 q 568 293 591 326 q 614 358 614 419 l 614 419 l 614 772 q 589 726 539 697 q 489 668 417 668 l 417 668 q 272 668 193 727 q 114 785 84 901 q 54 1017 54 1191 l 54 1191 q 54 1367 97 1499 q 140 1630 241 1703 q 341 1776 513 1776 l 513 1776 q 697 1776 800 1714 q 903 1651 946 1526 q 988 1400 988 1211 l 988 1211 l 988 735 q 988 552 973 412 q 957 272 908 177 q 859 82 762 33 q 665 -16 503 -16 m 521 979 l 521 979 q 614 979 614 1104 l 614 1104 l 614 1322 q 614 1452 526 1452 l 526 1452 q 464 1452 452 1400 q 440 1347 440 1265 l 440 1265 l 440 1123 q 440 979 521 979"},"\r":{"x_min":0,"x_max":0,"ha":480,"o":""}," ":{"x_min":0,"x_max":0,"ha":480,"o":""},"A":{"x_min":30,"x_max":964,"ha":994,"o":"m 372 0 l 30 0 l 200 1760 l 797 1760 l 964 0 l 631 0 l 606 284 l 394 284 l 372 0 m 486 1460 l 419 565 l 579 565 l 502 1460 l 486 1460"},"Æ":{"x_min":-44,"x_max":1272,"ha":1311,"o":"m 337 0 l -44 0 l 277 1760 l 1249 1760 l 1249 1451 l 963 1451 l 963 1049 l 1235 1049 l 1235 750 l 963 750 l 963 311 l 1272 311 l 1272 0 l 623 0 l 623 479 l 416 479 l 337 0 m 561 1461 l 462 769 l 618 769 l 618 1461 l 561 1461"},"Ǽ":{"x_min":-44,"x_max":1272,"ha":1311,"o":"m 337 0 l -44 0 l 277 1760 l 1249 1760 l 1249 1451 l 963 1451 l 963 1049 l 1235 1049 l 1235 750 l 963 750 l 963 311 l 1272 311 l 1272 0 l 623 0 l 623 479 l 416 479 l 337 0 m 561 1461 l 462 769 l 618 769 l 618 1461 l 561 1461 m 1033 1907 l 558 1813 l 558 2036 l 1033 2254 l 1033 1907"},"Ǣ":{"x_min":-44,"x_max":1272,"ha":1311,"o":"m 337 0 l -44 0 l 277 1760 l 1249 1760 l 1249 1451 l 963 1451 l 963 1049 l 1235 1049 l 1235 750 l 963 750 l 963 311 l 1272 311 l 1272 0 l 623 0 l 623 479 l 416 479 l 337 0 m 561 1461 l 462 769 l 618 769 l 618 1461 l 561 1461 m 1121 1879 l 471 1879 l 471 2032 l 1121 2032 l 1121 1879"},"Á":{"x_min":30,"x_max":964,"ha":994,"o":"m 372 0 l 30 0 l 200 1760 l 797 1760 l 964 0 l 631 0 l 606 284 l 394 284 l 372 0 m 486 1460 l 419 565 l 579 565 l 502 1460 l 486 1460 m 733 1907 l 258 1813 l 258 2036 l 733 2254 l 733 1907"},"Ă":{"x_min":30,"x_max":964,"ha":994,"o":"m 372 0 l 30 0 l 200 1760 l 797 1760 l 964 0 l 631 0 l 606 284 l 394 284 l 372 0 m 486 1460 l 419 565 l 579 565 l 502 1460 l 486 1460 m 499 1852 l 499 1852 q 324 1852 216 1926 q 107 2000 107 2163 l 107 2163 q 107 2184 110 2205 l 110 2205 l 366 2205 q 366 2148 395 2119 q 424 2089 501 2089 l 501 2089 q 578 2089 607 2119 q 636 2148 636 2205 l 636 2205 l 892 2205 q 893 2195 894 2185 q 894 2175 894 2170 l 894 2170 q 894 2003 787 1928 q 679 1852 499 1852"},"Ắ":{"x_min":30,"x_max":964,"ha":994,"o":"m 372 0 l 30 0 l 200 1760 l 797 1760 l 964 0 l 631 0 l 606 284 l 394 284 l 372 0 m 486 1460 l 419 565 l 579 565 l 502 1460 l 486 1460 m 705 2225 l 331 2161 l 331 2266 l 705 2454 l 705 2225 m 491 1830 l 491 1830 q 393 1830 319 1865 q 245 1900 205 1955 q 164 2010 164 2069 l 164 2069 q 164 2090 167 2111 l 167 2111 l 357 2111 q 357 2049 386 2017 q 415 1985 491 1985 l 491 1985 q 568 1985 597 2017 q 625 2049 625 2111 l 625 2111 l 826 2111 q 828 2087 828 2076 l 828 2076 q 828 2014 788 1958 q 747 1901 672 1866 q 596 1830 491 1830"},"Ặ":{"x_min":30,"x_max":964,"ha":994,"o":"m 372 0 l 30 0 l 200 1760 l 797 1760 l 964 0 l 631 0 l 606 284 l 394 284 l 372 0 m 486 1460 l 419 565 l 579 565 l 502 1460 l 486 1460 m 495 1852 l 495 1852 q 320 1852 212 1919 q 103 1986 103 2133 l 103 2133 q 103 2154 106 2175 l 106 2175 l 362 2175 q 362 2113 391 2081 q 420 2049 497 2049 l 497 2049 q 574 2049 603 2081 q 632 2113 632 2175 l 632 2175 l 888 2175 q 890 2151 890 2140 l 890 2140 q 890 1989 783 1921 q 675 1852 495 1852 m 676 -397 l 318 -397 l 318 -99 l 676 -99 l 676 -397"},"Ằ":{"x_min":30,"x_max":964,"ha":994,"o":"m 372 0 l 30 0 l 200 1760 l 797 1760 l 964 0 l 631 0 l 606 284 l 394 284 l 372 0 m 486 1460 l 419 565 l 579 565 l 502 1460 l 486 1460 m 705 2266 l 705 2161 l 331 2225 l 331 2454 l 705 2266 m 491 1830 l 491 1830 q 393 1830 319 1865 q 245 1900 205 1955 q 164 2010 164 2069 l 164 2069 q 164 2090 167 2111 l 167 2111 l 357 2111 q 357 2049 386 2017 q 415 1985 491 1985 l 491 1985 q 568 1985 597 2017 q 625 2049 625 2111 l 625 2111 l 826 2111 q 828 2089 828 2076 l 828 2076 q 828 2014 788 1958 q 747 1901 672 1866 q 596 1830 491 1830"},"Ẳ":{"x_min":30,"x_max":964,"ha":994,"o":"m 372 0 l 30 0 l 200 1760 l 797 1760 l 964 0 l 631 0 l 606 284 l 394 284 l 372 0 m 486 1460 l 419 565 l 579 565 l 502 1460 l 486 1460 m 502 2129 l 502 2129 l 436 2206 q 470 2219 491 2238 q 511 2256 511 2287 l 511 2287 q 511 2346 448 2346 l 448 2346 q 420 2346 392 2336 l 392 2336 l 392 2448 q 449 2469 506 2469 l 506 2469 q 583 2469 627 2430 q 671 2391 671 2321 l 671 2321 q 671 2242 623 2197 q 574 2152 502 2129 m 491 1830 l 491 1830 q 393 1830 319 1865 q 245 1900 205 1955 q 164 2010 164 2069 l 164 2069 q 164 2090 167 2111 l 167 2111 l 357 2111 q 357 2049 386 2017 q 415 1985 491 1985 l 491 1985 q 568 1985 597 2017 q 625 2049 625 2111 l 625 2111 l 826 2111 q 827 2101 828 2091 q 828 2081 828 2076 l 828 2076 q 828 2014 788 1958 q 747 1901 672 1866 q 596 1830 491 1830"},"Ẵ":{"x_min":30,"x_max":964,"ha":994,"o":"m 372 0 l 30 0 l 200 1760 l 797 1760 l 964 0 l 631 0 l 606 284 l 394 284 l 372 0 m 486 1460 l 419 565 l 579 565 l 502 1460 l 486 1460 m 634 2174 l 634 2174 q 589 2174 550 2191 q 510 2208 472 2225 q 434 2242 395 2242 l 395 2242 q 371 2242 350 2231 q 329 2220 311 2191 l 311 2191 l 200 2249 q 226 2314 262 2361 q 298 2407 373 2407 l 373 2407 q 420 2407 459 2390 q 498 2373 535 2356 q 572 2339 612 2339 l 612 2339 q 662 2339 696 2395 l 696 2395 l 821 2355 q 793 2285 756 2230 q 719 2174 634 2174 m 491 1830 l 491 1830 q 393 1830 319 1865 q 245 1900 205 1955 q 164 2010 164 2069 l 164 2069 q 164 2090 167 2111 l 167 2111 l 357 2111 q 357 2049 386 2017 q 415 1985 491 1985 l 491 1985 q 568 1985 597 2017 q 625 2049 625 2111 l 625 2111 l 826 2111 q 827 2101 828 2091 q 828 2081 828 2076 l 828 2076 q 828 2014 788 1958 q 747 1901 672 1866 q 596 1830 491 1830"},"Ǎ":{"x_min":30,"x_max":964,"ha":994,"o":"m 372 0 l 30 0 l 200 1760 l 797 1760 l 964 0 l 631 0 l 606 284 l 394 284 l 372 0 m 486 1460 l 419 565 l 579 565 l 502 1460 l 486 1460 m 700 1851 l 292 1851 l 51 2254 l 410 2254 l 496 1969 l 582 2254 l 941 2254 l 700 1851"},"Â":{"x_min":30,"x_max":964,"ha":994,"o":"m 372 0 l 30 0 l 200 1760 l 797 1760 l 964 0 l 631 0 l 606 284 l 394 284 l 372 0 m 486 1460 l 419 565 l 579 565 l 502 1460 l 486 1460 m 410 1851 l 51 1851 l 292 2254 l 700 2254 l 941 1851 l 582 1851 l 496 2136 l 410 1851"},"Ấ":{"x_min":30,"x_max":1206,"ha":994,"o":"m 372 0 l 30 0 l 200 1760 l 797 1760 l 964 0 l 631 0 l 606 284 l 394 284 l 372 0 m 486 1460 l 419 565 l 579 565 l 502 1460 l 486 1460 m 1018 2000 l 785 2000 l 899 2204 l 1206 2204 l 1018 2000 m 397 1839 l 112 1839 l 349 2093 l 643 2093 l 880 1839 l 595 1839 l 496 1974 l 397 1839"},"Ậ":{"x_min":30,"x_max":964,"ha":994,"o":"m 372 0 l 30 0 l 200 1760 l 797 1760 l 964 0 l 631 0 l 606 284 l 394 284 l 372 0 m 486 1460 l 419 565 l 579 565 l 502 1460 l 486 1460 m 676 -397 l 318 -397 l 318 -99 l 676 -99 l 676 -397 m 410 1861 l 51 1861 l 292 2194 l 700 2194 l 941 1861 l 582 1861 l 496 2076 l 410 1861"},"Ầ":{"x_min":30,"x_max":1085,"ha":994,"o":"m 372 0 l 30 0 l 200 1760 l 797 1760 l 964 0 l 631 0 l 606 284 l 394 284 l 372 0 m 486 1460 l 419 565 l 579 565 l 502 1460 l 486 1460 m 1085 2000 l 852 2000 l 664 2204 l 971 2204 l 1085 2000 m 397 1839 l 112 1839 l 349 2093 l 643 2093 l 880 1839 l 595 1839 l 496 1974 l 397 1839"},"Ẩ":{"x_min":30,"x_max":1035,"ha":994,"o":"m 372 0 l 30 0 l 200 1760 l 797 1760 l 964 0 l 631 0 l 606 284 l 394 284 l 372 0 m 486 1460 l 419 565 l 579 565 l 502 1460 l 486 1460 m 866 1959 l 866 1959 l 800 2036 q 834 2049 855 2068 q 875 2086 875 2117 l 875 2117 q 875 2176 812 2176 l 812 2176 q 784 2176 756 2166 l 756 2166 l 756 2278 q 813 2299 870 2299 l 870 2299 q 947 2299 991 2260 q 1035 2221 1035 2151 l 1035 2151 q 1035 2072 987 2027 q 938 1982 866 1959 m 397 1839 l 112 1839 l 349 2093 l 643 2093 l 880 1839 l 595 1839 l 496 1974 l 397 1839"},"Ẫ":{"x_min":30,"x_max":964,"ha":994,"o":"m 372 0 l 30 0 l 200 1760 l 797 1760 l 964 0 l 631 0 l 606 284 l 394 284 l 372 0 m 486 1460 l 419 565 l 579 565 l 502 1460 l 486 1460 m 616 2142 l 616 2142 q 571 2142 532 2159 q 492 2176 455 2193 q 417 2210 377 2210 l 377 2210 q 353 2210 332 2199 q 311 2188 293 2159 l 293 2159 l 182 2217 q 208 2282 244 2329 q 280 2375 355 2375 l 355 2375 q 402 2375 441 2358 q 480 2341 517 2324 q 554 2307 594 2307 l 594 2307 q 644 2307 678 2363 l 678 2363 l 803 2323 q 775 2253 738 2198 q 701 2142 616 2142 m 397 1839 l 112 1839 l 349 2093 l 643 2093 l 880 1839 l 595 1839 l 496 1974 l 397 1839"},"Ȁ":{"x_min":10,"x_max":964,"ha":994,"o":"m 372 0 l 30 0 l 200 1760 l 797 1760 l 964 0 l 631 0 l 606 284 l 394 284 l 372 0 m 486 1460 l 419 565 l 579 565 l 502 1460 l 486 1460 m 465 1904 l 299 1846 l 10 2275 l 244 2383 l 465 1904 m 767 1904 l 601 1846 l 353 2275 l 583 2383 l 767 1904"},"Ä":{"x_min":30,"x_max":964,"ha":994,"o":"m 372 0 l 30 0 l 200 1760 l 797 1760 l 964 0 l 631 0 l 606 284 l 394 284 l 372 0 m 486 1460 l 419 565 l 579 565 l 502 1460 l 486 1460 m 910 1859 l 552 1859 l 552 2157 l 910 2157 l 910 1859 m 426 1859 l 68 1859 l 68 2157 l 426 2157 l 426 1859"},"Ǟ":{"x_min":30,"x_max":964,"ha":994,"o":"m 372 0 l 30 0 l 200 1760 l 797 1760 l 964 0 l 631 0 l 606 284 l 394 284 l 372 0 m 486 1460 l 419 565 l 579 565 l 502 1460 l 486 1460 m 917 1859 l 559 1859 l 559 2107 l 917 2107 l 917 1859 m 433 1859 l 75 1859 l 75 2107 l 433 2107 l 433 1859 m 821 2216 l 171 2216 l 171 2369 l 821 2369 l 821 2216"},"Ȧ":{"x_min":30,"x_max":964,"ha":994,"o":"m 372 0 l 30 0 l 200 1760 l 797 1760 l 964 0 l 631 0 l 606 284 l 394 284 l 372 0 m 486 1460 l 419 565 l 579 565 l 502 1460 l 486 1460 m 675 1852 l 317 1852 l 317 2150 l 675 2150 l 675 1852"},"Ạ":{"x_min":30,"x_max":964,"ha":994,"o":"m 372 0 l 30 0 l 200 1760 l 797 1760 l 964 0 l 631 0 l 606 284 l 394 284 l 372 0 m 486 1460 l 419 565 l 579 565 l 502 1460 l 486 1460 m 676 -397 l 318 -397 l 318 -99 l 676 -99 l 676 -397"},"Ǡ":{"x_min":30,"x_max":964,"ha":994,"o":"m 372 0 l 30 0 l 200 1760 l 797 1760 l 964 0 l 631 0 l 606 284 l 394 284 l 372 0 m 486 1460 l 419 565 l 579 565 l 502 1460 l 486 1460 m 675 1852 l 317 1852 l 317 2110 l 675 2110 l 675 1852 m 821 2198 l 171 2198 l 171 2351 l 821 2351 l 821 2198"},"À":{"x_min":30,"x_max":964,"ha":994,"o":"m 372 0 l 30 0 l 200 1760 l 797 1760 l 964 0 l 631 0 l 606 284 l 394 284 l 372 0 m 486 1460 l 419 565 l 579 565 l 502 1460 l 486 1460 m 733 2036 l 733 1813 l 258 1907 l 258 2254 l 733 2036"},"Ả":{"x_min":30,"x_max":964,"ha":994,"o":"m 372 0 l 30 0 l 200 1760 l 797 1760 l 964 0 l 631 0 l 606 284 l 394 284 l 372 0 m 486 1460 l 419 565 l 579 565 l 502 1460 l 486 1460 m 467 1837 l 467 1837 l 361 1961 q 415 1981 448 2011 q 481 2041 481 2091 l 481 2091 q 481 2186 380 2186 l 380 2186 q 333 2186 290 2170 l 290 2170 l 290 2350 q 378 2383 473 2383 l 473 2383 q 598 2383 669 2321 q 739 2258 739 2145 l 739 2145 q 739 2018 661 1946 q 583 1873 467 1837"},"Ȃ":{"x_min":30,"x_max":964,"ha":994,"o":"m 372 0 l 30 0 l 200 1760 l 797 1760 l 964 0 l 631 0 l 606 284 l 394 284 l 372 0 m 486 1460 l 419 565 l 579 565 l 502 1460 l 486 1460 m 361 1868 l 125 1868 q 122 1888 122 1909 l 122 1909 q 122 2072 221 2146 q 319 2220 494 2220 l 494 2220 q 674 2220 772 2145 q 869 2069 869 1902 l 869 1902 q 869 1897 869 1888 q 868 1878 867 1868 l 867 1868 l 631 1868 q 631 1936 593 1969 q 555 2002 496 2002 l 496 2002 q 438 2002 400 1969 q 361 1936 361 1868 l 361 1868"},"Ɑ":{"x_min":64,"x_max":1059,"ha":1069,"o":"m 363 -16 l 363 -16 q 234 -16 170 46 q 106 107 85 216 q 64 325 64 467 l 64 467 l 64 1294 q 64 1436 85 1545 q 106 1653 170 1715 q 234 1776 363 1776 l 363 1776 q 449 1776 500 1733 q 551 1690 581 1604 l 581 1604 l 581 1760 l 931 1760 l 931 439 q 931 368 962 337 q 992 306 1059 306 l 1059 306 l 1059 -10 q 887 -10 790 30 q 693 69 642 189 l 642 189 q 609 75 534 30 q 459 -16 363 -16 m 499 278 l 499 278 q 546 278 564 322 q 581 366 581 431 l 581 431 l 581 1330 q 581 1395 564 1439 q 546 1482 499 1482 l 499 1482 q 448 1482 431 1442 q 414 1401 414 1330 l 414 1330 l 414 431 q 414 360 431 319 q 448 278 499 278"},"Ā":{"x_min":30,"x_max":964,"ha":994,"o":"m 372 0 l 30 0 l 200 1760 l 797 1760 l 964 0 l 631 0 l 606 284 l 394 284 l 372 0 m 486 1460 l 419 565 l 579 565 l 502 1460 l 486 1460 m 822 1879 l 172 1879 l 172 2032 l 822 2032 l 822 1879"},"Ą":{"x_min":30,"x_max":973,"ha":994,"o":"m 372 0 l 30 0 l 200 1760 l 797 1760 l 964 0 l 631 0 l 606 284 l 394 284 l 372 0 m 486 1460 l 419 565 l 579 565 l 502 1460 l 486 1460 m 775 -631 l 775 -631 q 680 -631 601 -595 q 522 -559 475 -491 q 427 -424 427 -330 l 427 -330 q 427 -148 691 0 l 691 0 l 902 0 q 846 -58 794 -127 q 742 -196 742 -279 l 742 -279 q 742 -391 857 -391 l 857 -391 q 906 -391 973 -368 l 973 -368 l 973 -591 q 878 -631 775 -631"},"Å":{"x_min":30,"x_max":964,"ha":994,"o":"m 372 0 l 30 0 l 200 1760 l 797 1760 l 964 0 l 631 0 l 606 284 l 394 284 l 372 0 m 486 1460 l 419 565 l 579 565 l 502 1460 l 486 1460 m 495 1840 l 495 1840 q 335 1840 239 1930 q 142 2019 142 2178 l 142 2178 q 142 2336 239 2426 q 335 2516 495 2516 l 495 2516 q 656 2516 753 2426 q 849 2336 849 2178 l 849 2178 q 849 2020 753 1930 q 656 1840 495 1840 m 496 2021 l 496 2021 q 563 2021 601 2067 q 638 2113 638 2178 l 638 2178 q 638 2243 601 2289 q 563 2335 496 2335 l 496 2335 q 429 2335 392 2289 q 354 2243 354 2178 l 354 2178 q 354 2113 392 2067 q 429 2021 496 2021"},"Ǻ":{"x_min":30,"x_max":964,"ha":994,"o":"m 372 0 l 30 0 l 200 1760 l 797 1760 l 964 0 l 631 0 l 606 284 l 394 284 l 372 0 m 486 1460 l 419 565 l 579 565 l 502 1460 l 486 1460 m 496 1840 l 496 1840 q 336 1840 240 1924 q 143 2008 143 2158 l 143 2158 q 143 2307 240 2392 q 336 2476 496 2476 l 496 2476 q 657 2476 754 2392 q 850 2307 850 2158 l 850 2158 q 850 2010 754 1925 q 657 1840 496 1840 m 497 2021 l 497 2021 q 564 2021 602 2061 q 639 2101 639 2158 l 639 2158 q 639 2215 602 2255 q 564 2295 497 2295 l 497 2295 q 430 2295 393 2255 q 355 2215 355 2158 l 355 2158 q 355 2101 393 2061 q 430 2021 497 2021 m 734 2587 l 259 2513 l 259 2706 l 734 2874 l 734 2587"},"Ḁ":{"x_min":30,"x_max":964,"ha":994,"o":"m 372 0 l 30 0 l 200 1760 l 797 1760 l 964 0 l 631 0 l 606 284 l 394 284 l 372 0 m 486 1460 l 419 565 l 579 565 l 502 1460 l 486 1460 m 496 -613 l 496 -613 q 336 -613 240 -529 q 143 -445 143 -295 l 143 -295 q 143 -146 240 -61 q 336 23 496 23 l 496 23 q 657 23 754 -61 q 850 -146 850 -295 l 850 -295 q 850 -443 754 -528 q 657 -613 496 -613 m 497 -432 l 497 -432 q 564 -432 602 -392 q 639 -352 639 -295 l 639 -295 q 639 -238 602 -198 q 564 -158 497 -158 l 497 -158 q 430 -158 393 -198 q 355 -238 355 -295 l 355 -295 q 355 -352 393 -392 q 430 -432 497 -432"},"Ⱥ":{"x_min":30,"x_max":964,"ha":994,"o":"m 149 0 l 30 0 l 200 1760 l 607 1760 l 669 2000 l 809 2000 l 747 1760 l 797 1760 l 964 0 l 631 0 l 606 284 l 394 284 l 372 0 l 289 0 l 241 -186 l 101 -186 l 149 0 m 486 1460 l 419 565 l 579 565 l 502 1460 l 486 1460"},"Ã":{"x_min":30,"x_max":964,"ha":994,"o":"m 372 0 l 30 0 l 200 1760 l 797 1760 l 964 0 l 631 0 l 606 284 l 394 284 l 372 0 m 486 1460 l 419 565 l 579 565 l 502 1460 l 486 1460 m 661 1871 l 661 1871 q 587 1871 526 1894 q 464 1917 414 1940 q 364 1962 323 1962 l 323 1962 q 297 1962 274 1947 q 251 1932 231 1894 l 231 1894 l 83 1972 q 108 2033 138 2084 q 167 2134 213 2165 q 259 2195 330 2195 l 330 2195 q 401 2195 459 2174 q 516 2153 564 2132 q 611 2111 650 2111 l 650 2111 q 677 2111 700 2128 q 723 2145 743 2186 l 743 2186 l 909 2132 q 885 2065 856 2005 q 827 1945 782 1908 q 736 1871 661 1871"},"B":{"x_min":78,"x_max":942,"ha":980,"o":"m 555 0 l 78 0 l 78 1760 l 555 1760 q 747 1760 835 1667 q 922 1573 922 1358 l 922 1358 l 922 1281 q 922 1157 878 1080 q 833 1003 742 979 l 742 979 q 861 949 902 839 q 942 728 942 569 l 942 569 q 942 398 910 270 q 878 142 794 71 q 710 0 555 0 l 555 0 m 422 1488 l 422 1097 l 494 1097 q 543 1097 557 1135 q 571 1173 571 1226 l 571 1226 l 571 1403 q 571 1488 496 1488 l 496 1488 l 422 1488 m 457 310 l 457 310 q 594 310 594 440 l 594 440 l 594 660 q 594 735 572 779 q 549 822 487 822 l 487 822 l 422 822 l 422 312 q 444 310 457 310"},"Ḃ":{"x_min":78,"x_max":942,"ha":980,"o":"m 555 0 l 78 0 l 78 1760 l 555 1760 q 747 1760 835 1667 q 922 1573 922 1358 l 922 1358 l 922 1281 q 922 1157 878 1080 q 833 1003 742 979 l 742 979 q 861 949 902 839 q 942 728 942 569 l 942 569 q 942 398 910 270 q 878 142 794 71 q 710 0 555 0 l 555 0 m 422 1488 l 422 1097 l 494 1097 q 543 1097 557 1135 q 571 1173 571 1226 l 571 1226 l 571 1403 q 571 1488 496 1488 l 496 1488 l 422 1488 m 457 310 l 457 310 q 594 310 594 440 l 594 440 l 594 660 q 594 735 572 779 q 549 822 487 822 l 487 822 l 422 822 l 422 312 q 444 310 457 310 m 630 1852 l 272 1852 l 272 2150 l 630 2150 l 630 1852"},"Ḅ":{"x_min":78,"x_max":942,"ha":980,"o":"m 555 0 l 78 0 l 78 1760 l 555 1760 q 747 1760 835 1667 q 922 1573 922 1358 l 922 1358 l 922 1281 q 922 1157 878 1080 q 833 1003 742 979 l 742 979 q 861 949 902 839 q 942 728 942 569 l 942 569 q 942 398 910 270 q 878 142 794 71 q 710 0 555 0 l 555 0 m 422 1488 l 422 1097 l 494 1097 q 543 1097 557 1135 q 571 1173 571 1226 l 571 1226 l 571 1403 q 571 1488 496 1488 l 496 1488 l 422 1488 m 457 310 l 457 310 q 594 310 594 440 l 594 440 l 594 660 q 594 735 572 779 q 549 822 487 822 l 487 822 l 422 822 l 422 312 q 444 310 457 310 m 630 -417 l 272 -417 l 272 -119 l 630 -119 l 630 -417"},"Ꞵ":{"x_min":78,"x_max":942,"ha":980,"o":"m 422 -186 l 78 -186 l 78 1760 l 555 1760 q 747 1760 835 1667 q 922 1573 922 1358 l 922 1358 l 922 1281 q 922 1157 878 1080 q 833 1003 742 979 l 742 979 q 861 949 902 839 q 942 728 942 569 l 942 569 q 942 398 910 270 q 878 142 794 71 q 710 0 555 0 l 555 0 l 422 0 l 422 -186 m 422 1488 l 422 1097 l 494 1097 q 543 1097 557 1135 q 571 1173 571 1226 l 571 1226 l 571 1403 q 571 1488 496 1488 l 496 1488 l 422 1488 m 457 310 l 457 310 q 594 310 594 440 l 594 440 l 594 660 q 594 735 572 779 q 549 822 487 822 l 487 822 l 422 822 l 422 312 q 444 310 457 310"},"Ɓ":{"x_min":5,"x_max":1290,"ha":1328,"o":"m 903 0 l 426 0 l 426 1488 q 312 1488 312 1336 l 312 1336 l 312 1252 l 5 1252 l 5 1312 q 5 1443 52 1544 q 98 1645 192 1703 q 285 1760 426 1760 l 426 1760 l 903 1760 q 1095 1760 1183 1667 q 1270 1573 1270 1358 l 1270 1358 l 1270 1281 q 1270 1157 1226 1080 q 1181 1003 1090 979 l 1090 979 q 1209 949 1250 839 q 1290 728 1290 569 l 1290 569 q 1290 398 1258 270 q 1226 142 1142 71 q 1058 0 903 0 l 903 0 m 770 1488 l 770 1097 l 842 1097 q 891 1097 905 1135 q 919 1173 919 1226 l 919 1226 l 919 1403 q 919 1488 844 1488 l 844 1488 l 770 1488 m 805 310 l 805 310 q 942 310 942 440 l 942 440 l 942 660 q 942 735 920 779 q 897 822 835 822 l 835 822 l 770 822 l 770 312 q 792 310 805 310"},"Ḇ":{"x_min":78,"x_max":942,"ha":980,"o":"m 555 0 l 78 0 l 78 1760 l 555 1760 q 747 1760 835 1667 q 922 1573 922 1358 l 922 1358 l 922 1281 q 922 1157 878 1080 q 833 1003 742 979 l 742 979 q 861 949 902 839 q 942 728 942 569 l 942 569 q 942 398 910 270 q 878 142 794 71 q 710 0 555 0 l 555 0 m 422 1488 l 422 1097 l 494 1097 q 543 1097 557 1135 q 571 1173 571 1226 l 571 1226 l 571 1403 q 571 1488 496 1488 l 496 1488 l 422 1488 m 457 310 l 457 310 q 594 310 594 440 l 594 440 l 594 660 q 594 735 572 779 q 549 822 487 822 l 487 822 l 422 822 l 422 312 q 444 310 457 310 m 776 -272 l 126 -272 l 126 -119 l 776 -119 l 776 -272"},"Ƀ":{"x_min":0,"x_max":942,"ha":980,"o":"m 555 0 l 78 0 l 78 453 l 0 453 l 0 685 l 78 685 l 78 1760 l 555 1760 q 747 1760 835 1667 q 922 1573 922 1358 l 922 1358 l 922 1281 q 922 1157 878 1080 q 833 1003 742 979 l 742 979 q 861 949 902 839 q 942 728 942 569 l 942 569 q 942 398 910 270 q 878 142 794 71 q 710 0 555 0 l 555 0 m 422 1488 l 422 1097 l 494 1097 q 543 1097 557 1135 q 571 1173 571 1226 l 571 1226 l 571 1403 q 571 1488 496 1488 l 496 1488 l 422 1488 m 457 310 l 457 310 q 594 310 594 440 l 594 440 l 594 660 q 594 735 572 779 q 549 822 487 822 l 487 822 l 422 822 l 422 685 l 516 685 l 516 453 l 422 453 l 422 312 q 444 310 457 310"},"C":{"x_min":64,"x_max":932,"ha":971,"o":"m 488 -16 l 488 -16 q 297 -16 181 103 q 64 222 64 436 l 64 436 l 64 1248 q 64 1504 166 1640 q 267 1776 496 1776 l 496 1776 q 621 1776 719 1730 q 816 1684 872 1593 q 928 1501 928 1362 l 928 1362 l 928 1058 l 578 1058 l 578 1318 q 578 1397 558 1425 q 538 1452 496 1452 l 496 1452 q 447 1452 430 1417 q 413 1381 413 1322 l 413 1322 l 413 441 q 413 368 435 338 q 456 308 496 308 l 496 308 q 541 308 560 345 q 578 382 578 441 l 578 441 l 578 758 l 932 758 l 932 425 q 932 193 815 89 q 698 -16 488 -16"},"Ć":{"x_min":64,"x_max":932,"ha":971,"o":"m 488 -16 l 488 -16 q 297 -16 181 103 q 64 222 64 436 l 64 436 l 64 1248 q 64 1504 166 1640 q 267 1776 496 1776 l 496 1776 q 621 1776 719 1730 q 816 1684 872 1593 q 928 1501 928 1362 l 928 1362 l 928 1058 l 578 1058 l 578 1318 q 578 1397 558 1425 q 538 1452 496 1452 l 496 1452 q 447 1452 430 1417 q 413 1381 413 1322 l 413 1322 l 413 441 q 413 368 435 338 q 456 308 496 308 l 496 308 q 541 308 560 345 q 578 382 578 441 l 578 441 l 578 758 l 932 758 l 932 425 q 932 193 815 89 q 698 -16 488 -16 m 733 1907 l 258 1813 l 258 2036 l 733 2254 l 733 1907"},"Č":{"x_min":51,"x_max":941,"ha":971,"o":"m 488 -16 l 488 -16 q 297 -16 181 103 q 64 222 64 436 l 64 436 l 64 1248 q 64 1504 166 1640 q 267 1776 496 1776 l 496 1776 q 621 1776 719 1730 q 816 1684 872 1593 q 928 1501 928 1362 l 928 1362 l 928 1058 l 578 1058 l 578 1318 q 578 1397 558 1425 q 538 1452 496 1452 l 496 1452 q 447 1452 430 1417 q 413 1381 413 1322 l 413 1322 l 413 441 q 413 368 435 338 q 456 308 496 308 l 496 308 q 541 308 560 345 q 578 382 578 441 l 578 441 l 578 758 l 932 758 l 932 425 q 932 193 815 89 q 698 -16 488 -16 m 700 1851 l 292 1851 l 51 2254 l 410 2254 l 496 1969 l 582 2254 l 941 2254 l 700 1851"},"Ç":{"x_min":64,"x_max":932,"ha":971,"o":"m 488 -16 l 488 -16 q 297 -16 181 103 q 64 222 64 436 l 64 436 l 64 1248 q 64 1504 166 1640 q 267 1776 496 1776 l 496 1776 q 621 1776 719 1730 q 816 1684 872 1593 q 928 1501 928 1362 l 928 1362 l 928 1058 l 578 1058 l 578 1318 q 578 1397 558 1425 q 538 1452 496 1452 l 496 1452 q 447 1452 430 1417 q 413 1381 413 1322 l 413 1322 l 413 441 q 413 368 435 338 q 456 308 496 308 l 496 308 q 541 308 560 345 q 578 382 578 441 l 578 441 l 578 758 l 932 758 l 932 425 q 932 193 815 89 q 698 -16 488 -16 m 463 -631 l 463 -631 q 360 -631 265 -591 l 265 -591 l 265 -368 q 296 -378 326 -384 q 356 -391 383 -391 l 383 -391 q 433 -391 467 -364 q 500 -338 500 -273 l 500 -273 q 500 -217 473 -145 q 445 -73 396 0 l 396 0 l 557 0 q 654 -85 708 -189 q 761 -294 761 -387 l 761 -387 q 761 -490 690 -560 q 619 -631 463 -631"},"Ḉ":{"x_min":64,"x_max":932,"ha":971,"o":"m 488 -16 l 488 -16 q 297 -16 181 103 q 64 222 64 436 l 64 436 l 64 1248 q 64 1504 166 1640 q 267 1776 496 1776 l 496 1776 q 621 1776 719 1730 q 816 1684 872 1593 q 928 1501 928 1362 l 928 1362 l 928 1058 l 578 1058 l 578 1318 q 578 1397 558 1425 q 538 1452 496 1452 l 496 1452 q 447 1452 430 1417 q 413 1381 413 1322 l 413 1322 l 413 441 q 413 368 435 338 q 456 308 496 308 l 496 308 q 541 308 560 345 q 578 382 578 441 l 578 441 l 578 758 l 932 758 l 932 425 q 932 193 815 89 q 698 -16 488 -16 m 463 -631 l 463 -631 q 360 -631 265 -591 l 265 -591 l 265 -368 q 296 -378 326 -384 q 356 -391 383 -391 l 383 -391 q 433 -391 467 -364 q 500 -338 500 -273 l 500 -273 q 500 -217 473 -145 q 445 -73 396 0 l 396 0 l 557 0 q 654 -85 708 -189 q 761 -294 761 -387 l 761 -387 q 761 -490 690 -560 q 619 -631 463 -631 m 734 1907 l 259 1813 l 259 2036 l 734 2254 l 734 1907"},"Ĉ":{"x_min":51,"x_max":941,"ha":971,"o":"m 488 -16 l 488 -16 q 297 -16 181 103 q 64 222 64 436 l 64 436 l 64 1248 q 64 1504 166 1640 q 267 1776 496 1776 l 496 1776 q 621 1776 719 1730 q 816 1684 872 1593 q 928 1501 928 1362 l 928 1362 l 928 1058 l 578 1058 l 578 1318 q 578 1397 558 1425 q 538 1452 496 1452 l 496 1452 q 447 1452 430 1417 q 413 1381 413 1322 l 413 1322 l 413 441 q 413 368 435 338 q 456 308 496 308 l 496 308 q 541 308 560 345 q 578 382 578 441 l 578 441 l 578 758 l 932 758 l 932 425 q 932 193 815 89 q 698 -16 488 -16 m 410 1851 l 51 1851 l 292 2254 l 700 2254 l 941 1851 l 582 1851 l 496 2136 l 410 1851"},"Ċ":{"x_min":64,"x_max":932,"ha":971,"o":"m 488 -16 l 488 -16 q 297 -16 181 103 q 64 222 64 436 l 64 436 l 64 1248 q 64 1504 166 1640 q 267 1776 496 1776 l 496 1776 q 621 1776 719 1730 q 816 1684 872 1593 q 928 1501 928 1362 l 928 1362 l 928 1058 l 578 1058 l 578 1318 q 578 1397 558 1425 q 538 1452 496 1452 l 496 1452 q 447 1452 430 1417 q 413 1381 413 1322 l 413 1322 l 413 441 q 413 368 435 338 q 456 308 496 308 l 496 308 q 541 308 560 345 q 578 382 578 441 l 578 441 l 578 758 l 932 758 l 932 425 q 932 193 815 89 q 698 -16 488 -16 m 675 1852 l 317 1852 l 317 2150 l 675 2150 l 675 1852"},"Ꭓ":{"x_min":27,"x_max":987,"ha":1013,"o":"m 987 84 l 987 -202 q 777 -202 681 -121 q 584 -41 559 134 l 559 134 l 497 572 l 387 -186 l 37 -186 l 221 844 l 143 1342 q 131 1419 113 1454 q 95 1488 27 1488 l 27 1488 l 27 1774 q 237 1774 335 1694 q 432 1614 455 1438 l 455 1438 l 501 1091 l 579 1760 l 917 1760 l 769 844 l 879 231 q 893 154 914 119 q 935 84 987 84 l 987 84"},"Ƈ":{"x_min":64,"x_max":1064,"ha":1054,"o":"m 488 -16 l 488 -16 q 297 -16 181 103 q 64 222 64 436 l 64 436 l 64 1248 q 64 1504 165 1640 q 265 1776 486 1776 l 486 1776 q 596 1776 677 1723 l 677 1723 q 718 1849 819 1925 q 919 2000 1064 2000 l 1064 2000 l 1064 1684 q 995 1684 962 1652 q 928 1619 928 1532 l 928 1532 l 928 1058 l 578 1058 l 578 1318 q 578 1397 558 1425 q 538 1452 496 1452 l 496 1452 q 447 1452 430 1417 q 413 1381 413 1322 l 413 1322 l 413 441 q 413 368 435 338 q 456 308 496 308 l 496 308 q 541 308 560 345 q 578 382 578 441 l 578 441 l 578 758 l 932 758 l 932 425 q 932 193 815 89 q 698 -16 488 -16"},"Ȼ":{"x_min":64,"x_max":932,"ha":971,"o":"m 301 -186 l 161 -186 l 226 63 q 149 120 107 215 q 64 309 64 436 l 64 436 l 64 1248 q 64 1504 166 1640 q 267 1776 496 1776 l 496 1776 q 588 1776 665 1752 l 665 1752 l 729 2000 l 869 2000 l 789 1687 q 854 1636 891 1555 q 928 1473 928 1362 l 928 1362 l 928 1058 l 578 1058 l 578 1318 q 578 1397 558 1425 q 538 1452 496 1452 l 496 1452 q 447 1452 430 1417 q 413 1381 413 1322 l 413 1322 l 413 441 q 413 368 435 338 q 456 308 496 308 l 496 308 q 541 308 560 345 q 578 382 578 441 l 578 441 l 578 758 l 932 758 l 932 425 q 932 193 815 89 q 698 -16 488 -16 l 488 -16 q 414 -16 350 2 l 350 2 l 301 -186"},"D":{"x_min":78,"x_max":944,"ha":1010,"o":"m 550 0 l 78 0 l 78 1760 l 562 1760 q 752 1760 848 1655 q 944 1549 944 1346 l 944 1346 l 944 522 q 944 272 857 136 q 769 0 550 0 l 550 0 m 432 1452 l 432 311 l 493 311 q 590 311 590 405 l 590 405 l 590 1313 q 590 1401 567 1427 q 543 1452 471 1452 l 471 1452 l 432 1452"},"Ǳ":{"x_min":78,"x_max":1816,"ha":1850,"o":"m 550 0 l 78 0 l 78 1760 l 562 1760 q 752 1760 848 1655 q 944 1549 944 1346 l 944 1346 l 944 522 q 944 272 857 136 q 769 0 550 0 l 550 0 m 432 1452 l 432 311 l 493 311 q 590 311 590 405 l 590 405 l 590 1313 q 590 1401 567 1427 q 543 1452 471 1452 l 471 1452 l 432 1452 m 1799 0 l 1042 0 l 1042 320 l 1445 1436 l 1081 1436 l 1081 1760 l 1816 1760 l 1816 1452 l 1406 324 l 1799 324 l 1799 0"},"Ǆ":{"x_min":78,"x_max":1894,"ha":1850,"o":"m 550 0 l 78 0 l 78 1760 l 562 1760 q 752 1760 848 1655 q 944 1549 944 1346 l 944 1346 l 944 522 q 944 272 857 136 q 769 0 550 0 l 550 0 m 432 1452 l 432 311 l 493 311 q 590 311 590 405 l 590 405 l 590 1313 q 590 1401 567 1427 q 543 1452 471 1452 l 471 1452 l 432 1452 m 1799 0 l 1042 0 l 1042 320 l 1445 1436 l 1081 1436 l 1081 1760 l 1816 1760 l 1816 1452 l 1406 324 l 1799 324 l 1799 0 m 1653 1851 l 1245 1851 l 1004 2254 l 1363 2254 l 1449 1969 l 1535 2254 l 1894 2254 l 1653 1851"},"Ɖ":{"x_min":3,"x_max":944,"ha":1010,"o":"m 550 0 l 78 0 l 78 804 l 3 804 l 3 1036 l 78 1036 l 78 1760 l 562 1760 q 752 1760 848 1655 q 944 1549 944 1346 l 944 1346 l 944 522 q 944 272 857 136 q 769 0 550 0 l 550 0 m 432 804 l 432 311 l 493 311 q 590 311 590 405 l 590 405 l 590 1313 q 590 1401 567 1427 q 543 1452 471 1452 l 471 1452 l 432 1452 l 432 1036 l 519 1036 l 519 804 l 432 804"},"Ď":{"x_min":59,"x_max":949,"ha":1010,"o":"m 550 0 l 78 0 l 78 1760 l 562 1760 q 752 1760 848 1655 q 944 1549 944 1346 l 944 1346 l 944 522 q 944 272 857 136 q 769 0 550 0 l 550 0 m 432 1452 l 432 311 l 493 311 q 590 311 590 405 l 590 405 l 590 1313 q 590 1401 567 1427 q 543 1452 471 1452 l 471 1452 l 432 1452 m 708 1851 l 300 1851 l 59 2254 l 418 2254 l 504 1969 l 590 2254 l 949 2254 l 708 1851"},"Ḑ":{"x_min":78,"x_max":944,"ha":1010,"o":"m 550 0 l 78 0 l 78 1760 l 562 1760 q 752 1760 848 1655 q 944 1549 944 1346 l 944 1346 l 944 522 q 944 272 857 136 q 769 0 550 0 l 550 0 m 432 1452 l 432 311 l 493 311 q 590 311 590 405 l 590 405 l 590 1313 q 590 1401 567 1427 q 543 1452 471 1452 l 471 1452 l 432 1452 m 577 -643 l 366 -643 l 432 -407 l 305 -407 l 305 -109 l 679 -109 l 679 -398 l 577 -643"},"Ḓ":{"x_min":60,"x_max":950,"ha":1010,"o":"m 550 0 l 78 0 l 78 1760 l 562 1760 q 752 1760 848 1655 q 944 1549 944 1346 l 944 1346 l 944 522 q 944 272 857 136 q 769 0 550 0 l 550 0 m 432 1452 l 432 311 l 493 311 q 590 311 590 405 l 590 405 l 590 1313 q 590 1401 567 1427 q 543 1452 471 1452 l 471 1452 l 432 1452 m 419 -512 l 60 -512 l 301 -109 l 709 -109 l 950 -512 l 591 -512 l 505 -227 l 419 -512"},"Đ":{"x_min":3,"x_max":944,"ha":1010,"o":"m 550 0 l 78 0 l 78 804 l 3 804 l 3 1036 l 78 1036 l 78 1760 l 562 1760 q 752 1760 848 1655 q 944 1549 944 1346 l 944 1346 l 944 522 q 944 272 857 136 q 769 0 550 0 l 550 0 m 432 804 l 432 311 l 493 311 q 590 311 590 405 l 590 405 l 590 1313 q 590 1401 567 1427 q 543 1452 471 1452 l 471 1452 l 432 1452 l 432 1036 l 519 1036 l 519 804 l 432 804"},"Ḋ":{"x_min":78,"x_max":944,"ha":1010,"o":"m 550 0 l 78 0 l 78 1760 l 562 1760 q 752 1760 848 1655 q 944 1549 944 1346 l 944 1346 l 944 522 q 944 272 857 136 q 769 0 550 0 l 550 0 m 432 1452 l 432 311 l 493 311 q 590 311 590 405 l 590 405 l 590 1313 q 590 1401 567 1427 q 543 1452 471 1452 l 471 1452 l 432 1452 m 683 1852 l 325 1852 l 325 2150 l 683 2150 l 683 1852"},"Ḍ":{"x_min":78,"x_max":944,"ha":1010,"o":"m 550 0 l 78 0 l 78 1760 l 562 1760 q 752 1760 848 1655 q 944 1549 944 1346 l 944 1346 l 944 522 q 944 272 857 136 q 769 0 550 0 l 550 0 m 432 1452 l 432 311 l 493 311 q 590 311 590 405 l 590 405 l 590 1313 q 590 1401 567 1427 q 543 1452 471 1452 l 471 1452 l 432 1452 m 684 -417 l 326 -417 l 326 -119 l 684 -119 l 684 -417"},"Δ":{"x_min":30,"x_max":1073,"ha":1103,"o":"m 1073 0 l 30 0 l 299 1760 l 796 1760 l 1073 0 m 515 1560 l 359 225 l 668 225 l 531 1560 l 515 1560"},"Ɗ":{"x_min":5,"x_max":1293,"ha":1359,"o":"m 899 0 l 427 0 l 427 1452 q 312 1452 312 1312 l 312 1312 l 312 1252 l 5 1252 l 5 1312 q 5 1509 110 1635 q 215 1760 427 1760 l 427 1760 l 911 1760 q 1101 1760 1197 1655 q 1293 1549 1293 1346 l 1293 1346 l 1293 522 q 1293 272 1206 136 q 1118 0 899 0 l 899 0 m 781 1452 l 781 311 l 842 311 q 939 311 939 405 l 939 405 l 939 1313 q 939 1401 916 1427 q 892 1452 820 1452 l 820 1452 l 781 1452"},"Ḏ":{"x_min":78,"x_max":944,"ha":1010,"o":"m 550 0 l 78 0 l 78 1760 l 562 1760 q 752 1760 848 1655 q 944 1549 944 1346 l 944 1346 l 944 522 q 944 272 857 136 q 769 0 550 0 l 550 0 m 432 1452 l 432 311 l 493 311 q 590 311 590 405 l 590 405 l 590 1313 q 590 1401 567 1427 q 543 1452 471 1452 l 471 1452 l 432 1452 m 830 -272 l 180 -272 l 180 -119 l 830 -119 l 830 -272"},"ǲ":{"x_min":78,"x_max":1786,"ha":1800,"o":"m 550 0 l 78 0 l 78 1760 l 562 1760 q 752 1760 848 1655 q 944 1549 944 1346 l 944 1346 l 944 522 q 944 272 857 136 q 769 0 550 0 l 550 0 m 432 1452 l 432 311 l 493 311 q 590 311 590 405 l 590 405 l 590 1313 q 590 1401 567 1427 q 543 1452 471 1452 l 471 1452 l 432 1452 m 1786 0 l 1038 0 l 1038 219 l 1412 1216 l 1056 1216 l 1056 1500 l 1783 1500 l 1783 1256 l 1430 268 l 1786 268 l 1786 0"},"ǅ":{"x_min":78,"x_max":1891,"ha":1800,"o":"m 550 0 l 78 0 l 78 1760 l 562 1760 q 752 1760 848 1655 q 944 1549 944 1346 l 944 1346 l 944 522 q 944 272 857 136 q 769 0 550 0 l 550 0 m 432 1452 l 432 311 l 493 311 q 590 311 590 405 l 590 405 l 590 1313 q 590 1401 567 1427 q 543 1452 471 1452 l 471 1452 l 432 1452 m 1786 0 l 1038 0 l 1038 219 l 1412 1216 l 1056 1216 l 1056 1500 l 1783 1500 l 1783 1256 l 1430 268 l 1786 268 l 1786 0 m 1650 1591 l 1242 1591 l 1001 1994 l 1360 1994 l 1446 1709 l 1532 1994 l 1891 1994 l 1650 1591"},"E":{"x_min":78,"x_max":805,"ha":843,"o":"m 805 0 l 78 0 l 78 1760 l 782 1760 l 782 1420 l 436 1420 l 436 1077 l 768 1077 l 768 746 l 436 746 l 436 343 l 805 343 l 805 0"},"É":{"x_min":78,"x_max":805,"ha":843,"o":"m 805 0 l 78 0 l 78 1760 l 782 1760 l 782 1420 l 436 1420 l 436 1077 l 768 1077 l 768 746 l 436 746 l 436 343 l 805 343 l 805 0 m 681 1907 l 206 1813 l 206 2036 l 681 2254 l 681 1907"},"Ĕ":{"x_min":55,"x_max":842,"ha":843,"o":"m 805 0 l 78 0 l 78 1760 l 782 1760 l 782 1420 l 436 1420 l 436 1077 l 768 1077 l 768 746 l 436 746 l 436 343 l 805 343 l 805 0 m 447 1852 l 447 1852 q 272 1852 164 1926 q 55 2000 55 2163 l 55 2163 q 55 2184 58 2205 l 58 2205 l 314 2205 q 314 2148 343 2119 q 372 2089 449 2089 l 449 2089 q 526 2089 555 2119 q 584 2148 584 2205 l 584 2205 l 840 2205 q 841 2195 842 2185 q 842 2175 842 2170 l 842 2170 q 842 2003 735 1928 q 627 1852 447 1852"},"Ě":{"x_min":-1,"x_max":889,"ha":843,"o":"m 805 0 l 78 0 l 78 1760 l 782 1760 l 782 1420 l 436 1420 l 436 1077 l 768 1077 l 768 746 l 436 746 l 436 343 l 805 343 l 805 0 m 648 1851 l 240 1851 l -1 2254 l 358 2254 l 444 1969 l 530 2254 l 889 2254 l 648 1851"},"Ȩ":{"x_min":78,"x_max":805,"ha":843,"o":"m 805 0 l 78 0 l 78 1760 l 782 1760 l 782 1420 l 436 1420 l 436 1077 l 768 1077 l 768 746 l 436 746 l 436 343 l 805 343 l 805 0 m 405 -631 l 405 -631 q 302 -631 207 -591 l 207 -591 l 207 -368 q 238 -378 268 -384 q 298 -391 325 -391 l 325 -391 q 375 -391 409 -364 q 442 -338 442 -273 l 442 -273 q 442 -217 415 -145 q 387 -73 338 0 l 338 0 l 499 0 q 596 -85 650 -189 q 703 -294 703 -387 l 703 -387 q 703 -490 632 -560 q 561 -631 405 -631"},"Ḝ":{"x_min":42,"x_max":829,"ha":843,"o":"m 805 0 l 78 0 l 78 1760 l 782 1760 l 782 1420 l 436 1420 l 436 1077 l 768 1077 l 768 746 l 436 746 l 436 343 l 805 343 l 805 0 m 405 -631 l 405 -631 q 302 -631 207 -591 l 207 -591 l 207 -368 q 238 -378 268 -384 q 298 -391 325 -391 l 325 -391 q 375 -391 409 -364 q 442 -338 442 -273 l 442 -273 q 442 -217 415 -145 q 387 -73 338 0 l 338 0 l 499 0 q 596 -85 650 -189 q 703 -294 703 -387 l 703 -387 q 703 -490 632 -560 q 561 -631 405 -631 m 434 1852 l 434 1852 q 259 1852 151 1926 q 42 2000 42 2163 l 42 2163 q 42 2184 45 2205 l 45 2205 l 301 2205 q 301 2148 330 2119 q 359 2089 436 2089 l 436 2089 q 513 2089 542 2119 q 571 2148 571 2205 l 571 2205 l 827 2205 q 828 2195 829 2185 q 829 2175 829 2170 l 829 2170 q 829 2003 722 1928 q 614 1852 434 1852"},"Ê":{"x_min":-1,"x_max":889,"ha":843,"o":"m 805 0 l 78 0 l 78 1760 l 782 1760 l 782 1420 l 436 1420 l 436 1077 l 768 1077 l 768 746 l 436 746 l 436 343 l 805 343 l 805 0 m 358 1851 l -1 1851 l 240 2254 l 648 2254 l 889 1851 l 530 1851 l 444 2136 l 358 1851"},"Ế":{"x_min":51,"x_max":1145,"ha":843,"o":"m 805 0 l 78 0 l 78 1760 l 782 1760 l 782 1420 l 436 1420 l 436 1077 l 768 1077 l 768 746 l 436 746 l 436 343 l 805 343 l 805 0 m 957 2000 l 724 2000 l 838 2204 l 1145 2204 l 957 2000 m 336 1839 l 51 1839 l 288 2093 l 582 2093 l 819 1839 l 534 1839 l 435 1974 l 336 1839"},"Ḙ":{"x_min":-3,"x_max":887,"ha":843,"o":"m 805 0 l 78 0 l 78 1760 l 782 1760 l 782 1420 l 436 1420 l 436 1077 l 768 1077 l 768 746 l 436 746 l 436 343 l 805 343 l 805 0 m 356 -512 l -3 -512 l 238 -109 l 646 -109 l 887 -512 l 528 -512 l 442 -227 l 356 -512"},"Ệ":{"x_min":-10,"x_max":880,"ha":843,"o":"m 805 0 l 78 0 l 78 1760 l 782 1760 l 782 1420 l 436 1420 l 436 1077 l 768 1077 l 768 746 l 436 746 l 436 343 l 805 343 l 805 0 m 621 -417 l 263 -417 l 263 -119 l 621 -119 l 621 -417 m 349 1861 l -10 1861 l 231 2194 l 639 2194 l 880 1861 l 521 1861 l 435 2076 l 349 1861"},"Ề":{"x_min":51,"x_max":1024,"ha":843,"o":"m 805 0 l 78 0 l 78 1760 l 782 1760 l 782 1420 l 436 1420 l 436 1077 l 768 1077 l 768 746 l 436 746 l 436 343 l 805 343 l 805 0 m 1024 2000 l 791 2000 l 603 2204 l 910 2204 l 1024 2000 m 336 1839 l 51 1839 l 288 2093 l 582 2093 l 819 1839 l 534 1839 l 435 1974 l 336 1839"},"Ể":{"x_min":51,"x_max":974,"ha":843,"o":"m 805 0 l 78 0 l 78 1760 l 782 1760 l 782 1420 l 436 1420 l 436 1077 l 768 1077 l 768 746 l 436 746 l 436 343 l 805 343 l 805 0 m 805 1959 l 805 1959 l 739 2036 q 773 2049 794 2068 q 814 2086 814 2117 l 814 2117 q 814 2176 751 2176 l 751 2176 q 723 2176 695 2166 l 695 2166 l 695 2278 q 752 2299 809 2299 l 809 2299 q 886 2299 930 2260 q 974 2221 974 2151 l 974 2151 q 974 2072 926 2027 q 877 1982 805 1959 m 336 1839 l 51 1839 l 288 2093 l 582 2093 l 819 1839 l 534 1839 l 435 1974 l 336 1839"},"Ễ":{"x_min":51,"x_max":819,"ha":843,"o":"m 805 0 l 78 0 l 78 1760 l 782 1760 l 782 1420 l 436 1420 l 436 1077 l 768 1077 l 768 746 l 436 746 l 436 343 l 805 343 l 805 0 m 555 2142 l 555 2142 q 510 2142 471 2159 q 431 2176 394 2193 q 356 2210 316 2210 l 316 2210 q 292 2210 271 2199 q 250 2188 232 2159 l 232 2159 l 121 2217 q 147 2282 183 2329 q 219 2375 294 2375 l 294 2375 q 341 2375 380 2358 q 419 2341 456 2324 q 493 2307 533 2307 l 533 2307 q 583 2307 617 2363 l 617 2363 l 742 2323 q 714 2253 677 2198 q 640 2142 555 2142 m 336 1839 l 51 1839 l 288 2093 l 582 2093 l 819 1839 l 534 1839 l 435 1974 l 336 1839"},"Ȅ":{"x_min":-42,"x_max":805,"ha":843,"o":"m 805 0 l 78 0 l 78 1760 l 782 1760 l 782 1420 l 436 1420 l 436 1077 l 768 1077 l 768 746 l 436 746 l 436 343 l 805 343 l 805 0 m 413 1904 l 247 1846 l -42 2275 l 192 2383 l 413 1904 m 715 1904 l 549 1846 l 301 2275 l 531 2383 l 715 1904"},"Ë":{"x_min":16,"x_max":858,"ha":843,"o":"m 805 0 l 78 0 l 78 1760 l 782 1760 l 782 1420 l 436 1420 l 436 1077 l 768 1077 l 768 746 l 436 746 l 436 343 l 805 343 l 805 0 m 858 1859 l 500 1859 l 500 2157 l 858 2157 l 858 1859 m 374 1859 l 16 1859 l 16 2157 l 374 2157 l 374 1859"},"Ė":{"x_min":78,"x_max":805,"ha":843,"o":"m 805 0 l 78 0 l 78 1760 l 782 1760 l 782 1420 l 436 1420 l 436 1077 l 768 1077 l 768 746 l 436 746 l 436 343 l 805 343 l 805 0 m 623 1852 l 265 1852 l 265 2150 l 623 2150 l 623 1852"},"Ẹ":{"x_min":78,"x_max":805,"ha":843,"o":"m 805 0 l 78 0 l 78 1760 l 782 1760 l 782 1420 l 436 1420 l 436 1077 l 768 1077 l 768 746 l 436 746 l 436 343 l 805 343 l 805 0 m 621 -417 l 263 -417 l 263 -119 l 621 -119 l 621 -417"},"È":{"x_min":78,"x_max":805,"ha":843,"o":"m 805 0 l 78 0 l 78 1760 l 782 1760 l 782 1420 l 436 1420 l 436 1077 l 768 1077 l 768 746 l 436 746 l 436 343 l 805 343 l 805 0 m 681 2036 l 681 1813 l 206 1907 l 206 2254 l 681 2036"},"Ẻ":{"x_min":78,"x_max":805,"ha":843,"o":"m 805 0 l 78 0 l 78 1760 l 782 1760 l 782 1420 l 436 1420 l 436 1077 l 768 1077 l 768 746 l 436 746 l 436 343 l 805 343 l 805 0 m 406 1837 l 406 1837 l 300 1961 q 354 1981 387 2011 q 420 2041 420 2091 l 420 2091 q 420 2186 319 2186 l 319 2186 q 272 2186 229 2170 l 229 2170 l 229 2350 q 317 2383 412 2383 l 412 2383 q 537 2383 608 2321 q 678 2258 678 2145 l 678 2145 q 678 2018 600 1946 q 522 1873 406 1837"},"Ȇ":{"x_min":70,"x_max":817,"ha":843,"o":"m 805 0 l 78 0 l 78 1760 l 782 1760 l 782 1420 l 436 1420 l 436 1077 l 768 1077 l 768 746 l 436 746 l 436 343 l 805 343 l 805 0 m 309 1868 l 73 1868 q 70 1888 70 1909 l 70 1909 q 70 2072 169 2146 q 267 2220 442 2220 l 442 2220 q 622 2220 720 2145 q 817 2069 817 1902 l 817 1902 q 817 1897 817 1888 q 816 1878 815 1868 l 815 1868 l 579 1868 q 579 1936 541 1969 q 503 2002 444 2002 l 444 2002 q 386 2002 348 1969 q 309 1936 309 1868 l 309 1868"},"Ē":{"x_min":78,"x_max":805,"ha":843,"o":"m 805 0 l 78 0 l 78 1760 l 782 1760 l 782 1420 l 436 1420 l 436 1077 l 768 1077 l 768 746 l 436 746 l 436 343 l 805 343 l 805 0 m 746 1879 l 96 1879 l 96 2032 l 746 2032 l 746 1879"},"Ḗ":{"x_min":78,"x_max":805,"ha":843,"o":"m 805 0 l 78 0 l 78 1760 l 782 1760 l 782 1420 l 436 1420 l 436 1077 l 768 1077 l 768 746 l 436 746 l 436 343 l 805 343 l 805 0 m 760 1819 l 110 1819 l 110 1972 l 760 1972 l 760 1819 m 679 2094 l 204 2020 l 204 2213 l 679 2381 l 679 2094"},"Ḕ":{"x_min":78,"x_max":805,"ha":843,"o":"m 805 0 l 78 0 l 78 1760 l 782 1760 l 782 1420 l 436 1420 l 436 1077 l 768 1077 l 768 746 l 436 746 l 436 343 l 805 343 l 805 0 m 760 1819 l 110 1819 l 110 1972 l 760 1972 l 760 1819 m 679 2212 l 679 2019 l 204 2093 l 204 2380 l 679 2212"},"Ŋ":{"x_min":78,"x_max":942,"ha":1006,"o":"m 447 -488 l 447 -488 l 447 -186 q 577 -186 577 -31 l 577 -31 l 577 105 l 422 880 l 422 0 l 78 0 l 78 1760 l 440 1760 l 602 917 l 602 1760 l 942 1760 l 942 -8 q 942 -246 813 -367 q 683 -488 447 -488"},"Ę":{"x_min":78,"x_max":805,"ha":843,"o":"m 805 0 l 78 0 l 78 1760 l 782 1760 l 782 1420 l 436 1420 l 436 1077 l 768 1077 l 768 746 l 436 746 l 436 343 l 805 343 l 805 0 m 462 -631 l 462 -631 q 367 -631 288 -595 q 209 -559 162 -491 q 114 -424 114 -330 l 114 -330 q 114 -148 378 0 l 378 0 l 589 0 q 533 -58 481 -127 q 429 -196 429 -279 l 429 -279 q 429 -391 544 -391 l 544 -391 q 593 -391 660 -368 l 660 -368 l 660 -591 q 565 -631 462 -631"},"Ɛ":{"x_min":39,"x_max":961,"ha":1012,"o":"m 516 -20 l 516 -20 q 260 -20 150 123 q 39 266 39 530 l 39 530 q 39 640 50 719 q 61 798 97 854 q 133 909 208 945 l 208 945 q 114 979 79 1066 q 43 1153 43 1295 l 43 1295 q 43 1763 493 1763 l 493 1763 q 726 1763 838 1650 q 950 1537 950 1295 l 950 1295 l 950 1233 l 586 1233 l 586 1286 q 586 1349 574 1395 q 562 1440 503 1440 l 503 1440 q 405 1440 405 1291 l 405 1291 q 405 1191 459 1147 q 513 1103 598 1103 l 598 1103 l 662 1103 l 662 787 l 558 787 q 470 787 439 720 q 408 653 408 562 l 408 562 l 408 530 q 408 474 413 423 q 417 371 438 339 q 459 306 506 306 l 506 306 q 571 306 586 355 q 600 403 600 473 l 600 473 l 600 658 l 961 658 l 961 474 q 961 226 855 103 q 749 -20 516 -20"},"Ǝ":{"x_min":38,"x_max":765,"ha":843,"o":"m 765 1760 l 765 0 l 38 0 l 38 343 l 407 343 l 407 746 l 75 746 l 75 1077 l 407 1077 l 407 1420 l 61 1420 l 61 1760 l 765 1760"},"Ʃ":{"x_min":62,"x_max":795,"ha":836,"o":"m 795 0 l 62 0 l 62 268 l 369 882 l 62 1455 l 62 1760 l 779 1760 l 779 1420 l 438 1420 l 702 926 l 702 850 l 449 343 l 795 343 l 795 0"},"Ɇ":{"x_min":78,"x_max":809,"ha":843,"o":"m 149 0 l 78 0 l 78 1760 l 607 1760 l 669 2000 l 809 2000 l 747 1760 l 782 1760 l 782 1420 l 436 1420 l 436 1077 l 768 1077 l 768 746 l 436 746 l 436 343 l 805 343 l 805 0 l 289 0 l 241 -186 l 101 -186 l 149 0"},"Ð":{"x_min":3,"x_max":944,"ha":1010,"o":"m 550 0 l 78 0 l 78 804 l 3 804 l 3 1036 l 78 1036 l 78 1760 l 562 1760 q 752 1760 848 1655 q 944 1549 944 1346 l 944 1346 l 944 522 q 944 272 857 136 q 769 0 550 0 l 550 0 m 432 804 l 432 311 l 493 311 q 590 311 590 405 l 590 405 l 590 1313 q 590 1401 567 1427 q 543 1452 471 1452 l 471 1452 l 432 1452 l 432 1036 l 519 1036 l 519 804 l 432 804"},"Ẽ":{"x_min":31,"x_max":857,"ha":843,"o":"m 805 0 l 78 0 l 78 1760 l 782 1760 l 782 1420 l 436 1420 l 436 1077 l 768 1077 l 768 746 l 436 746 l 436 343 l 805 343 l 805 0 m 609 1871 l 609 1871 q 532 1871 473 1894 q 414 1917 366 1940 q 317 1962 271 1962 l 271 1962 q 245 1962 222 1947 q 199 1932 179 1894 l 179 1894 l 31 1972 q 56 2033 86 2084 q 115 2134 161 2165 q 207 2195 278 2195 l 278 2195 q 352 2195 409 2174 q 466 2153 513 2132 q 559 2111 598 2111 l 598 2111 q 625 2111 648 2128 q 671 2145 691 2186 l 691 2186 l 857 2132 q 833 2065 804 2005 q 775 1945 730 1908 q 684 1871 609 1871"},"Ḛ":{"x_min":29,"x_max":855,"ha":843,"o":"m 805 0 l 78 0 l 78 1760 l 782 1760 l 782 1420 l 436 1420 l 436 1077 l 768 1077 l 768 746 l 436 746 l 436 343 l 805 343 l 805 0 m 607 -435 l 607 -435 q 533 -435 472 -412 q 410 -389 360 -366 q 310 -344 269 -344 l 269 -344 q 243 -344 220 -359 q 197 -374 177 -412 l 177 -412 l 29 -334 q 54 -273 84 -222 q 113 -172 159 -141 q 205 -111 276 -111 l 276 -111 q 347 -111 405 -132 q 462 -153 510 -174 q 557 -195 596 -195 l 596 -195 q 623 -195 646 -178 q 669 -161 689 -120 l 689 -120 l 855 -174 q 831 -241 802 -301 q 773 -361 728 -398 q 682 -435 607 -435"},"Ʒ":{"x_min":43,"x_max":961,"ha":1012,"o":"m 486 -14 l 486 -14 q 255 -14 149 108 q 43 229 43 479 l 43 479 l 43 658 l 402 658 l 402 479 q 402 399 423 355 q 443 310 504 310 l 504 310 q 548 310 567 341 q 585 372 589 424 q 592 475 592 536 l 592 536 l 592 579 q 592 803 445 803 l 445 803 l 329 803 l 329 1058 l 566 1420 l 88 1420 l 88 1760 l 959 1760 l 959 1450 l 697 1050 q 836 998 899 867 q 961 736 961 536 l 961 536 q 961 265 848 126 q 735 -14 486 -14"},"Ǯ":{"x_min":43,"x_max":971,"ha":1012,"o":"m 486 -14 l 486 -14 q 255 -14 149 108 q 43 229 43 479 l 43 479 l 43 658 l 402 658 l 402 479 q 402 399 423 355 q 443 310 504 310 l 504 310 q 548 310 567 341 q 585 372 589 424 q 592 475 592 536 l 592 536 l 592 579 q 592 803 445 803 l 445 803 l 329 803 l 329 1058 l 566 1420 l 88 1420 l 88 1760 l 959 1760 l 959 1450 l 697 1050 q 836 998 899 867 q 961 736 961 536 l 961 536 q 961 265 848 126 q 735 -14 486 -14 m 322 1861 l 81 2194 l 440 2194 l 526 1979 l 612 2194 l 971 2194 l 730 1861 l 322 1861"},"Ƹ":{"x_min":51,"x_max":969,"ha":1012,"o":"m 526 -14 l 526 -14 q 277 -14 164 126 q 51 265 51 536 l 51 536 q 51 736 114 867 q 176 998 315 1050 l 315 1050 l 53 1450 l 53 1760 l 924 1760 l 924 1420 l 446 1420 l 683 1058 l 683 803 l 567 803 q 420 803 420 579 l 420 579 l 420 536 q 420 475 424 424 q 427 372 446 341 q 464 310 508 310 l 508 310 q 570 310 590 355 q 610 399 610 479 l 610 479 l 610 658 l 969 658 l 969 479 q 969 229 863 108 q 757 -14 526 -14"},"F":{"x_min":78,"x_max":782,"ha":817,"o":"m 432 0 l 78 0 l 78 1760 l 782 1760 l 782 1417 l 432 1417 l 432 1137 l 764 1137 l 764 798 l 432 798 l 432 0"},"Ḟ":{"x_min":78,"x_max":782,"ha":817,"o":"m 432 0 l 78 0 l 78 1760 l 782 1760 l 782 1417 l 432 1417 l 432 1137 l 764 1137 l 764 798 l 432 798 l 432 0 m 631 1852 l 273 1852 l 273 2150 l 631 2150 l 631 1852"},"Ƒ":{"x_min":-22,"x_max":782,"ha":817,"o":"m -22 -196 l -22 -196 l -22 120 q 31 120 55 151 q 78 182 78 252 l 78 252 l 78 1760 l 782 1760 l 782 1417 l 432 1417 l 432 1137 l 764 1137 l 764 798 l 432 798 l 432 252 q 432 121 376 20 q 320 -81 218 -138 q 116 -196 -22 -196"},"G":{"x_min":64,"x_max":936,"ha":993,"o":"m 441 -16 l 441 -16 q 64 -16 64 524 l 64 524 l 64 1283 q 64 1776 496 1776 l 496 1776 q 674 1776 769 1705 q 864 1633 900 1496 q 936 1359 936 1162 l 936 1162 l 592 1162 l 592 1318 q 592 1375 577 1414 q 561 1452 512 1452 l 512 1452 q 451 1452 432 1411 q 412 1370 412 1321 l 412 1321 l 412 468 q 412 397 431 353 q 449 308 503 308 l 503 308 q 559 308 578 353 q 596 397 596 470 l 596 470 l 596 721 l 502 721 l 502 1025 l 932 1025 l 932 0 l 791 0 l 731 148 q 639 -16 441 -16"},"Ǵ":{"x_min":64,"x_max":936,"ha":993,"o":"m 441 -16 l 441 -16 q 64 -16 64 524 l 64 524 l 64 1283 q 64 1776 496 1776 l 496 1776 q 674 1776 769 1705 q 864 1633 900 1496 q 936 1359 936 1162 l 936 1162 l 592 1162 l 592 1318 q 592 1375 577 1414 q 561 1452 512 1452 l 512 1452 q 451 1452 432 1411 q 412 1370 412 1321 l 412 1321 l 412 468 q 412 397 431 353 q 449 308 503 308 l 503 308 q 559 308 578 353 q 596 397 596 470 l 596 470 l 596 721 l 502 721 l 502 1025 l 932 1025 l 932 0 l 791 0 l 731 148 q 639 -16 441 -16 m 732 1907 l 257 1813 l 257 2036 l 732 2254 l 732 1907"},"Ɣ":{"x_min":23,"x_max":937,"ha":961,"o":"m 480 -196 l 480 -196 q 358 -196 273 -146 q 188 -96 144 -8 q 99 79 99 189 l 99 189 q 99 285 129 401 q 159 517 201 638 l 201 638 l 273 846 l 23 1761 l 361 1761 l 480 1182 l 599 1761 l 937 1761 l 689 855 l 770 638 q 815 518 838 402 q 861 285 861 189 l 861 189 q 861 79 817 -8 q 772 -96 687 -146 q 602 -196 480 -196 m 480 102 l 480 102 q 517 102 536 129 q 554 155 554 193 l 554 193 q 554 263 536 331 q 518 399 480 506 l 480 506 q 442 399 424 331 q 406 263 406 193 l 406 193 q 406 155 425 129 q 443 102 480 102"},"Ğ":{"x_min":64,"x_max":936,"ha":993,"o":"m 441 -16 l 441 -16 q 64 -16 64 524 l 64 524 l 64 1283 q 64 1776 496 1776 l 496 1776 q 674 1776 769 1705 q 864 1633 900 1496 q 936 1359 936 1162 l 936 1162 l 592 1162 l 592 1318 q 592 1375 577 1414 q 561 1452 512 1452 l 512 1452 q 451 1452 432 1411 q 412 1370 412 1321 l 412 1321 l 412 468 q 412 397 431 353 q 449 308 503 308 l 503 308 q 559 308 578 353 q 596 397 596 470 l 596 470 l 596 721 l 502 721 l 502 1025 l 932 1025 l 932 0 l 791 0 l 731 148 q 639 -16 441 -16 m 498 1852 l 498 1852 q 323 1852 215 1926 q 106 2000 106 2163 l 106 2163 q 106 2184 109 2205 l 109 2205 l 365 2205 q 365 2148 394 2119 q 423 2089 500 2089 l 500 2089 q 577 2089 606 2119 q 635 2148 635 2205 l 635 2205 l 891 2205 q 892 2195 893 2185 q 893 2175 893 2170 l 893 2170 q 893 2003 786 1928 q 678 1852 498 1852"},"Ǧ":{"x_min":50,"x_max":940,"ha":993,"o":"m 441 -16 l 441 -16 q 64 -16 64 524 l 64 524 l 64 1283 q 64 1776 496 1776 l 496 1776 q 674 1776 769 1705 q 864 1633 900 1496 q 936 1359 936 1162 l 936 1162 l 592 1162 l 592 1318 q 592 1375 577 1414 q 561 1452 512 1452 l 512 1452 q 451 1452 432 1411 q 412 1370 412 1321 l 412 1321 l 412 468 q 412 397 431 353 q 449 308 503 308 l 503 308 q 559 308 578 353 q 596 397 596 470 l 596 470 l 596 721 l 502 721 l 502 1025 l 932 1025 l 932 0 l 791 0 l 731 148 q 639 -16 441 -16 m 699 1851 l 291 1851 l 50 2254 l 409 2254 l 495 1969 l 581 2254 l 940 2254 l 699 1851"},"Ĝ":{"x_min":50,"x_max":940,"ha":993,"o":"m 441 -16 l 441 -16 q 64 -16 64 524 l 64 524 l 64 1283 q 64 1776 496 1776 l 496 1776 q 674 1776 769 1705 q 864 1633 900 1496 q 936 1359 936 1162 l 936 1162 l 592 1162 l 592 1318 q 592 1375 577 1414 q 561 1452 512 1452 l 512 1452 q 451 1452 432 1411 q 412 1370 412 1321 l 412 1321 l 412 468 q 412 397 431 353 q 449 308 503 308 l 503 308 q 559 308 578 353 q 596 397 596 470 l 596 470 l 596 721 l 502 721 l 502 1025 l 932 1025 l 932 0 l 791 0 l 731 148 q 639 -16 441 -16 m 409 1851 l 50 1851 l 291 2254 l 699 2254 l 940 1851 l 581 1851 l 495 2136 l 409 1851"},"Ģ":{"x_min":64,"x_max":936,"ha":993,"o":"m 441 -16 l 441 -16 q 64 -16 64 524 l 64 524 l 64 1283 q 64 1776 496 1776 l 496 1776 q 674 1776 769 1705 q 864 1633 900 1496 q 936 1359 936 1162 l 936 1162 l 592 1162 l 592 1318 q 592 1375 577 1414 q 561 1452 512 1452 l 512 1452 q 451 1452 432 1411 q 412 1370 412 1321 l 412 1321 l 412 468 q 412 397 431 353 q 449 308 503 308 l 503 308 q 559 308 578 353 q 596 397 596 470 l 596 470 l 596 721 l 502 721 l 502 1025 l 932 1025 l 932 0 l 791 0 l 731 148 q 639 -16 441 -16 m 577 -643 l 366 -643 l 432 -407 l 305 -407 l 305 -109 l 679 -109 l 679 -398 l 577 -643"},"Ġ":{"x_min":64,"x_max":936,"ha":993,"o":"m 441 -16 l 441 -16 q 64 -16 64 524 l 64 524 l 64 1283 q 64 1776 496 1776 l 496 1776 q 674 1776 769 1705 q 864 1633 900 1496 q 936 1359 936 1162 l 936 1162 l 592 1162 l 592 1318 q 592 1375 577 1414 q 561 1452 512 1452 l 512 1452 q 451 1452 432 1411 q 412 1370 412 1321 l 412 1321 l 412 468 q 412 397 431 353 q 449 308 503 308 l 503 308 q 559 308 578 353 q 596 397 596 470 l 596 470 l 596 721 l 502 721 l 502 1025 l 932 1025 l 932 0 l 791 0 l 731 148 q 639 -16 441 -16 m 674 1852 l 316 1852 l 316 2150 l 674 2150 l 674 1852"},"ẞ":{"x_min":58,"x_max":969,"ha":1019,"o":"m 408 0 l 58 0 l 58 1403 q 58 1591 171 1684 q 283 1777 491 1777 l 491 1777 q 640 1777 751 1738 q 861 1699 934 1647 l 934 1647 l 934 1404 l 805 1032 q 903 988 936 867 q 969 746 969 538 l 969 538 q 969 356 935 237 q 901 117 817 59 q 732 0 582 0 l 582 0 l 478 0 l 478 281 q 621 281 621 399 l 621 399 l 621 676 q 621 757 589 790 q 556 823 474 823 l 474 823 l 474 1043 l 617 1451 q 568 1470 514 1470 l 514 1470 q 408 1470 408 1358 l 408 1358 l 408 0"},"Ɠ":{"x_min":64,"x_max":1064,"ha":1054,"o":"m 441 -16 l 441 -16 q 64 -16 64 524 l 64 524 l 64 1283 q 64 1527 167 1652 q 270 1776 456 1776 l 456 1776 q 590 1776 676 1717 l 676 1717 q 716 1846 817 1923 q 917 2000 1064 2000 l 1064 2000 l 1064 1684 q 995 1684 962 1652 q 928 1619 928 1532 l 928 1532 l 928 1162 l 592 1162 l 592 1318 q 592 1375 577 1414 q 561 1452 512 1452 l 512 1452 q 451 1452 432 1411 q 412 1370 412 1321 l 412 1321 l 412 468 q 412 397 431 353 q 449 308 503 308 l 503 308 q 559 308 578 353 q 596 397 596 470 l 596 470 l 596 721 l 502 721 l 502 1025 l 932 1025 l 932 0 l 791 0 l 731 148 q 639 -16 441 -16"},"Ɂ":{"x_min":48,"x_max":978,"ha":1008,"o":"m 620 0 l 287 0 l 287 871 q 371 871 431 884 q 490 897 528 939 q 565 981 583 1066 q 601 1151 601 1294 l 601 1294 q 601 1359 585 1408 q 568 1457 508 1457 l 508 1457 q 465 1457 445 1430 q 425 1402 420 1360 q 414 1317 414 1271 l 414 1271 l 414 1125 l 48 1125 l 48 1379 q 48 1581 177 1679 q 305 1776 508 1776 l 508 1776 q 686 1776 789 1712 q 891 1648 935 1526 q 978 1403 978 1226 l 978 1226 q 978 1053 937 917 q 895 781 815 703 q 735 625 620 625 l 620 625 l 620 0"},"Ḡ":{"x_min":64,"x_max":936,"ha":993,"o":"m 441 -16 l 441 -16 q 64 -16 64 524 l 64 524 l 64 1283 q 64 1776 496 1776 l 496 1776 q 674 1776 769 1705 q 864 1633 900 1496 q 936 1359 936 1162 l 936 1162 l 592 1162 l 592 1318 q 592 1375 577 1414 q 561 1452 512 1452 l 512 1452 q 451 1452 432 1411 q 412 1370 412 1321 l 412 1321 l 412 468 q 412 397 431 353 q 449 308 503 308 l 503 308 q 559 308 578 353 q 596 397 596 470 l 596 470 l 596 721 l 502 721 l 502 1025 l 932 1025 l 932 0 l 791 0 l 731 148 q 639 -16 441 -16 m 820 1879 l 170 1879 l 170 2032 l 820 2032 l 820 1879"},"Ǥ":{"x_min":64,"x_max":1015,"ha":993,"o":"m 441 -16 l 441 -16 q 64 -16 64 524 l 64 524 l 64 1283 q 64 1776 496 1776 l 496 1776 q 674 1776 769 1705 q 864 1633 900 1496 q 936 1359 936 1162 l 936 1162 l 592 1162 l 592 1318 q 592 1375 577 1414 q 561 1452 512 1452 l 512 1452 q 451 1452 432 1411 q 412 1370 412 1321 l 412 1321 l 412 468 q 412 397 431 353 q 449 308 503 308 l 503 308 q 549 308 569 339 q 589 370 594 423 l 594 423 l 499 423 l 499 655 l 596 655 l 596 721 l 502 721 l 502 1025 l 932 1025 l 932 655 l 1015 655 l 1015 423 l 932 423 l 932 0 l 791 0 l 731 148 q 639 -16 441 -16"},"H":{"x_min":78,"x_max":944,"ha":1022,"o":"m 428 0 l 78 0 l 78 1760 l 428 1760 l 428 1131 l 594 1131 l 594 1760 l 944 1760 l 944 0 l 594 0 l 594 798 l 428 798 l 428 0"},"Ħ":{"x_min":-10,"x_max":1051,"ha":1041,"o":"m 446 0 l 96 0 l 96 1342 l -10 1342 l -10 1562 l 96 1562 l 96 1760 l 446 1760 l 446 1562 l 612 1562 l 612 1760 l 962 1760 l 962 1562 l 1051 1562 l 1051 1342 l 962 1342 l 962 0 l 612 0 l 612 798 l 446 798 l 446 0 m 446 1342 l 446 1131 l 612 1131 l 612 1342 l 446 1342"},"Ḫ":{"x_min":78,"x_max":944,"ha":1022,"o":"m 428 0 l 78 0 l 78 1760 l 428 1760 l 428 1131 l 594 1131 l 594 1760 l 944 1760 l 944 0 l 594 0 l 594 798 l 428 798 l 428 0 m 509 -416 l 509 -416 q 334 -416 226 -342 q 117 -268 117 -105 l 117 -105 q 117 -83 120 -64 l 120 -64 l 376 -64 q 376 -120 405 -149 q 434 -179 511 -179 l 511 -179 q 588 -179 617 -149 q 646 -120 646 -64 l 646 -64 l 902 -64 q 904 -88 904 -98 l 904 -98 q 904 -265 797 -340 q 689 -416 509 -416"},"Ȟ":{"x_min":66,"x_max":956,"ha":1022,"o":"m 428 0 l 78 0 l 78 1760 l 428 1760 l 428 1131 l 594 1131 l 594 1760 l 944 1760 l 944 0 l 594 0 l 594 798 l 428 798 l 428 0 m 715 1851 l 307 1851 l 66 2254 l 425 2254 l 511 1969 l 597 2254 l 956 2254 l 715 1851"},"Ḩ":{"x_min":38,"x_max":944,"ha":1022,"o":"m 428 0 l 78 0 l 78 1760 l 428 1760 l 428 1131 l 594 1131 l 594 1760 l 944 1760 l 944 0 l 594 0 l 594 798 l 428 798 l 428 0 m 236 -631 l 236 -631 q 133 -631 38 -591 l 38 -591 l 38 -368 q 69 -378 99 -384 q 129 -391 156 -391 l 156 -391 q 206 -391 240 -364 q 273 -338 273 -273 l 273 -273 q 273 -217 246 -145 q 218 -73 169 0 l 169 0 l 330 0 q 427 -85 481 -189 q 534 -294 534 -387 l 534 -387 q 534 -490 463 -560 q 392 -631 236 -631"},"Ĥ":{"x_min":66,"x_max":956,"ha":1022,"o":"m 428 0 l 78 0 l 78 1760 l 428 1760 l 428 1131 l 594 1131 l 594 1760 l 944 1760 l 944 0 l 594 0 l 594 798 l 428 798 l 428 0 m 425 1851 l 66 1851 l 307 2254 l 715 2254 l 956 1851 l 597 1851 l 511 2136 l 425 1851"},"Ḧ":{"x_min":78,"x_max":944,"ha":1022,"o":"m 428 0 l 78 0 l 78 1760 l 428 1760 l 428 1131 l 594 1131 l 594 1760 l 944 1760 l 944 0 l 594 0 l 594 798 l 428 798 l 428 0 m 925 1859 l 567 1859 l 567 2157 l 925 2157 l 925 1859 m 441 1859 l 83 1859 l 83 2157 l 441 2157 l 441 1859"},"Ḣ":{"x_min":78,"x_max":944,"ha":1022,"o":"m 428 0 l 78 0 l 78 1760 l 428 1760 l 428 1131 l 594 1131 l 594 1760 l 944 1760 l 944 0 l 594 0 l 594 798 l 428 798 l 428 0 m 690 1852 l 332 1852 l 332 2150 l 690 2150 l 690 1852"},"Ḥ":{"x_min":78,"x_max":944,"ha":1022,"o":"m 428 0 l 78 0 l 78 1760 l 428 1760 l 428 1131 l 594 1131 l 594 1760 l 944 1760 l 944 0 l 594 0 l 594 798 l 428 798 l 428 0 m 689 -417 l 331 -417 l 331 -119 l 689 -119 l 689 -417"},"Ꜧ":{"x_min":78,"x_max":944,"ha":1022,"o":"m 514 -196 l 514 -196 l 514 120 q 552 120 573 144 q 594 167 594 252 l 594 252 l 594 798 l 428 798 l 428 0 l 78 0 l 78 1760 l 428 1760 l 428 1131 l 594 1131 l 594 1760 l 944 1760 l 944 232 q 944 21 825 -87 q 705 -196 514 -196"},"Ɦ":{"x_min":5,"x_max":1293,"ha":1371,"o":"m 777 0 l 427 0 l 427 1464 q 368 1464 340 1428 q 312 1392 312 1312 l 312 1312 l 312 1252 l 5 1252 l 5 1312 q 5 1509 110 1635 q 215 1760 427 1760 l 427 1760 l 777 1760 l 777 1131 l 943 1131 l 943 1760 l 1293 1760 l 1293 0 l 943 0 l 943 798 l 777 798 l 777 0"},"Ɥ":{"x_min":78,"x_max":944,"ha":1022,"o":"m 944 0 l 594 0 l 594 798 l 78 798 l 78 1760 l 428 1760 l 428 1131 l 594 1131 l 594 1760 l 944 1760 l 944 0"},"I":{"x_min":62,"x_max":402,"ha":464,"o":"m 402 0 l 62 0 l 62 1760 l 402 1760 l 402 0"},"Ĳ":{"x_min":62,"x_max":1362,"ha":1419,"o":"m 402 0 l 62 0 l 62 1760 l 402 1760 l 402 0 m 932 -16 l 932 -16 q 813 -16 715 30 q 617 76 560 167 q 502 257 502 389 l 502 389 l 502 830 l 850 830 l 850 410 q 850 364 869 336 q 887 308 928 308 l 928 308 q 1007 308 1007 405 l 1007 405 l 1007 1760 l 1362 1760 l 1362 440 q 1362 300 1307 198 q 1252 95 1155 40 q 1058 -16 932 -16"},"Í":{"x_min":-6,"x_max":469,"ha":464,"o":"m 402 0 l 62 0 l 62 1760 l 402 1760 l 402 0 m 469 1907 l -6 1813 l -6 2036 l 469 2254 l 469 1907"},"Ĭ":{"x_min":-157,"x_max":630,"ha":464,"o":"m 402 0 l 62 0 l 62 1760 l 402 1760 l 402 0 m 235 1852 l 235 1852 q 60 1852 -48 1926 q -157 2000 -157 2163 l -157 2163 q -157 2184 -154 2205 l -154 2205 l 102 2205 q 102 2148 131 2119 q 160 2089 237 2089 l 237 2089 q 314 2089 343 2119 q 372 2148 372 2205 l 372 2205 l 628 2205 q 629 2195 630 2185 q 630 2175 630 2170 l 630 2170 q 630 2003 523 1928 q 415 1852 235 1852"},"Ǐ":{"x_min":-213,"x_max":677,"ha":464,"o":"m 402 0 l 62 0 l 62 1760 l 402 1760 l 402 0 m 436 1851 l 28 1851 l -213 2254 l 146 2254 l 232 1969 l 318 2254 l 677 2254 l 436 1851"},"Î":{"x_min":-213,"x_max":677,"ha":464,"o":"m 402 0 l 62 0 l 62 1760 l 402 1760 l 402 0 m 146 1851 l -213 1851 l 28 2254 l 436 2254 l 677 1851 l 318 1851 l 232 2136 l 146 1851"},"Ȉ":{"x_min":-254,"x_max":503,"ha":464,"o":"m 402 0 l 62 0 l 62 1760 l 402 1760 l 402 0 m 201 1904 l 35 1846 l -254 2275 l -20 2383 l 201 1904 m 503 1904 l 337 1846 l 89 2275 l 319 2383 l 503 1904"},"Ï":{"x_min":-196,"x_max":646,"ha":464,"o":"m 402 0 l 62 0 l 62 1760 l 402 1760 l 402 0 m 646 1859 l 288 1859 l 288 2157 l 646 2157 l 646 1859 m 162 1859 l -196 1859 l -196 2157 l 162 2157 l 162 1859"},"Ḯ":{"x_min":-189,"x_max":653,"ha":464,"o":"m 402 0 l 62 0 l 62 1760 l 402 1760 l 402 0 m 653 1859 l 295 1859 l 295 2107 l 653 2107 l 653 1859 m 169 1859 l -189 1859 l -189 2107 l 169 2107 l 169 1859 m 470 2268 l -5 2194 l -5 2387 l 470 2555 l 470 2268"},"İ":{"x_min":53,"x_max":411,"ha":464,"o":"m 402 0 l 62 0 l 62 1760 l 402 1760 l 402 0 m 411 1852 l 53 1852 l 53 2150 l 411 2150 l 411 1852"},"Ị":{"x_min":53,"x_max":411,"ha":464,"o":"m 402 0 l 62 0 l 62 1760 l 402 1760 l 402 0 m 411 -417 l 53 -417 l 53 -119 l 411 -119 l 411 -417"},"Ì":{"x_min":-6,"x_max":469,"ha":464,"o":"m 402 0 l 62 0 l 62 1760 l 402 1760 l 402 0 m 469 2036 l 469 1813 l -6 1907 l -6 2254 l 469 2036"},"Ỉ":{"x_min":26,"x_max":475,"ha":464,"o":"m 402 0 l 62 0 l 62 1760 l 402 1760 l 402 0 m 203 1837 l 203 1837 l 97 1961 q 151 1981 184 2011 q 217 2041 217 2091 l 217 2091 q 217 2186 116 2186 l 116 2186 q 69 2186 26 2170 l 26 2170 l 26 2350 q 114 2383 209 2383 l 209 2383 q 334 2383 405 2321 q 475 2258 475 2145 l 475 2145 q 475 2018 397 1946 q 319 1873 203 1837"},"Ȋ":{"x_min":-142,"x_max":605,"ha":464,"o":"m 402 0 l 62 0 l 62 1760 l 402 1760 l 402 0 m 97 1868 l -139 1868 q -142 1888 -142 1909 l -142 1909 q -142 2072 -43 2146 q 55 2220 230 2220 l 230 2220 q 410 2220 508 2145 q 605 2069 605 1902 l 605 1902 q 605 1897 605 1888 q 604 1878 603 1868 l 603 1868 l 367 1868 q 367 1936 329 1969 q 291 2002 232 2002 l 232 2002 q 174 2002 136 1969 q 97 1936 97 1868 l 97 1868"},"Ī":{"x_min":-89,"x_max":561,"ha":464,"o":"m 402 0 l 62 0 l 62 1760 l 402 1760 l 402 0 m 561 1879 l -89 1879 l -89 2032 l 561 2032 l 561 1879"},"Į":{"x_min":-73,"x_max":473,"ha":464,"o":"m 402 0 l 62 0 l 62 1760 l 402 1760 l 402 0 m 275 -631 l 275 -631 q 180 -631 101 -595 q 22 -559 -25 -491 q -73 -424 -73 -330 l -73 -330 q -73 -148 191 0 l 191 0 l 402 0 q 346 -58 294 -127 q 242 -196 242 -279 l 242 -279 q 242 -391 357 -391 l 357 -391 q 406 -391 473 -368 l 473 -368 l 473 -591 q 378 -631 275 -631"},"Ɩ":{"x_min":62,"x_max":482,"ha":464,"o":"m 482 300 l 482 -16 q 298 -16 180 93 q 62 201 62 412 l 62 412 l 62 1760 l 402 1760 l 402 432 q 402 347 424 324 q 445 300 482 300 l 482 300"},"ɪ":{"x_min":33,"x_max":583,"ha":616,"o":"m 583 0 l 33 0 l 33 273 l 134 273 l 134 1227 l 33 1227 l 33 1500 l 583 1500 l 583 1227 l 482 1227 l 482 273 l 583 273 l 583 0"},"Ɨ":{"x_min":5,"x_max":521,"ha":526,"o":"m 433 0 l 93 0 l 93 785 l 5 785 l 5 1017 l 93 1017 l 93 1760 l 433 1760 l 433 1017 l 521 1017 l 521 785 l 433 785 l 433 0"},"Ĩ":{"x_min":-181,"x_max":645,"ha":464,"o":"m 402 0 l 62 0 l 62 1760 l 402 1760 l 402 0 m 397 1873 l 397 1873 q 323 1873 262 1896 q 200 1919 150 1942 q 100 1964 59 1964 l 59 1964 q 33 1964 10 1949 q -13 1934 -33 1896 l -33 1896 l -181 1974 q -156 2035 -126 2086 q -97 2136 -51 2167 q -5 2197 66 2197 l 66 2197 q 137 2197 195 2176 q 252 2155 300 2134 q 347 2113 386 2113 l 386 2113 q 413 2113 436 2130 q 459 2147 479 2188 l 479 2188 l 645 2134 q 621 2067 592 2007 q 563 1947 518 1910 q 472 1873 397 1873"},"Ḭ":{"x_min":-181,"x_max":645,"ha":464,"o":"m 402 0 l 62 0 l 62 1760 l 402 1760 l 402 0 m 397 -435 l 397 -435 q 323 -435 262 -412 q 200 -389 150 -366 q 100 -344 59 -344 l 59 -344 q 33 -344 10 -359 q -13 -374 -33 -412 l -33 -412 l -181 -334 q -156 -273 -126 -222 q -97 -172 -51 -141 q -5 -111 66 -111 l 66 -111 q 137 -111 195 -132 q 252 -153 300 -174 q 347 -195 386 -195 l 386 -195 q 413 -195 436 -178 q 459 -161 479 -120 l 479 -120 l 645 -174 q 621 -241 592 -301 q 563 -361 518 -398 q 472 -435 397 -435"},"J":{"x_min":38,"x_max":898,"ha":955,"o":"m 468 -16 l 468 -16 q 349 -16 251 30 q 153 76 96 167 q 38 257 38 389 l 38 389 l 38 830 l 386 830 l 386 410 q 386 364 405 336 q 423 308 464 308 l 464 308 q 543 308 543 405 l 543 405 l 543 1760 l 898 1760 l 898 440 q 898 300 843 198 q 788 95 691 40 q 594 -16 468 -16"},"Ĵ":{"x_min":38,"x_max":1166,"ha":955,"o":"m 468 -16 l 468 -16 q 349 -16 251 30 q 153 76 96 167 q 38 257 38 389 l 38 389 l 38 830 l 386 830 l 386 410 q 386 364 405 336 q 423 308 464 308 l 464 308 q 543 308 543 405 l 543 405 l 543 1760 l 898 1760 l 898 440 q 898 300 843 198 q 788 95 691 40 q 594 -16 468 -16 m 635 1851 l 276 1851 l 517 2254 l 925 2254 l 1166 1851 l 807 1851 l 721 2136 l 635 1851"},"Ʝ":{"x_min":38,"x_max":985,"ha":975,"o":"m 468 -16 l 468 -16 q 349 -16 251 30 q 153 76 96 167 q 38 257 38 389 l 38 389 l 38 564 q 38 798 162 943 q 286 1088 543 1106 l 543 1106 l 543 1760 l 898 1760 l 898 1057 q 918 1050 940 1043 q 962 1035 985 1026 l 985 1026 l 985 721 q 962 730 940 738 q 918 745 898 752 l 898 752 l 898 440 q 898 300 843 198 q 788 95 691 40 q 594 -16 468 -16 m 464 308 l 464 308 q 543 308 543 405 l 543 405 l 543 798 q 458 785 422 729 q 386 673 386 564 l 386 564 l 386 410 q 386 364 405 336 q 423 308 464 308"},"Ɉ":{"x_min":38,"x_max":984,"ha":975,"o":"m 468 -16 l 468 -16 q 349 -16 251 30 q 153 76 96 167 q 38 257 38 389 l 38 389 l 38 830 l 386 830 l 386 410 q 386 364 405 336 q 423 308 464 308 l 464 308 q 543 308 543 405 l 543 405 l 543 1055 l 390 1055 l 390 1287 l 543 1287 l 543 1760 l 898 1760 l 898 1287 l 984 1287 l 984 1055 l 898 1055 l 898 440 q 898 300 843 198 q 788 95 691 40 q 594 -16 468 -16"},"K":{"x_min":78,"x_max":985,"ha":967,"o":"m 428 0 l 78 0 l 78 1760 l 426 1760 l 426 1055 l 590 1760 l 944 1760 l 747 954 l 985 0 l 620 0 l 428 852 l 428 0"},"Ḱ":{"x_min":78,"x_max":985,"ha":967,"o":"m 428 0 l 78 0 l 78 1760 l 426 1760 l 426 1055 l 590 1760 l 944 1760 l 747 954 l 985 0 l 620 0 l 428 852 l 428 0 m 749 1907 l 274 1813 l 274 2036 l 749 2254 l 749 1907"},"Ǩ":{"x_min":66,"x_max":985,"ha":967,"o":"m 428 0 l 78 0 l 78 1760 l 426 1760 l 426 1055 l 590 1760 l 944 1760 l 747 954 l 985 0 l 620 0 l 428 852 l 428 0 m 715 1851 l 307 1851 l 66 2254 l 425 2254 l 511 1969 l 597 2254 l 956 2254 l 715 1851"},"Ķ":{"x_min":78,"x_max":985,"ha":967,"o":"m 428 0 l 78 0 l 78 1760 l 426 1760 l 426 1055 l 590 1760 l 944 1760 l 747 954 l 985 0 l 620 0 l 428 852 l 428 0 m 595 -643 l 384 -643 l 450 -407 l 323 -407 l 323 -109 l 697 -109 l 697 -398 l 595 -643"},"Ḳ":{"x_min":78,"x_max":985,"ha":967,"o":"m 428 0 l 78 0 l 78 1760 l 426 1760 l 426 1055 l 590 1760 l 944 1760 l 747 954 l 985 0 l 620 0 l 428 852 l 428 0 m 702 -417 l 344 -417 l 344 -119 l 702 -119 l 702 -417"},"Ƙ":{"x_min":78,"x_max":985,"ha":967,"o":"m 428 0 l 78 0 l 78 1760 l 426 1760 l 426 1055 l 590 1760 l 944 1760 l 747 954 l 985 0 l 620 0 l 428 852 l 428 0"},"Ḵ":{"x_min":78,"x_max":985,"ha":967,"o":"m 428 0 l 78 0 l 78 1760 l 426 1760 l 426 1055 l 590 1760 l 944 1760 l 747 954 l 985 0 l 620 0 l 428 852 l 428 0 m 848 -272 l 198 -272 l 198 -119 l 848 -119 l 848 -272"},"Ꝁ":{"x_min":0,"x_max":1000,"ha":982,"o":"m 443 0 l 93 0 l 93 1479 l 0 1479 l 0 1711 l 93 1711 l 93 1760 l 441 1760 l 441 1711 l 516 1711 l 516 1479 l 441 1479 l 441 1055 l 605 1760 l 959 1760 l 762 954 l 1000 0 l 635 0 l 443 852 l 443 0"},"L":{"x_min":78,"x_max":792,"ha":814,"o":"m 792 0 l 78 0 l 78 1760 l 430 1760 l 430 300 l 792 300 l 792 0"},"Ǉ":{"x_min":78,"x_max":1712,"ha":1769,"o":"m 792 0 l 78 0 l 78 1760 l 430 1760 l 430 300 l 792 300 l 792 0 m 1282 -16 l 1282 -16 q 1163 -16 1065 30 q 967 76 910 167 q 852 257 852 389 l 852 389 l 852 830 l 1200 830 l 1200 410 q 1200 364 1219 336 q 1237 308 1278 308 l 1278 308 q 1357 308 1357 405 l 1357 405 l 1357 1760 l 1712 1760 l 1712 440 q 1712 300 1657 198 q 1602 95 1505 40 q 1408 -16 1282 -16"},"Ĺ":{"x_min":16,"x_max":792,"ha":814,"o":"m 792 0 l 78 0 l 78 1760 l 430 1760 l 430 300 l 792 300 l 792 0 m 491 1907 l 16 1813 l 16 2036 l 491 2254 l 491 1907"},"Ƚ":{"x_min":-36,"x_max":792,"ha":814,"o":"m 792 0 l 78 0 l 78 1760 l 430 1760 l 430 300 l 792 300 l 792 0 m 624 799 l -36 799 l -36 1031 l 624 1031 l 624 799"},"Ɬ":{"x_min":-10,"x_max":982,"ha":1004,"o":"m 982 0 l 268 0 l 268 725 q 149 734 70 806 q -10 877 -10 994 l -10 994 q -10 1127 63 1202 q 136 1276 268 1284 l 268 1284 l 268 1761 l 620 1761 l 620 955 l 760 955 l 760 724 l 620 724 l 620 300 l 982 300 l 982 0 m 184 1015 l 184 1015 q 184 955 268 955 l 268 955 l 268 1074 q 184 1072 184 1015"},"Ľ":{"x_min":78,"x_max":827,"ha":814,"o":"m 792 0 l 78 0 l 78 1760 l 430 1760 l 430 300 l 792 300 l 792 0 m 725 1226 l 514 1226 l 590 1462 l 515 1462 l 515 1760 l 827 1760 l 827 1471 l 725 1226"},"Ḽ":{"x_min":-12,"x_max":878,"ha":814,"o":"m 792 0 l 78 0 l 78 1760 l 430 1760 l 430 300 l 792 300 l 792 0 m 347 -512 l -12 -512 l 229 -109 l 637 -109 l 878 -512 l 519 -512 l 433 -227 l 347 -512"},"Ļ":{"x_min":78,"x_max":792,"ha":814,"o":"m 792 0 l 78 0 l 78 1760 l 430 1760 l 430 300 l 792 300 l 792 0 m 505 -643 l 294 -643 l 360 -407 l 233 -407 l 233 -109 l 607 -109 l 607 -398 l 505 -643"},"Ŀ":{"x_min":78,"x_max":880,"ha":924,"o":"m 792 0 l 78 0 l 78 1760 l 430 1760 l 430 300 l 792 300 l 792 0 m 880 756 l 552 756 l 552 1094 l 880 1094 l 880 756"},"Ḷ":{"x_min":78,"x_max":792,"ha":814,"o":"m 792 0 l 78 0 l 78 1760 l 430 1760 l 430 300 l 792 300 l 792 0 m 612 -417 l 254 -417 l 254 -119 l 612 -119 l 612 -417"},"Ḹ":{"x_min":-73,"x_max":792,"ha":814,"o":"m 792 0 l 78 0 l 78 1760 l 430 1760 l 430 300 l 792 300 l 792 0 m 612 -417 l 254 -417 l 254 -119 l 612 -119 l 612 -417 m 577 1879 l -73 1879 l -73 2032 l 577 2032 l 577 1879"},"Ⱡ":{"x_min":-36,"x_max":792,"ha":814,"o":"m 792 0 l 78 0 l 78 1760 l 430 1760 l 430 300 l 792 300 l 792 0 m 624 979 l -36 979 l -36 1211 l 624 1211 l 624 979 m 624 619 l -36 619 l -36 851 l 624 851 l 624 619"},"ǈ":{"x_min":78,"x_max":1282,"ha":1352,"o":"m 792 0 l 78 0 l 78 1760 l 430 1760 l 430 300 l 792 300 l 792 0 m 1282 1592 l 924 1592 l 924 1890 l 1282 1890 l 1282 1592 m 1000 -260 l 1000 -260 q 886 -260 848 -234 l 848 -234 l 848 6 q 866 1 881 1 l 881 1 q 910 1 917 21 q 924 41 924 72 l 924 72 l 924 1500 l 1282 1500 l 1282 82 q 1282 -78 1219 -169 q 1155 -260 1000 -260"},"Ḻ":{"x_min":78,"x_max":792,"ha":814,"o":"m 792 0 l 78 0 l 78 1760 l 430 1760 l 430 300 l 792 300 l 792 0 m 758 -272 l 108 -272 l 108 -119 l 758 -119 l 758 -272"},"Ɫ":{"x_min":-30,"x_max":921,"ha":943,"o":"m 921 0 l 207 0 l 207 1760 l 559 1760 l 559 300 l 921 300 l 921 0 m 548 776 l 548 776 q 471 776 412 799 q 353 822 305 845 q 256 867 210 867 l 210 867 q 184 867 161 852 q 138 837 118 799 l 118 799 l -30 877 q -5 938 25 989 q 54 1039 100 1070 q 146 1100 217 1100 l 217 1100 q 291 1100 348 1079 q 405 1058 452 1037 q 498 1016 537 1016 l 537 1016 q 564 1016 587 1033 q 610 1050 630 1091 l 630 1091 l 796 1037 q 772 970 743 910 q 714 850 669 813 q 623 776 548 776"},"Ł":{"x_min":-11,"x_max":792,"ha":853,"o":"m 792 0 l 78 0 l 78 718 l -11 679 l -11 1001 l 78 1040 l 78 1760 l 430 1760 l 430 1193 l 636 1283 l 636 961 l 430 871 l 430 300 l 792 300 l 792 0"},"M":{"x_min":78,"x_max":1450,"ha":1528,"o":"m 396 0 l 78 0 l 78 1760 l 614 1760 l 762 687 l 909 1760 l 1450 1760 l 1450 0 l 1128 0 l 1128 1268 l 926 0 l 610 0 l 396 1268 l 396 0"},"Ḿ":{"x_min":78,"x_max":1450,"ha":1528,"o":"m 396 0 l 78 0 l 78 1760 l 614 1760 l 762 687 l 909 1760 l 1450 1760 l 1450 0 l 1128 0 l 1128 1268 l 926 0 l 610 0 l 396 1268 l 396 0 m 1000 1907 l 525 1813 l 525 2036 l 1000 2254 l 1000 1907"},"Ṁ":{"x_min":78,"x_max":1450,"ha":1528,"o":"m 396 0 l 78 0 l 78 1760 l 614 1760 l 762 687 l 909 1760 l 1450 1760 l 1450 0 l 1128 0 l 1128 1268 l 926 0 l 610 0 l 396 1268 l 396 0 m 941 1852 l 583 1852 l 583 2150 l 941 2150 l 941 1852"},"Ṃ":{"x_min":78,"x_max":1450,"ha":1528,"o":"m 396 0 l 78 0 l 78 1760 l 614 1760 l 762 687 l 909 1760 l 1450 1760 l 1450 0 l 1128 0 l 1128 1268 l 926 0 l 610 0 l 396 1268 l 396 0 m 943 -417 l 585 -417 l 585 -119 l 943 -119 l 943 -417"},"Ɯ":{"x_min":78,"x_max":1473,"ha":1551,"o":"m 369 -16 l 369 -16 q 209 -16 144 94 q 78 203 78 410 l 78 410 l 78 1760 l 423 1760 l 423 404 q 423 256 509 256 l 509 256 q 557 256 580 308 q 602 359 602 429 l 602 429 l 602 1760 l 947 1760 l 947 404 q 947 340 966 300 q 985 260 1031 260 l 1031 260 q 1084 260 1106 316 q 1128 372 1128 448 l 1128 448 l 1128 1760 l 1473 1760 l 1473 0 l 1130 0 l 1130 177 q 1105 79 1048 32 q 991 -16 870 -16 l 870 -16 q 782 -16 716 25 q 649 66 623 136 l 623 136 q 578 57 522 21 q 466 -16 369 -16"},"N":{"x_min":78,"x_max":942,"ha":1020,"o":"m 422 0 l 78 0 l 78 1760 l 440 1760 l 602 917 l 602 1760 l 942 1760 l 942 0 l 598 0 l 422 880 l 422 0"},"Ǌ":{"x_min":78,"x_max":1918,"ha":1975,"o":"m 422 0 l 78 0 l 78 1760 l 440 1760 l 602 917 l 602 1760 l 942 1760 l 942 0 l 598 0 l 422 880 l 422 0 m 1488 -16 l 1488 -16 q 1369 -16 1271 30 q 1173 76 1116 167 q 1058 257 1058 389 l 1058 389 l 1058 830 l 1406 830 l 1406 410 q 1406 364 1425 336 q 1443 308 1484 308 l 1484 308 q 1563 308 1563 405 l 1563 405 l 1563 1760 l 1918 1760 l 1918 440 q 1918 300 1863 198 q 1808 95 1711 40 q 1614 -16 1488 -16"},"Ń":{"x_min":78,"x_max":942,"ha":1020,"o":"m 422 0 l 78 0 l 78 1760 l 440 1760 l 602 917 l 602 1760 l 942 1760 l 942 0 l 598 0 l 422 880 l 422 0 m 768 1907 l 293 1813 l 293 2036 l 768 2254 l 768 1907"},"Ň":{"x_min":78,"x_max":976,"ha":1020,"o":"m 422 0 l 78 0 l 78 1760 l 440 1760 l 602 917 l 602 1760 l 942 1760 l 942 0 l 598 0 l 422 880 l 422 0 m 735 1851 l 327 1851 l 86 2254 l 445 2254 l 531 1969 l 617 2254 l 976 2254 l 735 1851"},"Ṋ":{"x_min":58,"x_max":948,"ha":1020,"o":"m 422 0 l 78 0 l 78 1760 l 440 1760 l 602 917 l 602 1760 l 942 1760 l 942 0 l 598 0 l 422 880 l 422 0 m 417 -512 l 58 -512 l 299 -109 l 707 -109 l 948 -512 l 589 -512 l 503 -227 l 417 -512"},"Ņ":{"x_min":78,"x_max":942,"ha":1020,"o":"m 422 0 l 78 0 l 78 1760 l 440 1760 l 602 917 l 602 1760 l 942 1760 l 942 0 l 598 0 l 422 880 l 422 0 m 575 -643 l 364 -643 l 430 -407 l 303 -407 l 303 -109 l 677 -109 l 677 -398 l 575 -643"},"Ṅ":{"x_min":78,"x_max":942,"ha":1020,"o":"m 422 0 l 78 0 l 78 1760 l 440 1760 l 602 917 l 602 1760 l 942 1760 l 942 0 l 598 0 l 422 880 l 422 0 m 710 1852 l 352 1852 l 352 2150 l 710 2150 l 710 1852"},"Ṇ":{"x_min":78,"x_max":942,"ha":1020,"o":"m 422 0 l 78 0 l 78 1760 l 440 1760 l 602 917 l 602 1760 l 942 1760 l 942 0 l 598 0 l 422 880 l 422 0 m 682 -417 l 324 -417 l 324 -119 l 682 -119 l 682 -417"},"Ǹ":{"x_min":78,"x_max":942,"ha":1020,"o":"m 422 0 l 78 0 l 78 1760 l 440 1760 l 602 917 l 602 1760 l 942 1760 l 942 0 l 598 0 l 422 880 l 422 0 m 768 2036 l 768 1813 l 293 1907 l 293 2254 l 768 2036"},"Ɲ":{"x_min":-52,"x_max":942,"ha":1020,"o":"m -52 -488 l -52 -488 l -52 -186 q 78 -186 78 -31 l 78 -31 l 78 1760 l 440 1760 l 602 917 l 602 1760 l 942 1760 l 942 0 l 598 0 l 422 880 l 422 -8 q 422 -246 295 -367 q 168 -488 -52 -488"},"ǋ":{"x_min":78,"x_max":1488,"ha":1558,"o":"m 422 0 l 78 0 l 78 1760 l 440 1760 l 602 917 l 602 1760 l 942 1760 l 942 0 l 598 0 l 422 880 l 422 0 m 1488 1592 l 1130 1592 l 1130 1890 l 1488 1890 l 1488 1592 m 1206 -260 l 1206 -260 q 1092 -260 1054 -234 l 1054 -234 l 1054 6 q 1072 1 1087 1 l 1087 1 q 1116 1 1123 21 q 1130 41 1130 72 l 1130 72 l 1130 1500 l 1488 1500 l 1488 82 q 1488 -78 1425 -169 q 1361 -260 1206 -260"},"Ṉ":{"x_min":78,"x_max":942,"ha":1020,"o":"m 422 0 l 78 0 l 78 1760 l 440 1760 l 602 917 l 602 1760 l 942 1760 l 942 0 l 598 0 l 422 880 l 422 0 m 828 -272 l 178 -272 l 178 -119 l 828 -119 l 828 -272"},"Ƞ":{"x_min":78,"x_max":942,"ha":1020,"o":"m 942 -186 l 602 -186 l 602 1328 q 602 1392 583 1429 q 563 1465 518 1465 l 518 1465 q 455 1465 437 1422 q 418 1379 418 1296 l 418 1296 l 418 0 l 78 0 l 78 1760 l 416 1760 l 416 1574 q 439 1664 500 1720 q 560 1776 651 1776 l 651 1776 q 800 1776 871 1685 q 942 1594 942 1425 l 942 1425 l 942 -186"},"Ñ":{"x_min":78,"x_max":944,"ha":1020,"o":"m 422 0 l 78 0 l 78 1760 l 440 1760 l 602 917 l 602 1760 l 942 1760 l 942 0 l 598 0 l 422 880 l 422 0 m 696 1871 l 696 1871 q 622 1871 561 1894 q 499 1917 449 1940 q 399 1962 358 1962 l 358 1962 q 332 1962 309 1947 q 286 1932 266 1894 l 266 1894 l 118 1972 q 143 2033 173 2084 q 202 2134 248 2165 q 294 2195 365 2195 l 365 2195 q 436 2195 494 2174 q 551 2153 599 2132 q 646 2111 685 2111 l 685 2111 q 712 2111 735 2128 q 758 2145 778 2186 l 778 2186 l 944 2132 q 920 2065 891 2005 q 862 1945 817 1908 q 771 1871 696 1871"},"O":{"x_min":64,"x_max":932,"ha":996,"o":"m 498 -16 l 498 -16 q 287 -16 176 112 q 64 239 64 480 l 64 480 l 64 1316 q 64 1542 175 1659 q 285 1776 498 1776 l 498 1776 q 711 1776 822 1659 q 932 1542 932 1316 l 932 1316 l 932 480 q 932 239 821 112 q 709 -16 498 -16 m 501 308 l 501 308 q 581 308 581 463 l 581 463 l 581 1322 q 581 1452 503 1452 l 503 1452 q 415 1452 415 1319 l 415 1319 l 415 461 q 415 379 435 344 q 455 308 501 308"},"Œ":{"x_min":50,"x_max":1291,"ha":1330,"o":"m 1291 0 l 606 0 q 50 0 50 430 l 50 430 l 50 1356 q 50 1511 120 1599 q 189 1687 313 1724 q 436 1760 598 1760 l 598 1760 l 1268 1760 l 1268 1451 l 931 1451 l 931 1083 l 1254 1083 l 1254 784 l 931 784 l 931 311 l 1291 311 l 1291 0 m 513 311 l 513 311 l 574 311 l 574 1451 l 519 1451 q 460 1451 429 1415 q 398 1378 398 1314 l 398 1314 l 398 480 q 398 410 425 361 q 452 311 513 311"},"Ȣ":{"x_min":64,"x_max":932,"ha":996,"o":"m 498 -16 l 498 -16 q 284 -16 174 114 q 64 244 64 479 l 64 479 l 64 683 q 64 782 88 857 q 111 932 154 986 l 154 986 q 70 1101 70 1303 l 70 1303 l 70 1760 l 412 1760 l 412 1297 q 412 1213 428 1167 q 444 1121 498 1121 l 498 1121 q 552 1121 568 1167 q 584 1212 584 1297 l 584 1297 l 584 1760 l 926 1760 l 926 1303 q 926 1101 842 986 l 842 986 q 885 932 909 857 q 932 782 932 683 l 932 683 l 932 479 q 932 241 822 113 q 712 -16 498 -16 m 498 308 l 498 308 q 545 308 562 349 q 578 390 578 463 l 578 463 l 578 710 q 578 766 563 803 q 548 839 500 839 l 500 839 q 412 839 412 706 l 412 706 l 412 461 q 412 386 431 347 q 449 308 498 308"},"Ó":{"x_min":64,"x_max":932,"ha":996,"o":"m 498 -16 l 498 -16 q 287 -16 176 112 q 64 239 64 480 l 64 480 l 64 1316 q 64 1542 175 1659 q 285 1776 498 1776 l 498 1776 q 711 1776 822 1659 q 932 1542 932 1316 l 932 1316 l 932 480 q 932 239 821 112 q 709 -16 498 -16 m 501 308 l 501 308 q 581 308 581 463 l 581 463 l 581 1322 q 581 1452 503 1452 l 503 1452 q 415 1452 415 1319 l 415 1319 l 415 461 q 415 379 435 344 q 455 308 501 308 m 736 1907 l 261 1813 l 261 2036 l 736 2254 l 736 1907"},"Ŏ":{"x_min":64,"x_max":932,"ha":996,"o":"m 498 -16 l 498 -16 q 287 -16 176 112 q 64 239 64 480 l 64 480 l 64 1316 q 64 1542 175 1659 q 285 1776 498 1776 l 498 1776 q 711 1776 822 1659 q 932 1542 932 1316 l 932 1316 l 932 480 q 932 239 821 112 q 709 -16 498 -16 m 501 308 l 501 308 q 581 308 581 463 l 581 463 l 581 1322 q 581 1452 503 1452 l 503 1452 q 415 1452 415 1319 l 415 1319 l 415 461 q 415 379 435 344 q 455 308 501 308 m 502 1852 l 502 1852 q 327 1852 219 1926 q 110 2000 110 2163 l 110 2163 q 110 2184 113 2205 l 113 2205 l 369 2205 q 369 2148 398 2119 q 427 2089 504 2089 l 504 2089 q 581 2089 610 2119 q 639 2148 639 2205 l 639 2205 l 895 2205 q 896 2195 897 2185 q 897 2175 897 2170 l 897 2170 q 897 2003 790 1928 q 682 1852 502 1852"},"Ǒ":{"x_min":54,"x_max":944,"ha":996,"o":"m 498 -16 l 498 -16 q 287 -16 176 112 q 64 239 64 480 l 64 480 l 64 1316 q 64 1542 175 1659 q 285 1776 498 1776 l 498 1776 q 711 1776 822 1659 q 932 1542 932 1316 l 932 1316 l 932 480 q 932 239 821 112 q 709 -16 498 -16 m 501 308 l 501 308 q 581 308 581 463 l 581 463 l 581 1322 q 581 1452 503 1452 l 503 1452 q 415 1452 415 1319 l 415 1319 l 415 461 q 415 379 435 344 q 455 308 501 308 m 703 1851 l 295 1851 l 54 2254 l 413 2254 l 499 1969 l 585 2254 l 944 2254 l 703 1851"},"Ɵ":{"x_min":64,"x_max":932,"ha":996,"o":"m 498 -16 l 498 -16 q 287 -16 176 112 q 64 239 64 480 l 64 480 l 64 1316 q 64 1542 175 1659 q 285 1776 498 1776 l 498 1776 q 711 1776 822 1659 q 932 1542 932 1316 l 932 1316 l 932 480 q 932 239 821 112 q 709 -16 498 -16 m 501 308 l 501 308 q 581 308 581 463 l 581 463 l 581 1322 q 581 1452 503 1452 l 503 1452 q 415 1452 415 1319 l 415 1319 l 415 461 q 415 379 435 344 q 455 308 501 308 m 807 769 l 147 769 l 147 1001 l 807 1001 l 807 769"},"Ô":{"x_min":54,"x_max":944,"ha":996,"o":"m 498 -16 l 498 -16 q 287 -16 176 112 q 64 239 64 480 l 64 480 l 64 1316 q 64 1542 175 1659 q 285 1776 498 1776 l 498 1776 q 711 1776 822 1659 q 932 1542 932 1316 l 932 1316 l 932 480 q 932 239 821 112 q 709 -16 498 -16 m 501 308 l 501 308 q 581 308 581 463 l 581 463 l 581 1322 q 581 1452 503 1452 l 503 1452 q 415 1452 415 1319 l 415 1319 l 415 461 q 415 379 435 344 q 455 308 501 308 m 413 1851 l 54 1851 l 295 2254 l 703 2254 l 944 1851 l 585 1851 l 499 2136 l 413 1851"},"Ố":{"x_min":64,"x_max":1208,"ha":996,"o":"m 498 -16 l 498 -16 q 287 -16 176 112 q 64 239 64 480 l 64 480 l 64 1316 q 64 1542 175 1659 q 285 1776 498 1776 l 498 1776 q 711 1776 822 1659 q 932 1542 932 1316 l 932 1316 l 932 480 q 932 239 821 112 q 709 -16 498 -16 m 501 308 l 501 308 q 581 308 581 463 l 581 463 l 581 1322 q 581 1452 503 1452 l 503 1452 q 415 1452 415 1319 l 415 1319 l 415 461 q 415 379 435 344 q 455 308 501 308 m 1020 2000 l 787 2000 l 901 2204 l 1208 2204 l 1020 2000 m 399 1839 l 114 1839 l 351 2093 l 645 2093 l 882 1839 l 597 1839 l 498 1974 l 399 1839"},"Ộ":{"x_min":53,"x_max":943,"ha":996,"o":"m 498 -16 l 498 -16 q 287 -16 176 112 q 64 239 64 480 l 64 480 l 64 1316 q 64 1542 175 1659 q 285 1776 498 1776 l 498 1776 q 711 1776 822 1659 q 932 1542 932 1316 l 932 1316 l 932 480 q 932 239 821 112 q 709 -16 498 -16 m 501 308 l 501 308 q 581 308 581 463 l 581 463 l 581 1322 q 581 1452 503 1452 l 503 1452 q 415 1452 415 1319 l 415 1319 l 415 461 q 415 379 435 344 q 455 308 501 308 m 677 -417 l 319 -417 l 319 -119 l 677 -119 l 677 -417 m 412 1861 l 53 1861 l 294 2194 l 702 2194 l 943 1861 l 584 1861 l 498 2076 l 412 1861"},"Ồ":{"x_min":64,"x_max":1087,"ha":996,"o":"m 498 -16 l 498 -16 q 287 -16 176 112 q 64 239 64 480 l 64 480 l 64 1316 q 64 1542 175 1659 q 285 1776 498 1776 l 498 1776 q 711 1776 822 1659 q 932 1542 932 1316 l 932 1316 l 932 480 q 932 239 821 112 q 709 -16 498 -16 m 501 308 l 501 308 q 581 308 581 463 l 581 463 l 581 1322 q 581 1452 503 1452 l 503 1452 q 415 1452 415 1319 l 415 1319 l 415 461 q 415 379 435 344 q 455 308 501 308 m 1087 2000 l 854 2000 l 666 2204 l 973 2204 l 1087 2000 m 399 1839 l 114 1839 l 351 2093 l 645 2093 l 882 1839 l 597 1839 l 498 1974 l 399 1839"},"Ổ":{"x_min":64,"x_max":1037,"ha":996,"o":"m 498 -16 l 498 -16 q 287 -16 176 112 q 64 239 64 480 l 64 480 l 64 1316 q 64 1542 175 1659 q 285 1776 498 1776 l 498 1776 q 711 1776 822 1659 q 932 1542 932 1316 l 932 1316 l 932 480 q 932 239 821 112 q 709 -16 498 -16 m 501 308 l 501 308 q 581 308 581 463 l 581 463 l 581 1322 q 581 1452 503 1452 l 503 1452 q 415 1452 415 1319 l 415 1319 l 415 461 q 415 379 435 344 q 455 308 501 308 m 868 1959 l 868 1959 l 802 2036 q 836 2049 857 2068 q 877 2086 877 2117 l 877 2117 q 877 2176 814 2176 l 814 2176 q 786 2176 758 2166 l 758 2166 l 758 2278 q 815 2299 872 2299 l 872 2299 q 949 2299 993 2260 q 1037 2221 1037 2151 l 1037 2151 q 1037 2072 989 2027 q 940 1982 868 1959 m 399 1839 l 114 1839 l 351 2093 l 645 2093 l 882 1839 l 597 1839 l 498 1974 l 399 1839"},"Ỗ":{"x_min":64,"x_max":932,"ha":996,"o":"m 498 -16 l 498 -16 q 287 -16 176 112 q 64 239 64 480 l 64 480 l 64 1316 q 64 1542 175 1659 q 285 1776 498 1776 l 498 1776 q 711 1776 822 1659 q 932 1542 932 1316 l 932 1316 l 932 480 q 932 239 821 112 q 709 -16 498 -16 m 501 308 l 501 308 q 581 308 581 463 l 581 463 l 581 1322 q 581 1452 503 1452 l 503 1452 q 415 1452 415 1319 l 415 1319 l 415 461 q 415 379 435 344 q 455 308 501 308 m 618 2142 l 618 2142 q 573 2142 534 2159 q 494 2176 457 2193 q 419 2210 379 2210 l 379 2210 q 355 2210 334 2199 q 313 2188 295 2159 l 295 2159 l 184 2217 q 210 2282 246 2329 q 282 2375 357 2375 l 357 2375 q 404 2375 443 2358 q 482 2341 519 2324 q 556 2307 596 2307 l 596 2307 q 646 2307 680 2363 l 680 2363 l 805 2323 q 777 2253 740 2198 q 703 2142 618 2142 m 399 1839 l 114 1839 l 351 2093 l 645 2093 l 882 1839 l 597 1839 l 498 1974 l 399 1839"},"Ȍ":{"x_min":13,"x_max":932,"ha":996,"o":"m 498 -16 l 498 -16 q 287 -16 176 112 q 64 239 64 480 l 64 480 l 64 1316 q 64 1542 175 1659 q 285 1776 498 1776 l 498 1776 q 711 1776 822 1659 q 932 1542 932 1316 l 932 1316 l 932 480 q 932 239 821 112 q 709 -16 498 -16 m 501 308 l 501 308 q 581 308 581 463 l 581 463 l 581 1322 q 581 1452 503 1452 l 503 1452 q 415 1452 415 1319 l 415 1319 l 415 461 q 415 379 435 344 q 455 308 501 308 m 468 1904 l 302 1846 l 13 2275 l 247 2383 l 468 1904 m 770 1904 l 604 1846 l 356 2275 l 586 2383 l 770 1904"},"Ö":{"x_min":64,"x_max":932,"ha":996,"o":"m 498 -16 l 498 -16 q 287 -16 176 112 q 64 239 64 480 l 64 480 l 64 1316 q 64 1542 175 1659 q 285 1776 498 1776 l 498 1776 q 711 1776 822 1659 q 932 1542 932 1316 l 932 1316 l 932 480 q 932 239 821 112 q 709 -16 498 -16 m 501 308 l 501 308 q 581 308 581 463 l 581 463 l 581 1322 q 581 1452 503 1452 l 503 1452 q 415 1452 415 1319 l 415 1319 l 415 461 q 415 379 435 344 q 455 308 501 308 m 913 1859 l 555 1859 l 555 2157 l 913 2157 l 913 1859 m 429 1859 l 71 1859 l 71 2157 l 429 2157 l 429 1859"},"Ȫ":{"x_min":64,"x_max":932,"ha":996,"o":"m 498 -16 l 498 -16 q 287 -16 176 112 q 64 239 64 480 l 64 480 l 64 1316 q 64 1542 175 1659 q 285 1776 498 1776 l 498 1776 q 711 1776 822 1659 q 932 1542 932 1316 l 932 1316 l 932 480 q 932 239 821 112 q 709 -16 498 -16 m 501 308 l 501 308 q 581 308 581 463 l 581 463 l 581 1322 q 581 1452 503 1452 l 503 1452 q 415 1452 415 1319 l 415 1319 l 415 461 q 415 379 435 344 q 455 308 501 308 m 919 1859 l 561 1859 l 561 2107 l 919 2107 l 919 1859 m 435 1859 l 77 1859 l 77 2107 l 435 2107 l 435 1859 m 823 2216 l 173 2216 l 173 2369 l 823 2369 l 823 2216"},"Ȯ":{"x_min":64,"x_max":932,"ha":996,"o":"m 498 -16 l 498 -16 q 287 -16 176 112 q 64 239 64 480 l 64 480 l 64 1316 q 64 1542 175 1659 q 285 1776 498 1776 l 498 1776 q 711 1776 822 1659 q 932 1542 932 1316 l 932 1316 l 932 480 q 932 239 821 112 q 709 -16 498 -16 m 501 308 l 501 308 q 581 308 581 463 l 581 463 l 581 1322 q 581 1452 503 1452 l 503 1452 q 415 1452 415 1319 l 415 1319 l 415 461 q 415 379 435 344 q 455 308 501 308 m 678 1852 l 320 1852 l 320 2150 l 678 2150 l 678 1852"},"Ȱ":{"x_min":64,"x_max":932,"ha":996,"o":"m 498 -16 l 498 -16 q 287 -16 176 112 q 64 239 64 480 l 64 480 l 64 1316 q 64 1542 175 1659 q 285 1776 498 1776 l 498 1776 q 711 1776 822 1659 q 932 1542 932 1316 l 932 1316 l 932 480 q 932 239 821 112 q 709 -16 498 -16 m 501 308 l 501 308 q 581 308 581 463 l 581 463 l 581 1322 q 581 1452 503 1452 l 503 1452 q 415 1452 415 1319 l 415 1319 l 415 461 q 415 379 435 344 q 455 308 501 308 m 677 1852 l 319 1852 l 319 2110 l 677 2110 l 677 1852 m 823 2198 l 173 2198 l 173 2351 l 823 2351 l 823 2198"},"Ọ":{"x_min":64,"x_max":932,"ha":996,"o":"m 498 -16 l 498 -16 q 287 -16 176 112 q 64 239 64 480 l 64 480 l 64 1316 q 64 1542 175 1659 q 285 1776 498 1776 l 498 1776 q 711 1776 822 1659 q 932 1542 932 1316 l 932 1316 l 932 480 q 932 239 821 112 q 709 -16 498 -16 m 501 308 l 501 308 q 581 308 581 463 l 581 463 l 581 1322 q 581 1452 503 1452 l 503 1452 q 415 1452 415 1319 l 415 1319 l 415 461 q 415 379 435 344 q 455 308 501 308 m 677 -417 l 319 -417 l 319 -119 l 677 -119 l 677 -417"},"Ò":{"x_min":64,"x_max":932,"ha":996,"o":"m 498 -16 l 498 -16 q 287 -16 176 112 q 64 239 64 480 l 64 480 l 64 1316 q 64 1542 175 1659 q 285 1776 498 1776 l 498 1776 q 711 1776 822 1659 q 932 1542 932 1316 l 932 1316 l 932 480 q 932 239 821 112 q 709 -16 498 -16 m 501 308 l 501 308 q 581 308 581 463 l 581 463 l 581 1322 q 581 1452 503 1452 l 503 1452 q 415 1452 415 1319 l 415 1319 l 415 461 q 415 379 435 344 q 455 308 501 308 m 736 2036 l 736 1813 l 261 1907 l 261 2254 l 736 2036"},"Ω":{"x_min":47,"x_max":945,"ha":992,"o":"m 463 0 l 47 0 l 47 246 l 169 246 q 72 394 72 710 l 72 710 l 72 1189 q 72 1394 180 1501 q 288 1607 496 1607 l 496 1607 q 705 1607 813 1501 q 920 1394 920 1189 l 920 1189 l 920 710 q 920 394 823 246 l 823 246 l 945 246 l 945 0 l 529 0 l 529 247 q 552 266 563 289 q 574 312 578 354 q 581 396 581 471 l 581 471 l 581 1211 q 581 1264 565 1300 q 548 1335 496 1335 l 496 1335 q 444 1335 428 1300 q 411 1264 411 1211 l 411 1211 l 411 471 q 411 359 425 316 q 438 273 463 247 l 463 247 l 463 0"},"Ỏ":{"x_min":64,"x_max":932,"ha":996,"o":"m 498 -16 l 498 -16 q 287 -16 176 112 q 64 239 64 480 l 64 480 l 64 1316 q 64 1542 175 1659 q 285 1776 498 1776 l 498 1776 q 711 1776 822 1659 q 932 1542 932 1316 l 932 1316 l 932 480 q 932 239 821 112 q 709 -16 498 -16 m 501 308 l 501 308 q 581 308 581 463 l 581 463 l 581 1322 q 581 1452 503 1452 l 503 1452 q 415 1452 415 1319 l 415 1319 l 415 461 q 415 379 435 344 q 455 308 501 308 m 469 1837 l 469 1837 l 363 1961 q 417 1981 450 2011 q 483 2041 483 2091 l 483 2091 q 483 2186 382 2186 l 382 2186 q 335 2186 292 2170 l 292 2170 l 292 2350 q 380 2383 475 2383 l 475 2383 q 600 2383 671 2321 q 741 2258 741 2145 l 741 2145 q 741 2018 663 1946 q 585 1873 469 1837"},"Ơ":{"x_min":64,"x_max":969,"ha":999,"o":"m 498 -16 l 498 -16 q 282 -16 173 115 q 64 245 64 480 l 64 480 l 64 1316 q 64 1543 176 1660 q 288 1776 500 1776 l 500 1776 l 576 1776 q 691 1776 691 1901 l 691 1901 l 691 1924 l 969 1924 l 969 1909 q 969 1804 937 1735 q 904 1665 849 1626 l 849 1626 q 932 1511 932 1316 l 932 1316 l 932 480 q 932 245 823 115 q 714 -16 498 -16 m 498 308 l 498 308 q 548 308 563 354 q 578 399 578 463 l 578 463 l 578 1322 q 578 1369 565 1411 q 552 1452 500 1452 l 500 1452 q 449 1452 431 1414 q 412 1375 412 1319 l 412 1319 l 412 461 q 412 392 428 350 q 444 308 498 308"},"Ớ":{"x_min":64,"x_max":969,"ha":999,"o":"m 498 -16 l 498 -16 q 282 -16 173 115 q 64 245 64 480 l 64 480 l 64 1316 q 64 1543 176 1660 q 288 1776 500 1776 l 500 1776 l 576 1776 q 691 1776 691 1901 l 691 1901 l 691 1924 l 969 1924 l 969 1909 q 969 1804 937 1735 q 904 1665 849 1626 l 849 1626 q 932 1511 932 1316 l 932 1316 l 932 480 q 932 245 823 115 q 714 -16 498 -16 m 498 308 l 498 308 q 548 308 563 354 q 578 399 578 463 l 578 463 l 578 1322 q 578 1369 565 1411 q 552 1452 500 1452 l 500 1452 q 449 1452 431 1414 q 412 1375 412 1319 l 412 1319 l 412 461 q 412 392 428 350 q 444 308 498 308 m 738 2006 l 263 1932 l 263 2125 l 738 2293 l 738 2006"},"Ợ":{"x_min":64,"x_max":969,"ha":999,"o":"m 498 -16 l 498 -16 q 282 -16 173 115 q 64 245 64 480 l 64 480 l 64 1316 q 64 1543 176 1660 q 288 1776 500 1776 l 500 1776 l 576 1776 q 691 1776 691 1901 l 691 1901 l 691 1924 l 969 1924 l 969 1909 q 969 1804 937 1735 q 904 1665 849 1626 l 849 1626 q 932 1511 932 1316 l 932 1316 l 932 480 q 932 245 823 115 q 714 -16 498 -16 m 498 308 l 498 308 q 548 308 563 354 q 578 399 578 463 l 578 463 l 578 1322 q 578 1369 565 1411 q 552 1452 500 1452 l 500 1452 q 449 1452 431 1414 q 412 1375 412 1319 l 412 1319 l 412 461 q 412 392 428 350 q 444 308 498 308 m 677 -417 l 319 -417 l 319 -119 l 677 -119 l 677 -417"},"Ờ":{"x_min":64,"x_max":969,"ha":999,"o":"m 498 -16 l 498 -16 q 282 -16 173 115 q 64 245 64 480 l 64 480 l 64 1316 q 64 1543 176 1660 q 288 1776 500 1776 l 500 1776 l 576 1776 q 691 1776 691 1901 l 691 1901 l 691 1924 l 969 1924 l 969 1909 q 969 1804 937 1735 q 904 1665 849 1626 l 849 1626 q 932 1511 932 1316 l 932 1316 l 932 480 q 932 245 823 115 q 714 -16 498 -16 m 498 308 l 498 308 q 548 308 563 354 q 578 399 578 463 l 578 463 l 578 1322 q 578 1369 565 1411 q 552 1452 500 1452 l 500 1452 q 449 1452 431 1414 q 412 1375 412 1319 l 412 1319 l 412 461 q 412 392 428 350 q 444 308 498 308 m 737 2155 l 737 1962 l 262 2036 l 262 2323 l 737 2155"},"Ở":{"x_min":64,"x_max":969,"ha":999,"o":"m 498 -16 l 498 -16 q 282 -16 173 115 q 64 245 64 480 l 64 480 l 64 1316 q 64 1543 176 1660 q 288 1776 500 1776 l 500 1776 l 576 1776 q 691 1776 691 1901 l 691 1901 l 691 1924 l 969 1924 l 969 1909 q 969 1804 937 1735 q 904 1665 849 1626 l 849 1626 q 932 1511 932 1316 l 932 1316 l 932 480 q 932 245 823 115 q 714 -16 498 -16 m 498 308 l 498 308 q 548 308 563 354 q 578 399 578 463 l 578 463 l 578 1322 q 578 1369 565 1411 q 552 1452 500 1452 l 500 1452 q 449 1452 431 1414 q 412 1375 412 1319 l 412 1319 l 412 461 q 412 392 428 350 q 444 308 498 308 m 471 1922 l 471 1922 l 365 2046 q 419 2066 452 2096 q 485 2126 485 2176 l 485 2176 q 485 2271 384 2271 l 384 2271 q 337 2271 294 2255 l 294 2255 l 294 2435 q 382 2468 477 2468 l 477 2468 q 602 2468 673 2406 q 743 2343 743 2230 l 743 2230 q 743 2103 665 2031 q 587 1958 471 1922"},"Ỡ":{"x_min":64,"x_max":969,"ha":999,"o":"m 498 -16 l 498 -16 q 282 -16 173 115 q 64 245 64 480 l 64 480 l 64 1316 q 64 1543 176 1660 q 288 1776 500 1776 l 500 1776 l 576 1776 q 691 1776 691 1901 l 691 1901 l 691 1924 l 969 1924 l 969 1909 q 969 1804 937 1735 q 904 1665 849 1626 l 849 1626 q 932 1511 932 1316 l 932 1316 l 932 480 q 932 245 823 115 q 714 -16 498 -16 m 498 308 l 498 308 q 548 308 563 354 q 578 399 578 463 l 578 463 l 578 1322 q 578 1369 565 1411 q 552 1452 500 1452 l 500 1452 q 449 1452 431 1414 q 412 1375 412 1319 l 412 1319 l 412 461 q 412 392 428 350 q 444 308 498 308 m 665 2006 l 665 2006 q 591 2006 530 2029 q 468 2052 418 2075 q 368 2097 327 2097 l 327 2097 q 301 2097 278 2082 q 255 2067 235 2029 l 235 2029 l 87 2107 q 112 2162 142 2208 q 171 2254 217 2282 q 263 2310 334 2310 l 334 2310 q 405 2310 464 2289 q 522 2268 569 2247 q 616 2226 654 2226 l 654 2226 q 681 2226 704 2243 q 727 2260 747 2301 l 747 2301 l 913 2247 q 889 2185 860 2130 q 831 2074 786 2040 q 740 2006 665 2006"},"Ő":{"x_min":64,"x_max":970,"ha":996,"o":"m 498 -16 l 498 -16 q 287 -16 176 112 q 64 239 64 480 l 64 480 l 64 1316 q 64 1542 175 1659 q 285 1776 498 1776 l 498 1776 q 711 1776 822 1659 q 932 1542 932 1316 l 932 1316 l 932 480 q 932 239 821 112 q 709 -16 498 -16 m 501 308 l 501 308 q 581 308 581 463 l 581 463 l 581 1322 q 581 1452 503 1452 l 503 1452 q 415 1452 415 1319 l 415 1319 l 415 461 q 415 379 435 344 q 455 308 501 308 m 970 2295 l 681 1866 l 515 1924 l 736 2403 l 970 2295 m 627 2295 l 379 1866 l 213 1924 l 397 2403 l 627 2295"},"Ȏ":{"x_min":64,"x_max":932,"ha":996,"o":"m 498 -16 l 498 -16 q 287 -16 176 112 q 64 239 64 480 l 64 480 l 64 1316 q 64 1542 175 1659 q 285 1776 498 1776 l 498 1776 q 711 1776 822 1659 q 932 1542 932 1316 l 932 1316 l 932 480 q 932 239 821 112 q 709 -16 498 -16 m 501 308 l 501 308 q 581 308 581 463 l 581 463 l 581 1322 q 581 1452 503 1452 l 503 1452 q 415 1452 415 1319 l 415 1319 l 415 461 q 415 379 435 344 q 455 308 501 308 m 364 1868 l 128 1868 q 125 1888 125 1909 l 125 1909 q 125 2072 224 2146 q 322 2220 497 2220 l 497 2220 q 677 2220 775 2145 q 872 2069 872 1902 l 872 1902 q 872 1897 872 1888 q 871 1878 870 1868 l 870 1868 l 634 1868 q 634 1936 596 1969 q 558 2002 499 2002 l 499 2002 q 441 2002 403 1969 q 364 1936 364 1868 l 364 1868"},"Ō":{"x_min":64,"x_max":932,"ha":996,"o":"m 498 -16 l 498 -16 q 287 -16 176 112 q 64 239 64 480 l 64 480 l 64 1316 q 64 1542 175 1659 q 285 1776 498 1776 l 498 1776 q 711 1776 822 1659 q 932 1542 932 1316 l 932 1316 l 932 480 q 932 239 821 112 q 709 -16 498 -16 m 501 308 l 501 308 q 581 308 581 463 l 581 463 l 581 1322 q 581 1452 503 1452 l 503 1452 q 415 1452 415 1319 l 415 1319 l 415 461 q 415 379 435 344 q 455 308 501 308 m 823 1879 l 173 1879 l 173 2032 l 823 2032 l 823 1879"},"Ṓ":{"x_min":64,"x_max":932,"ha":996,"o":"m 498 -16 l 498 -16 q 287 -16 176 112 q 64 239 64 480 l 64 480 l 64 1316 q 64 1542 175 1659 q 285 1776 498 1776 l 498 1776 q 711 1776 822 1659 q 932 1542 932 1316 l 932 1316 l 932 480 q 932 239 821 112 q 709 -16 498 -16 m 501 308 l 501 308 q 581 308 581 463 l 581 463 l 581 1322 q 581 1452 503 1452 l 503 1452 q 415 1452 415 1319 l 415 1319 l 415 461 q 415 379 435 344 q 455 308 501 308 m 823 1819 l 173 1819 l 173 1972 l 823 1972 l 823 1819 m 736 2091 l 261 2017 l 261 2210 l 736 2378 l 736 2091"},"Ṑ":{"x_min":64,"x_max":932,"ha":996,"o":"m 498 -16 l 498 -16 q 287 -16 176 112 q 64 239 64 480 l 64 480 l 64 1316 q 64 1542 175 1659 q 285 1776 498 1776 l 498 1776 q 711 1776 822 1659 q 932 1542 932 1316 l 932 1316 l 932 480 q 932 239 821 112 q 709 -16 498 -16 m 501 308 l 501 308 q 581 308 581 463 l 581 463 l 581 1322 q 581 1452 503 1452 l 503 1452 q 415 1452 415 1319 l 415 1319 l 415 461 q 415 379 435 344 q 455 308 501 308 m 823 1819 l 173 1819 l 173 1972 l 823 1972 l 823 1819 m 736 2210 l 736 2017 l 261 2091 l 261 2378 l 736 2210"},"Ω":{"x_min":47,"x_max":945,"ha":992,"o":"m 463 0 l 47 0 l 47 246 l 169 246 q 72 394 72 710 l 72 710 l 72 1352 q 72 1557 180 1664 q 288 1770 496 1770 l 496 1770 q 705 1770 813 1664 q 920 1557 920 1352 l 920 1352 l 920 710 q 920 394 823 246 l 823 246 l 945 246 l 945 0 l 529 0 l 529 247 q 562 273 572 346 q 581 419 581 531 l 581 531 l 581 1374 q 581 1427 565 1463 q 548 1498 496 1498 l 496 1498 q 444 1498 428 1463 q 411 1427 411 1374 l 411 1374 l 411 531 q 411 419 421 346 q 430 273 463 247 l 463 247 l 463 0"},"Ꞷ":{"x_min":64,"x_max":1453,"ha":1517,"o":"m 452 -16 l 452 -16 q 253 -16 159 111 q 64 237 64 474 l 64 474 l 64 1317 q 64 1451 112 1555 q 159 1658 256 1717 q 352 1776 497 1776 l 497 1776 l 497 1473 q 454 1473 434 1451 q 413 1429 413 1378 l 413 1378 l 413 462 q 413 386 432 347 q 450 308 499 308 l 499 308 q 547 308 564 349 q 581 389 581 462 l 581 462 l 581 1179 l 936 1179 l 936 462 q 936 386 954 347 q 971 308 1020 308 l 1020 308 q 1066 308 1085 349 q 1104 389 1104 462 l 1104 462 l 1104 1378 q 1104 1429 1084 1451 q 1063 1473 1020 1473 l 1020 1473 l 1020 1776 q 1166 1776 1262 1717 q 1358 1658 1406 1555 q 1453 1451 1453 1317 l 1453 1317 l 1453 474 q 1453 234 1359 109 q 1264 -16 1067 -16 l 1067 -16 q 976 -16 896 19 q 816 54 760 146 l 760 146 q 703 54 625 19 q 546 -16 452 -16"},"Ǫ":{"x_min":64,"x_max":932,"ha":996,"o":"m 498 -16 l 498 -16 q 287 -16 176 112 q 64 239 64 480 l 64 480 l 64 1316 q 64 1542 175 1659 q 285 1776 498 1776 l 498 1776 q 711 1776 822 1659 q 932 1542 932 1316 l 932 1316 l 932 480 q 932 239 821 112 q 709 -16 498 -16 m 501 308 l 501 308 q 581 308 581 463 l 581 463 l 581 1322 q 581 1452 503 1452 l 503 1452 q 415 1452 415 1319 l 415 1319 l 415 461 q 415 379 435 344 q 455 308 501 308 m 662 -551 l 662 -551 q 567 -551 488 -515 q 409 -479 362 -411 q 314 -344 314 -250 l 314 -250 q 314 -68 578 80 l 578 80 l 789 80 q 733 22 681 -47 q 629 -116 629 -199 l 629 -199 q 629 -311 744 -311 l 744 -311 q 793 -311 860 -288 l 860 -288 l 860 -511 q 765 -551 662 -551"},"Ǭ":{"x_min":64,"x_max":932,"ha":996,"o":"m 498 -16 l 498 -16 q 287 -16 176 112 q 64 239 64 480 l 64 480 l 64 1316 q 64 1542 175 1659 q 285 1776 498 1776 l 498 1776 q 711 1776 822 1659 q 932 1542 932 1316 l 932 1316 l 932 480 q 932 239 821 112 q 709 -16 498 -16 m 501 308 l 501 308 q 581 308 581 463 l 581 463 l 581 1322 q 581 1452 503 1452 l 503 1452 q 415 1452 415 1319 l 415 1319 l 415 461 q 415 379 435 344 q 455 308 501 308 m 662 -551 l 662 -551 q 567 -551 488 -515 q 409 -479 362 -411 q 314 -344 314 -250 l 314 -250 q 314 -68 578 80 l 578 80 l 789 80 q 721 15 675 -50 q 629 -116 629 -199 l 629 -199 q 629 -311 744 -311 l 744 -311 q 793 -311 860 -288 l 860 -288 l 860 -511 q 765 -551 662 -551 m 823 1819 l 173 1819 l 173 1972 l 823 1972 l 823 1819"},"Ɔ":{"x_min":39,"x_max":907,"ha":971,"o":"m 483 -16 l 483 -16 q 273 -16 156 89 q 39 193 39 425 l 39 425 l 39 758 l 393 758 l 393 441 q 393 382 412 345 q 430 308 475 308 l 475 308 q 516 308 537 338 q 558 368 558 441 l 558 441 l 558 1322 q 558 1381 541 1417 q 524 1452 475 1452 l 475 1452 q 433 1452 413 1425 q 393 1397 393 1318 l 393 1318 l 393 1058 l 43 1058 l 43 1362 q 43 1501 99 1593 q 155 1684 253 1730 q 350 1776 475 1776 l 475 1776 q 704 1776 806 1640 q 907 1504 907 1248 l 907 1248 l 907 436 q 907 222 791 103 q 674 -16 483 -16"},"Ø":{"x_min":64,"x_max":932,"ha":996,"o":"m 251 -186 l 111 -186 l 185 101 q 64 229 64 480 l 64 480 l 64 1316 q 64 1543 176 1660 q 287 1776 498 1776 l 498 1776 q 585 1776 656 1756 l 656 1756 l 719 2000 l 859 2000 l 781 1695 q 932 1581 932 1316 l 932 1316 l 932 480 q 932 245 823 115 q 714 -16 498 -16 l 498 -16 q 388 -16 304 19 l 304 19 l 251 -186 m 501 308 l 501 308 q 551 308 566 354 q 581 399 581 463 l 581 463 l 581 1322 q 581 1369 568 1411 q 555 1452 503 1452 l 503 1452 q 452 1452 434 1414 q 415 1375 415 1319 l 415 1319 l 415 461 q 415 392 431 350 q 447 308 501 308"},"Ǿ":{"x_min":64,"x_max":932,"ha":996,"o":"m 251 -186 l 111 -186 l 185 101 q 64 229 64 480 l 64 480 l 64 1316 q 64 1543 176 1660 q 287 1776 498 1776 l 498 1776 q 585 1776 656 1756 l 656 1756 l 719 2000 l 859 2000 l 781 1695 q 932 1581 932 1316 l 932 1316 l 932 480 q 932 245 823 115 q 714 -16 498 -16 l 498 -16 q 388 -16 304 19 l 304 19 l 251 -186 m 501 308 l 501 308 q 551 308 566 354 q 581 399 581 463 l 581 463 l 581 1322 q 581 1369 568 1411 q 555 1452 503 1452 l 503 1452 q 452 1452 434 1414 q 415 1375 415 1319 l 415 1319 l 415 461 q 415 392 431 350 q 447 308 501 308 m 732 2044 l 257 1950 l 257 2173 l 732 2391 l 732 2044"},"Õ":{"x_min":64,"x_max":932,"ha":996,"o":"m 498 -16 l 498 -16 q 287 -16 176 112 q 64 239 64 480 l 64 480 l 64 1316 q 64 1542 175 1659 q 285 1776 498 1776 l 498 1776 q 711 1776 822 1659 q 932 1542 932 1316 l 932 1316 l 932 480 q 932 239 821 112 q 709 -16 498 -16 m 501 308 l 501 308 q 581 308 581 463 l 581 463 l 581 1322 q 581 1452 503 1452 l 503 1452 q 415 1452 415 1319 l 415 1319 l 415 461 q 415 379 435 344 q 455 308 501 308 m 664 1871 l 664 1871 q 590 1871 529 1894 q 467 1917 417 1940 q 367 1962 326 1962 l 326 1962 q 300 1962 277 1947 q 254 1932 234 1894 l 234 1894 l 86 1972 q 111 2033 141 2084 q 170 2134 216 2165 q 262 2195 333 2195 l 333 2195 q 404 2195 462 2174 q 519 2153 567 2132 q 614 2111 653 2111 l 653 2111 q 680 2111 703 2128 q 726 2145 746 2186 l 746 2186 l 912 2132 q 888 2065 859 2005 q 830 1945 785 1908 q 739 1871 664 1871"},"Ṍ":{"x_min":64,"x_max":932,"ha":996,"o":"m 498 -16 l 498 -16 q 287 -16 176 112 q 64 239 64 480 l 64 480 l 64 1316 q 64 1542 175 1659 q 285 1776 498 1776 l 498 1776 q 711 1776 822 1659 q 932 1542 932 1316 l 932 1316 l 932 480 q 932 239 821 112 q 709 -16 498 -16 m 501 308 l 501 308 q 581 308 581 463 l 581 463 l 581 1322 q 581 1452 503 1452 l 503 1452 q 415 1452 415 1319 l 415 1319 l 415 461 q 415 379 435 344 q 455 308 501 308 m 663 1841 l 663 1841 q 589 1841 528 1864 q 466 1887 416 1910 q 366 1932 325 1932 l 325 1932 q 299 1932 276 1917 q 253 1902 233 1864 l 233 1864 l 85 1942 q 110 1997 140 2043 q 169 2089 215 2117 q 261 2145 332 2145 l 332 2145 q 403 2145 462 2124 q 520 2103 567 2082 q 614 2061 652 2061 l 652 2061 q 679 2061 702 2078 q 725 2095 745 2136 l 745 2136 l 911 2082 q 887 2020 858 1965 q 829 1909 784 1875 q 738 1841 663 1841 m 736 2278 l 261 2204 l 261 2397 l 736 2565 l 736 2278"},"Ṏ":{"x_min":64,"x_max":932,"ha":996,"o":"m 498 -16 l 498 -16 q 287 -16 176 112 q 64 239 64 480 l 64 480 l 64 1316 q 64 1542 175 1659 q 285 1776 498 1776 l 498 1776 q 711 1776 822 1659 q 932 1542 932 1316 l 932 1316 l 932 480 q 932 239 821 112 q 709 -16 498 -16 m 501 308 l 501 308 q 581 308 581 463 l 581 463 l 581 1322 q 581 1452 503 1452 l 503 1452 q 415 1452 415 1319 l 415 1319 l 415 461 q 415 379 435 344 q 455 308 501 308 m 663 1841 l 663 1841 q 589 1841 528 1864 q 466 1887 416 1910 q 366 1932 325 1932 l 325 1932 q 299 1932 276 1917 q 253 1902 233 1864 l 233 1864 l 85 1942 q 110 1997 140 2043 q 169 2089 215 2117 q 261 2145 332 2145 l 332 2145 q 403 2145 462 2124 q 520 2103 567 2082 q 614 2061 652 2061 l 652 2061 q 679 2061 702 2078 q 725 2095 745 2136 l 745 2136 l 911 2082 q 887 2020 858 1965 q 829 1909 784 1875 q 738 1841 663 1841 m 919 2266 l 561 2266 l 561 2514 l 919 2514 l 919 2266 m 435 2266 l 77 2266 l 77 2514 l 435 2514 l 435 2266"},"Ȭ":{"x_min":64,"x_max":932,"ha":996,"o":"m 498 -16 l 498 -16 q 287 -16 176 112 q 64 239 64 480 l 64 480 l 64 1316 q 64 1542 175 1659 q 285 1776 498 1776 l 498 1776 q 711 1776 822 1659 q 932 1542 932 1316 l 932 1316 l 932 480 q 932 239 821 112 q 709 -16 498 -16 m 501 308 l 501 308 q 581 308 581 463 l 581 463 l 581 1322 q 581 1452 503 1452 l 503 1452 q 415 1452 415 1319 l 415 1319 l 415 461 q 415 379 435 344 q 455 308 501 308 m 663 1841 l 663 1841 q 589 1841 528 1864 q 466 1887 416 1910 q 366 1932 325 1932 l 325 1932 q 299 1932 276 1917 q 253 1902 233 1864 l 233 1864 l 85 1942 q 110 1997 140 2043 q 169 2089 215 2117 q 261 2145 332 2145 l 332 2145 q 403 2145 462 2124 q 520 2103 567 2082 q 614 2061 652 2061 l 652 2061 q 679 2061 702 2078 q 725 2095 745 2136 l 745 2136 l 911 2082 q 887 2020 858 1965 q 829 1909 784 1875 q 738 1841 663 1841 m 823 2226 l 173 2226 l 173 2379 l 823 2379 l 823 2226"},"P":{"x_min":78,"x_max":934,"ha":967,"o":"m 424 0 l 78 0 l 78 1760 l 543 1760 q 689 1760 775 1695 q 860 1630 897 1510 q 934 1390 934 1224 l 934 1224 q 934 1064 903 946 q 872 827 793 762 q 713 697 567 697 l 567 697 l 424 697 l 424 0 m 424 1439 l 424 1013 l 444 1013 q 542 1013 564 1068 q 586 1123 586 1230 l 586 1230 q 586 1330 565 1385 q 543 1439 463 1439 l 463 1439 l 424 1439"},"Ṕ":{"x_min":78,"x_max":934,"ha":967,"o":"m 424 0 l 78 0 l 78 1760 l 543 1760 q 689 1760 775 1695 q 860 1630 897 1510 q 934 1390 934 1224 l 934 1224 q 934 1064 903 946 q 872 827 793 762 q 713 697 567 697 l 567 697 l 424 697 l 424 0 m 424 1439 l 424 1013 l 444 1013 q 542 1013 564 1068 q 586 1123 586 1230 l 586 1230 q 586 1330 565 1385 q 543 1439 463 1439 l 463 1439 l 424 1439 m 721 1907 l 246 1813 l 246 2036 l 721 2254 l 721 1907"},"Ṗ":{"x_min":78,"x_max":934,"ha":967,"o":"m 424 0 l 78 0 l 78 1760 l 543 1760 q 689 1760 775 1695 q 860 1630 897 1510 q 934 1390 934 1224 l 934 1224 q 934 1064 903 946 q 872 827 793 762 q 713 697 567 697 l 567 697 l 424 697 l 424 0 m 424 1439 l 424 1013 l 444 1013 q 542 1013 564 1068 q 586 1123 586 1230 l 586 1230 q 586 1330 565 1385 q 543 1439 463 1439 l 463 1439 l 424 1439 m 662 1852 l 304 1852 l 304 2150 l 662 2150 l 662 1852"},"Ƥ":{"x_min":5,"x_max":1283,"ha":1316,"o":"m 773 0 l 427 0 l 427 1464 q 368 1464 340 1428 q 312 1392 312 1312 l 312 1312 l 312 1252 l 5 1252 l 5 1312 q 5 1509 110 1635 q 215 1760 427 1760 l 427 1760 l 892 1760 q 1038 1760 1124 1695 q 1209 1630 1246 1510 q 1283 1390 1283 1224 l 1283 1224 q 1283 1064 1252 946 q 1221 827 1142 762 q 1062 697 916 697 l 916 697 l 773 697 l 773 0 m 773 1439 l 773 1013 l 793 1013 q 891 1013 913 1068 q 935 1123 935 1230 l 935 1230 q 935 1330 914 1385 q 892 1439 812 1439 l 812 1439 l 773 1439"},"Ᵽ":{"x_min":0,"x_max":934,"ha":967,"o":"m 424 0 l 78 0 l 78 1115 l 0 1115 l 0 1347 l 78 1347 l 78 1760 l 543 1760 q 689 1760 775 1695 q 860 1630 897 1510 q 934 1390 934 1224 l 934 1224 q 934 1064 903 946 q 872 827 793 762 q 713 697 567 697 l 567 697 l 424 697 l 424 0 m 424 1115 l 424 1013 l 444 1013 q 542 1013 564 1068 q 586 1123 586 1230 l 586 1230 q 586 1330 565 1385 q 543 1439 463 1439 l 463 1439 l 424 1439 l 424 1347 l 516 1347 l 516 1115 l 424 1115"},"Q":{"x_min":54,"x_max":975,"ha":1011,"o":"m 975 23 l 856 -187 l 576 -3 q 528 -16 477 -16 l 477 -16 q 271 -16 163 106 q 54 228 54 462 l 54 462 l 54 1313 q 54 1540 166 1658 q 277 1776 488 1776 l 488 1776 q 699 1776 811 1658 q 922 1540 922 1313 l 922 1313 l 922 462 q 922 244 824 119 l 824 119 l 975 23 m 488 308 l 488 308 q 526 308 543 336 q 559 364 564 405 q 568 446 568 484 l 568 484 l 568 1307 q 568 1363 553 1408 q 537 1452 486 1452 l 486 1452 q 434 1452 418 1409 q 402 1365 402 1308 l 402 1308 l 402 477 q 402 442 407 403 q 411 363 429 336 q 447 308 488 308"},"Ɋ":{"x_min":64,"x_max":1059,"ha":1049,"o":"m 1059 120 l 1059 -196 q 932 -196 833 -164 q 734 -132 678 -60 q 621 11 621 130 l 621 130 l 621 133 q 582 51 515 18 q 447 -16 363 -16 l 363 -16 q 234 -16 170 46 q 106 107 85 216 q 64 325 64 467 l 64 467 l 64 1294 q 64 1436 85 1545 q 106 1653 170 1715 q 234 1776 363 1776 l 363 1776 q 449 1776 500 1733 q 551 1690 581 1604 l 581 1604 l 581 1760 l 931 1760 l 931 253 q 931 182 962 151 q 992 120 1059 120 l 1059 120 m 499 278 l 499 278 q 546 278 564 322 q 581 366 581 431 l 581 431 l 581 1330 q 581 1395 564 1439 q 546 1482 499 1482 l 499 1482 q 448 1482 431 1442 q 414 1401 414 1330 l 414 1330 l 414 431 q 414 360 431 319 q 448 278 499 278"},"R":{"x_min":78,"x_max":938,"ha":976,"o":"m 434 0 l 78 0 l 78 1760 l 618 1760 q 753 1760 822 1699 q 891 1637 915 1527 q 938 1416 938 1267 l 938 1267 q 938 1123 902 1037 q 865 951 764 918 l 764 918 q 847 901 881 836 q 914 770 914 666 l 914 666 l 914 0 l 567 0 l 567 689 q 567 766 536 785 q 504 803 434 803 l 434 803 l 434 0 m 436 1434 l 436 1108 l 521 1108 q 594 1108 594 1267 l 594 1267 q 594 1370 578 1402 q 562 1434 518 1434 l 518 1434 l 436 1434"},"Ŕ":{"x_min":78,"x_max":938,"ha":976,"o":"m 434 0 l 78 0 l 78 1760 l 618 1760 q 753 1760 822 1699 q 891 1637 915 1527 q 938 1416 938 1267 l 938 1267 q 938 1123 902 1037 q 865 951 764 918 l 764 918 q 847 901 881 836 q 914 770 914 666 l 914 666 l 914 0 l 567 0 l 567 689 q 567 766 536 785 q 504 803 434 803 l 434 803 l 434 0 m 436 1434 l 436 1108 l 521 1108 q 594 1108 594 1267 l 594 1267 q 594 1370 578 1402 q 562 1434 518 1434 l 518 1434 l 436 1434 m 716 1907 l 241 1813 l 241 2036 l 716 2254 l 716 1907"},"Ř":{"x_min":34,"x_max":938,"ha":976,"o":"m 434 0 l 78 0 l 78 1760 l 618 1760 q 753 1760 822 1699 q 891 1637 915 1527 q 938 1416 938 1267 l 938 1267 q 938 1123 902 1037 q 865 951 764 918 l 764 918 q 847 901 881 836 q 914 770 914 666 l 914 666 l 914 0 l 567 0 l 567 689 q 567 766 536 785 q 504 803 434 803 l 434 803 l 434 0 m 436 1434 l 436 1108 l 521 1108 q 594 1108 594 1267 l 594 1267 q 594 1370 578 1402 q 562 1434 518 1434 l 518 1434 l 436 1434 m 683 1851 l 275 1851 l 34 2254 l 393 2254 l 479 1969 l 565 2254 l 924 2254 l 683 1851"},"Ŗ":{"x_min":78,"x_max":938,"ha":976,"o":"m 434 0 l 78 0 l 78 1760 l 618 1760 q 753 1760 822 1699 q 891 1637 915 1527 q 938 1416 938 1267 l 938 1267 q 938 1123 902 1037 q 865 951 764 918 l 764 918 q 847 901 881 836 q 914 770 914 666 l 914 666 l 914 0 l 567 0 l 567 689 q 567 766 536 785 q 504 803 434 803 l 434 803 l 434 0 m 436 1434 l 436 1108 l 521 1108 q 594 1108 594 1267 l 594 1267 q 594 1370 578 1402 q 562 1434 518 1434 l 518 1434 l 436 1434 m 587 -643 l 376 -643 l 442 -407 l 315 -407 l 315 -109 l 689 -109 l 689 -398 l 587 -643"},"Ȑ":{"x_min":-7,"x_max":938,"ha":976,"o":"m 434 0 l 78 0 l 78 1760 l 618 1760 q 753 1760 822 1699 q 891 1637 915 1527 q 938 1416 938 1267 l 938 1267 q 938 1123 902 1037 q 865 951 764 918 l 764 918 q 847 901 881 836 q 914 770 914 666 l 914 666 l 914 0 l 567 0 l 567 689 q 567 766 536 785 q 504 803 434 803 l 434 803 l 434 0 m 436 1434 l 436 1108 l 521 1108 q 594 1108 594 1267 l 594 1267 q 594 1370 578 1402 q 562 1434 518 1434 l 518 1434 l 436 1434 m 448 1904 l 282 1846 l -7 2275 l 227 2383 l 448 1904 m 750 1904 l 584 1846 l 336 2275 l 566 2383 l 750 1904"},"Ṙ":{"x_min":78,"x_max":938,"ha":976,"o":"m 434 0 l 78 0 l 78 1760 l 618 1760 q 753 1760 822 1699 q 891 1637 915 1527 q 938 1416 938 1267 l 938 1267 q 938 1123 902 1037 q 865 951 764 918 l 764 918 q 847 901 881 836 q 914 770 914 666 l 914 666 l 914 0 l 567 0 l 567 689 q 567 766 536 785 q 504 803 434 803 l 434 803 l 434 0 m 436 1434 l 436 1108 l 521 1108 q 594 1108 594 1267 l 594 1267 q 594 1370 578 1402 q 562 1434 518 1434 l 518 1434 l 436 1434 m 658 1852 l 300 1852 l 300 2150 l 658 2150 l 658 1852"},"Ṛ":{"x_min":78,"x_max":938,"ha":976,"o":"m 434 0 l 78 0 l 78 1760 l 618 1760 q 753 1760 822 1699 q 891 1637 915 1527 q 938 1416 938 1267 l 938 1267 q 938 1123 902 1037 q 865 951 764 918 l 764 918 q 847 901 881 836 q 914 770 914 666 l 914 666 l 914 0 l 567 0 l 567 689 q 567 766 536 785 q 504 803 434 803 l 434 803 l 434 0 m 436 1434 l 436 1108 l 521 1108 q 594 1108 594 1267 l 594 1267 q 594 1370 578 1402 q 562 1434 518 1434 l 518 1434 l 436 1434 m 694 -417 l 336 -417 l 336 -119 l 694 -119 l 694 -417"},"Ṝ":{"x_min":78,"x_max":938,"ha":976,"o":"m 434 0 l 78 0 l 78 1760 l 618 1760 q 753 1760 822 1699 q 891 1637 915 1527 q 938 1416 938 1267 l 938 1267 q 938 1123 902 1037 q 865 951 764 918 l 764 918 q 847 901 881 836 q 914 770 914 666 l 914 666 l 914 0 l 567 0 l 567 689 q 567 766 536 785 q 504 803 434 803 l 434 803 l 434 0 m 436 1434 l 436 1108 l 521 1108 q 594 1108 594 1267 l 594 1267 q 594 1370 578 1402 q 562 1434 518 1434 l 518 1434 l 436 1434 m 694 -417 l 336 -417 l 336 -119 l 694 -119 l 694 -417 m 804 1879 l 154 1879 l 154 2032 l 804 2032 l 804 1879"},"Ȓ":{"x_min":78,"x_max":938,"ha":976,"o":"m 434 0 l 78 0 l 78 1760 l 618 1760 q 753 1760 822 1699 q 891 1637 915 1527 q 938 1416 938 1267 l 938 1267 q 938 1123 902 1037 q 865 951 764 918 l 764 918 q 847 901 881 836 q 914 770 914 666 l 914 666 l 914 0 l 567 0 l 567 689 q 567 766 536 785 q 504 803 434 803 l 434 803 l 434 0 m 436 1434 l 436 1108 l 521 1108 q 594 1108 594 1267 l 594 1267 q 594 1370 578 1402 q 562 1434 518 1434 l 518 1434 l 436 1434 m 344 1868 l 108 1868 q 105 1888 105 1909 l 105 1909 q 105 2072 204 2146 q 302 2220 477 2220 l 477 2220 q 657 2220 755 2145 q 852 2069 852 1902 l 852 1902 q 852 1897 852 1888 q 851 1878 850 1868 l 850 1868 l 614 1868 q 614 1936 576 1969 q 538 2002 479 2002 l 479 2002 q 421 2002 383 1969 q 344 1936 344 1868 l 344 1868"},"Ṟ":{"x_min":78,"x_max":938,"ha":976,"o":"m 434 0 l 78 0 l 78 1760 l 618 1760 q 753 1760 822 1699 q 891 1637 915 1527 q 938 1416 938 1267 l 938 1267 q 938 1123 902 1037 q 865 951 764 918 l 764 918 q 847 901 881 836 q 914 770 914 666 l 914 666 l 914 0 l 567 0 l 567 689 q 567 766 536 785 q 504 803 434 803 l 434 803 l 434 0 m 436 1434 l 436 1108 l 521 1108 q 594 1108 594 1267 l 594 1267 q 594 1370 578 1402 q 562 1434 518 1434 l 518 1434 l 436 1434 m 840 -272 l 190 -272 l 190 -119 l 840 -119 l 840 -272"},"Ɍ":{"x_min":0,"x_max":938,"ha":976,"o":"m 434 0 l 78 0 l 78 843 l 0 843 l 0 1075 l 78 1075 l 78 1760 l 618 1760 q 753 1760 822 1699 q 891 1637 915 1527 q 938 1416 938 1267 l 938 1267 q 938 1123 902 1037 q 865 951 764 918 l 764 918 q 847 901 881 836 q 914 770 914 666 l 914 666 l 914 0 l 567 0 l 567 689 q 567 766 536 785 q 504 803 434 803 l 434 803 l 434 0 m 436 1434 l 436 1108 l 521 1108 q 594 1108 594 1267 l 594 1267 q 594 1370 578 1402 q 562 1434 518 1434 l 518 1434 l 436 1434"},"Ɽ":{"x_min":78,"x_max":938,"ha":976,"o":"m 504 120 l 504 -196 q 382 -196 286 -147 q 189 -99 134 -4 q 78 91 78 232 l 78 232 l 78 1760 l 618 1760 q 753 1760 822 1699 q 891 1637 915 1527 q 938 1416 938 1267 l 938 1267 q 938 1123 902 1037 q 865 951 764 918 l 764 918 q 847 901 881 836 q 914 770 914 666 l 914 666 l 914 0 l 567 0 l 567 689 q 567 766 536 785 q 504 803 434 803 l 434 803 l 434 252 q 434 167 454 144 q 474 120 504 120 l 504 120 m 436 1434 l 436 1108 l 521 1108 q 594 1108 594 1267 l 594 1267 q 594 1370 578 1402 q 562 1434 518 1434 l 518 1434 l 436 1434"},"S":{"x_min":42,"x_max":906,"ha":945,"o":"m 496 -16 l 496 -16 q 255 -16 149 104 q 42 224 42 486 l 42 486 l 42 658 l 390 658 l 390 438 q 390 377 409 343 q 427 308 473 308 l 473 308 q 521 308 540 336 q 558 364 558 428 l 558 428 q 558 509 542 564 q 526 618 487 668 q 447 717 377 783 l 377 783 l 219 933 q 42 1100 42 1315 l 42 1315 q 42 1540 147 1658 q 251 1776 449 1776 l 449 1776 q 691 1776 793 1647 q 894 1518 894 1255 l 894 1255 l 536 1255 l 536 1376 q 536 1412 516 1432 q 495 1452 460 1452 l 460 1452 q 418 1452 399 1429 q 379 1405 379 1368 l 379 1368 q 379 1331 399 1288 q 419 1245 478 1189 l 478 1189 l 681 994 q 742 936 793 872 q 844 807 875 722 q 906 636 906 513 l 906 513 q 906 265 815 125 q 723 -16 496 -16"},"Ś":{"x_min":42,"x_max":906,"ha":945,"o":"m 496 -16 l 496 -16 q 255 -16 149 104 q 42 224 42 486 l 42 486 l 42 658 l 390 658 l 390 438 q 390 377 409 343 q 427 308 473 308 l 473 308 q 521 308 540 336 q 558 364 558 428 l 558 428 q 558 509 542 564 q 526 618 487 668 q 447 717 377 783 l 377 783 l 219 933 q 42 1100 42 1315 l 42 1315 q 42 1540 147 1658 q 251 1776 449 1776 l 449 1776 q 691 1776 793 1647 q 894 1518 894 1255 l 894 1255 l 536 1255 l 536 1376 q 536 1412 516 1432 q 495 1452 460 1452 l 460 1452 q 418 1452 399 1429 q 379 1405 379 1368 l 379 1368 q 379 1331 399 1288 q 419 1245 478 1189 l 478 1189 l 681 994 q 742 936 793 872 q 844 807 875 722 q 906 636 906 513 l 906 513 q 906 265 815 125 q 723 -16 496 -16 m 705 1907 l 230 1813 l 230 2036 l 705 2254 l 705 1907"},"Ṥ":{"x_min":42,"x_max":906,"ha":945,"o":"m 496 -16 l 496 -16 q 255 -16 149 104 q 42 224 42 486 l 42 486 l 42 658 l 390 658 l 390 438 q 390 377 409 343 q 427 308 473 308 l 473 308 q 521 308 540 336 q 558 364 558 428 l 558 428 q 558 509 542 564 q 526 618 487 668 q 447 717 377 783 l 377 783 l 219 933 q 42 1100 42 1315 l 42 1315 q 42 1540 147 1658 q 251 1776 449 1776 l 449 1776 q 691 1776 793 1647 q 894 1518 894 1255 l 894 1255 l 536 1255 l 536 1376 q 536 1412 516 1432 q 495 1452 460 1452 l 460 1452 q 418 1452 399 1429 q 379 1405 379 1368 l 379 1368 q 379 1331 399 1288 q 419 1245 478 1189 l 478 1189 l 681 994 q 742 936 793 872 q 844 807 875 722 q 906 636 906 513 l 906 513 q 906 265 815 125 q 723 -16 496 -16 m 708 1866 l 233 1792 l 233 1985 l 708 2153 l 708 1866 m 649 2170 l 291 2170 l 291 2428 l 649 2428 l 649 2170"},"Ꞌ":{"x_min":55,"x_max":413,"ha":469,"o":"m 343 479 l 125 479 l 55 1760 l 413 1760 l 343 479"},"Š":{"x_min":23,"x_max":913,"ha":945,"o":"m 496 -16 l 496 -16 q 255 -16 149 104 q 42 224 42 486 l 42 486 l 42 658 l 390 658 l 390 438 q 390 377 409 343 q 427 308 473 308 l 473 308 q 521 308 540 336 q 558 364 558 428 l 558 428 q 558 509 542 564 q 526 618 487 668 q 447 717 377 783 l 377 783 l 219 933 q 42 1100 42 1315 l 42 1315 q 42 1540 147 1658 q 251 1776 449 1776 l 449 1776 q 691 1776 793 1647 q 894 1518 894 1255 l 894 1255 l 536 1255 l 536 1376 q 536 1412 516 1432 q 495 1452 460 1452 l 460 1452 q 418 1452 399 1429 q 379 1405 379 1368 l 379 1368 q 379 1331 399 1288 q 419 1245 478 1189 l 478 1189 l 681 994 q 742 936 793 872 q 844 807 875 722 q 906 636 906 513 l 906 513 q 906 265 815 125 q 723 -16 496 -16 m 672 1851 l 264 1851 l 23 2254 l 382 2254 l 468 1969 l 554 2254 l 913 2254 l 672 1851"},"Ṧ":{"x_min":42,"x_max":906,"ha":945,"o":"m 649 2125 l 291 2125 l 291 2383 l 649 2383 l 649 2125 m 618 1837 l 324 1837 l 87 2092 l 372 2092 l 471 1956 l 570 2092 l 855 2092 l 618 1837 m 496 -16 l 496 -16 q 255 -16 149 104 q 42 224 42 486 l 42 486 l 42 658 l 390 658 l 390 438 q 390 377 409 343 q 427 308 473 308 l 473 308 q 521 308 540 336 q 558 364 558 428 l 558 428 q 558 509 542 564 q 526 618 487 668 q 447 717 377 783 l 377 783 l 219 933 q 42 1100 42 1315 l 42 1315 q 42 1540 147 1658 q 251 1776 449 1776 l 449 1776 q 691 1776 793 1647 q 894 1518 894 1255 l 894 1255 l 536 1255 l 536 1376 q 536 1412 516 1432 q 495 1452 460 1452 l 460 1452 q 418 1452 399 1429 q 379 1405 379 1368 l 379 1368 q 379 1331 399 1288 q 419 1245 478 1189 l 478 1189 l 681 994 q 742 936 793 872 q 844 807 875 722 q 906 636 906 513 l 906 513 q 906 265 815 125 q 723 -16 496 -16"},"Ş":{"x_min":42,"x_max":906,"ha":945,"o":"m 496 -16 l 496 -16 q 255 -16 149 104 q 42 224 42 486 l 42 486 l 42 658 l 390 658 l 390 438 q 390 377 409 343 q 427 308 473 308 l 473 308 q 521 308 540 336 q 558 364 558 428 l 558 428 q 558 509 542 564 q 526 618 487 668 q 447 717 377 783 l 377 783 l 219 933 q 42 1100 42 1315 l 42 1315 q 42 1540 147 1658 q 251 1776 449 1776 l 449 1776 q 691 1776 793 1647 q 894 1518 894 1255 l 894 1255 l 536 1255 l 536 1376 q 536 1412 516 1432 q 495 1452 460 1452 l 460 1452 q 418 1452 399 1429 q 379 1405 379 1368 l 379 1368 q 379 1331 399 1288 q 419 1245 478 1189 l 478 1189 l 681 994 q 742 936 793 872 q 844 807 875 722 q 906 636 906 513 l 906 513 q 906 265 815 125 q 723 -16 496 -16 m 450 -631 l 450 -631 q 347 -631 252 -591 l 252 -591 l 252 -368 q 283 -378 313 -384 q 343 -391 370 -391 l 370 -391 q 420 -391 454 -364 q 487 -338 487 -273 l 487 -273 q 487 -217 460 -145 q 432 -73 383 0 l 383 0 l 544 0 q 641 -85 695 -189 q 748 -294 748 -387 l 748 -387 q 748 -490 677 -560 q 606 -631 450 -631"},"Ə":{"x_min":64,"x_max":932,"ha":1000,"o":"m 500 -16 l 500 -16 q 375 -16 278 30 q 180 76 124 168 q 68 260 68 398 l 68 398 l 68 890 l 583 890 l 583 1319 q 583 1392 562 1422 q 541 1452 500 1452 l 500 1452 q 455 1452 437 1415 q 418 1378 418 1319 l 418 1319 l 418 1087 l 64 1087 l 64 1335 q 64 1567 181 1672 q 298 1776 508 1776 l 508 1776 q 699 1776 816 1657 q 932 1538 932 1324 l 932 1324 l 932 512 q 932 256 831 120 q 729 -16 500 -16 m 500 308 l 500 308 q 549 308 566 344 q 583 380 583 438 l 583 438 l 583 620 l 418 620 l 418 442 q 418 363 438 336 q 458 308 500 308"},"Ŝ":{"x_min":23,"x_max":913,"ha":945,"o":"m 496 -16 l 496 -16 q 255 -16 149 104 q 42 224 42 486 l 42 486 l 42 658 l 390 658 l 390 438 q 390 377 409 343 q 427 308 473 308 l 473 308 q 521 308 540 336 q 558 364 558 428 l 558 428 q 558 509 542 564 q 526 618 487 668 q 447 717 377 783 l 377 783 l 219 933 q 42 1100 42 1315 l 42 1315 q 42 1540 147 1658 q 251 1776 449 1776 l 449 1776 q 691 1776 793 1647 q 894 1518 894 1255 l 894 1255 l 536 1255 l 536 1376 q 536 1412 516 1432 q 495 1452 460 1452 l 460 1452 q 418 1452 399 1429 q 379 1405 379 1368 l 379 1368 q 379 1331 399 1288 q 419 1245 478 1189 l 478 1189 l 681 994 q 742 936 793 872 q 844 807 875 722 q 906 636 906 513 l 906 513 q 906 265 815 125 q 723 -16 496 -16 m 382 1851 l 23 1851 l 264 2254 l 672 2254 l 913 1851 l 554 1851 l 468 2136 l 382 1851"},"Ș":{"x_min":42,"x_max":906,"ha":945,"o":"m 496 -16 l 496 -16 q 255 -16 149 104 q 42 224 42 486 l 42 486 l 42 658 l 390 658 l 390 438 q 390 377 409 343 q 427 308 473 308 l 473 308 q 521 308 540 336 q 558 364 558 428 l 558 428 q 558 509 542 564 q 526 618 487 668 q 447 717 377 783 l 377 783 l 219 933 q 42 1100 42 1315 l 42 1315 q 42 1540 147 1658 q 251 1776 449 1776 l 449 1776 q 691 1776 793 1647 q 894 1518 894 1255 l 894 1255 l 536 1255 l 536 1376 q 536 1412 516 1432 q 495 1452 460 1452 l 460 1452 q 418 1452 399 1429 q 379 1405 379 1368 l 379 1368 q 379 1331 399 1288 q 419 1245 478 1189 l 478 1189 l 681 994 q 742 936 793 872 q 844 807 875 722 q 906 636 906 513 l 906 513 q 906 265 815 125 q 723 -16 496 -16 m 548 -643 l 337 -643 l 403 -407 l 276 -407 l 276 -109 l 650 -109 l 650 -398 l 548 -643"},"Ṡ":{"x_min":42,"x_max":906,"ha":945,"o":"m 496 -16 l 496 -16 q 255 -16 149 104 q 42 224 42 486 l 42 486 l 42 658 l 390 658 l 390 438 q 390 377 409 343 q 427 308 473 308 l 473 308 q 521 308 540 336 q 558 364 558 428 l 558 428 q 558 509 542 564 q 526 618 487 668 q 447 717 377 783 l 377 783 l 219 933 q 42 1100 42 1315 l 42 1315 q 42 1540 147 1658 q 251 1776 449 1776 l 449 1776 q 691 1776 793 1647 q 894 1518 894 1255 l 894 1255 l 536 1255 l 536 1376 q 536 1412 516 1432 q 495 1452 460 1452 l 460 1452 q 418 1452 399 1429 q 379 1405 379 1368 l 379 1368 q 379 1331 399 1288 q 419 1245 478 1189 l 478 1189 l 681 994 q 742 936 793 872 q 844 807 875 722 q 906 636 906 513 l 906 513 q 906 265 815 125 q 723 -16 496 -16 m 647 1852 l 289 1852 l 289 2150 l 647 2150 l 647 1852"},"Ṣ":{"x_min":42,"x_max":906,"ha":945,"o":"m 496 -16 l 496 -16 q 255 -16 149 104 q 42 224 42 486 l 42 486 l 42 658 l 390 658 l 390 438 q 390 377 409 343 q 427 308 473 308 l 473 308 q 521 308 540 336 q 558 364 558 428 l 558 428 q 558 509 542 564 q 526 618 487 668 q 447 717 377 783 l 377 783 l 219 933 q 42 1100 42 1315 l 42 1315 q 42 1540 147 1658 q 251 1776 449 1776 l 449 1776 q 691 1776 793 1647 q 894 1518 894 1255 l 894 1255 l 536 1255 l 536 1376 q 536 1412 516 1432 q 495 1452 460 1452 l 460 1452 q 418 1452 399 1429 q 379 1405 379 1368 l 379 1368 q 379 1331 399 1288 q 419 1245 478 1189 l 478 1189 l 681 994 q 742 936 793 872 q 844 807 875 722 q 906 636 906 513 l 906 513 q 906 265 815 125 q 723 -16 496 -16 m 655 -417 l 297 -417 l 297 -119 l 655 -119 l 655 -417"},"Ṩ":{"x_min":42,"x_max":906,"ha":945,"o":"m 496 -16 l 496 -16 q 255 -16 149 104 q 42 224 42 486 l 42 486 l 42 658 l 390 658 l 390 438 q 390 377 409 343 q 427 308 473 308 l 473 308 q 521 308 540 336 q 558 364 558 428 l 558 428 q 558 509 542 564 q 526 618 487 668 q 447 717 377 783 l 377 783 l 219 933 q 42 1100 42 1315 l 42 1315 q 42 1540 147 1658 q 251 1776 449 1776 l 449 1776 q 691 1776 793 1647 q 894 1518 894 1255 l 894 1255 l 536 1255 l 536 1376 q 536 1412 516 1432 q 495 1452 460 1452 l 460 1452 q 418 1452 399 1429 q 379 1405 379 1368 l 379 1368 q 379 1331 399 1288 q 419 1245 478 1189 l 478 1189 l 681 994 q 742 936 793 872 q 844 807 875 722 q 906 636 906 513 l 906 513 q 906 265 815 125 q 723 -16 496 -16 m 655 -417 l 297 -417 l 297 -119 l 655 -119 l 655 -417 m 647 1852 l 289 1852 l 289 2150 l 647 2150 l 647 1852"},"Σ":{"x_min":62,"x_max":795,"ha":836,"o":"m 795 -119 l 62 -119 l 62 149 l 399 822 l 62 1455 l 62 1760 l 779 1760 l 779 1444 l 387 1444 l 692 866 l 692 790 l 387 176 l 795 176 l 795 -119"},"Ꞩ":{"x_min":42,"x_max":906,"ha":945,"o":"m 496 -16 l 496 -16 q 255 -16 149 104 q 42 224 42 486 l 42 486 l 42 658 l 390 658 l 390 438 q 390 377 409 343 q 427 308 473 308 l 473 308 q 521 308 540 336 q 558 364 558 428 l 558 428 q 558 509 542 564 q 526 618 487 668 q 447 717 377 783 l 377 783 l 353 805 l 63 736 l 63 982 l 154 1004 q 42 1143 42 1315 l 42 1315 q 42 1540 147 1658 q 251 1776 449 1776 l 449 1776 q 691 1776 793 1647 q 894 1518 894 1255 l 894 1255 l 536 1255 l 536 1376 q 536 1412 516 1432 q 495 1452 460 1452 l 460 1452 q 418 1452 399 1429 q 379 1405 379 1368 l 379 1368 q 379 1331 399 1288 q 419 1245 478 1189 l 478 1189 l 568 1103 l 875 1176 l 875 930 l 767 904 q 827 833 867 742 q 906 651 906 513 l 906 513 q 906 265 815 125 q 723 -16 496 -16"},"T":{"x_min":20,"x_max":790,"ha":810,"o":"m 581 0 l 229 0 l 229 1422 l 20 1422 l 20 1760 l 790 1760 l 790 1422 l 581 1422 l 581 0"},"Ŧ":{"x_min":20,"x_max":790,"ha":810,"o":"m 20 1760 l 790 1760 l 790 1422 l 581 1422 l 581 985 l 727 985 l 727 752 l 581 752 l 581 0 l 229 0 l 229 752 l 77 752 l 77 985 l 229 985 l 229 1422 l 20 1422 l 20 1760"},"Ť":{"x_min":-40,"x_max":850,"ha":810,"o":"m 581 0 l 229 0 l 229 1422 l 20 1422 l 20 1760 l 790 1760 l 790 1422 l 581 1422 l 581 0 m 609 1851 l 201 1851 l -40 2254 l 319 2254 l 405 1969 l 491 2254 l 850 2254 l 609 1851"},"Ţ":{"x_min":20,"x_max":790,"ha":810,"o":"m 581 0 l 229 0 l 229 1422 l 20 1422 l 20 1760 l 790 1760 l 790 1422 l 581 1422 l 581 0 m 376 -631 l 376 -631 q 273 -631 178 -591 l 178 -591 l 178 -368 q 209 -378 239 -384 q 269 -391 296 -391 l 296 -391 q 346 -391 380 -364 q 413 -338 413 -273 l 413 -273 q 413 -217 386 -145 q 358 -73 309 0 l 309 0 l 470 0 q 567 -85 621 -189 q 674 -294 674 -387 l 674 -387 q 674 -490 603 -560 q 532 -631 376 -631"},"Ṱ":{"x_min":-40,"x_max":850,"ha":810,"o":"m 581 0 l 229 0 l 229 1422 l 20 1422 l 20 1760 l 790 1760 l 790 1422 l 581 1422 l 581 0 m 319 -512 l -40 -512 l 201 -109 l 609 -109 l 850 -512 l 491 -512 l 405 -227 l 319 -512"},"Ț":{"x_min":20,"x_max":790,"ha":810,"o":"m 581 0 l 229 0 l 229 1422 l 20 1422 l 20 1760 l 790 1760 l 790 1422 l 581 1422 l 581 0 m 497 -643 l 286 -643 l 352 -407 l 225 -407 l 225 -109 l 599 -109 l 599 -398 l 497 -643"},"Ⱦ":{"x_min":6,"x_max":790,"ha":810,"o":"m 146 -186 l 6 -186 l 226 666 l 229 666 l 229 1422 l 20 1422 l 20 1760 l 557 1760 l 619 2000 l 759 2000 l 697 1760 l 790 1760 l 790 1422 l 581 1422 l 581 0 l 229 0 l 229 135 l 146 -186"},"Ṫ":{"x_min":20,"x_max":790,"ha":810,"o":"m 581 0 l 229 0 l 229 1422 l 20 1422 l 20 1760 l 790 1760 l 790 1422 l 581 1422 l 581 0 m 584 1852 l 226 1852 l 226 2150 l 584 2150 l 584 1852"},"Ṭ":{"x_min":20,"x_max":790,"ha":810,"o":"m 581 0 l 229 0 l 229 1422 l 20 1422 l 20 1760 l 790 1760 l 790 1422 l 581 1422 l 581 0 m 584 -417 l 226 -417 l 226 -119 l 584 -119 l 584 -417"},"Ƭ":{"x_min":-5,"x_max":980,"ha":1000,"o":"m 771 0 l 419 0 l 419 1422 l 418 1422 q 358 1422 330 1386 q 302 1350 302 1270 l 302 1270 l 302 1252 l -5 1252 l -5 1312 q -5 1443 42 1544 q 88 1645 182 1703 q 275 1760 416 1760 l 416 1760 l 980 1760 l 980 1422 l 771 1422 l 771 0"},"Þ":{"x_min":62,"x_max":918,"ha":947,"o":"m 408 0 l 62 0 l 62 1760 l 407 1760 l 407 1516 l 527 1516 q 681 1516 766 1447 q 851 1377 885 1255 q 918 1132 918 973 l 918 973 q 918 820 890 698 q 862 576 783 505 q 704 434 551 434 l 551 434 l 408 434 l 408 0 m 408 1226 l 408 721 l 428 721 q 510 721 540 770 q 570 819 570 967 l 570 967 q 570 1044 563 1103 q 556 1161 531 1194 q 505 1226 447 1226 l 447 1226 l 408 1226"},"Ṯ":{"x_min":20,"x_max":790,"ha":810,"o":"m 581 0 l 229 0 l 229 1422 l 20 1422 l 20 1760 l 790 1760 l 790 1422 l 581 1422 l 581 0 m 730 -272 l 80 -272 l 80 -119 l 730 -119 l 730 -272"},"Ʈ":{"x_min":20,"x_max":790,"ha":810,"o":"m 651 120 l 651 -196 q 467 -196 348 -87 q 229 21 229 232 l 229 232 l 229 1422 l 20 1422 l 20 1760 l 790 1760 l 790 1422 l 581 1422 l 581 252 q 581 167 601 144 q 621 120 651 120 l 651 120"},"U":{"x_min":57,"x_max":913,"ha":970,"o":"m 485 -16 l 485 -16 q 265 -16 161 108 q 57 231 57 471 l 57 471 l 57 1760 l 399 1760 l 399 485 q 399 441 404 401 q 409 360 427 334 q 445 308 485 308 l 485 308 q 526 308 544 334 q 562 359 567 400 q 571 441 571 485 l 571 485 l 571 1760 l 913 1760 l 913 471 q 913 231 809 108 q 705 -16 485 -16"},"Ú":{"x_min":57,"x_max":913,"ha":970,"o":"m 485 -16 l 485 -16 q 265 -16 161 108 q 57 231 57 471 l 57 471 l 57 1760 l 399 1760 l 399 485 q 399 441 404 401 q 409 360 427 334 q 445 308 485 308 l 485 308 q 526 308 544 334 q 562 359 567 400 q 571 441 571 485 l 571 485 l 571 1760 l 913 1760 l 913 471 q 913 231 809 108 q 705 -16 485 -16 m 722 1907 l 247 1813 l 247 2036 l 722 2254 l 722 1907"},"Ʉ":{"x_min":-10,"x_max":1050,"ha":1040,"o":"m 520 -16 l 520 -16 q 300 -16 196 108 q 92 231 92 471 l 92 471 l 92 912 l -10 912 l -10 1132 l 92 1132 l 92 1760 l 434 1760 l 434 1132 l 606 1132 l 606 1760 l 948 1760 l 948 1132 l 1050 1132 l 1050 912 l 948 912 l 948 471 q 948 231 844 108 q 740 -16 520 -16 m 434 912 l 434 485 q 434 441 439 401 q 444 360 462 334 q 480 308 520 308 l 520 308 q 561 308 579 334 q 597 359 602 400 q 606 441 606 485 l 606 485 l 606 912 l 434 912"},"Ŭ":{"x_min":57,"x_max":913,"ha":970,"o":"m 485 -16 l 485 -16 q 265 -16 161 108 q 57 231 57 471 l 57 471 l 57 1760 l 399 1760 l 399 485 q 399 441 404 401 q 409 360 427 334 q 445 308 485 308 l 485 308 q 526 308 544 334 q 562 359 567 400 q 571 441 571 485 l 571 485 l 571 1760 l 913 1760 l 913 471 q 913 231 809 108 q 705 -16 485 -16 m 488 1852 l 488 1852 q 313 1852 205 1926 q 96 2000 96 2163 l 96 2163 q 96 2184 99 2205 l 99 2205 l 355 2205 q 355 2148 384 2119 q 413 2089 490 2089 l 490 2089 q 567 2089 596 2119 q 625 2148 625 2205 l 625 2205 l 881 2205 q 882 2195 883 2185 q 883 2175 883 2170 l 883 2170 q 883 2003 776 1928 q 668 1852 488 1852"},"Ǔ":{"x_min":40,"x_max":930,"ha":970,"o":"m 485 -16 l 485 -16 q 265 -16 161 108 q 57 231 57 471 l 57 471 l 57 1760 l 399 1760 l 399 485 q 399 441 404 401 q 409 360 427 334 q 445 308 485 308 l 485 308 q 526 308 544 334 q 562 359 567 400 q 571 441 571 485 l 571 485 l 571 1760 l 913 1760 l 913 471 q 913 231 809 108 q 705 -16 485 -16 m 689 1851 l 281 1851 l 40 2254 l 399 2254 l 485 1969 l 571 2254 l 930 2254 l 689 1851"},"Û":{"x_min":40,"x_max":930,"ha":970,"o":"m 485 -16 l 485 -16 q 265 -16 161 108 q 57 231 57 471 l 57 471 l 57 1760 l 399 1760 l 399 485 q 399 441 404 401 q 409 360 427 334 q 445 308 485 308 l 485 308 q 526 308 544 334 q 562 359 567 400 q 571 441 571 485 l 571 485 l 571 1760 l 913 1760 l 913 471 q 913 231 809 108 q 705 -16 485 -16 m 399 1851 l 40 1851 l 281 2254 l 689 2254 l 930 1851 l 571 1851 l 485 2136 l 399 1851"},"Ṷ":{"x_min":40,"x_max":930,"ha":970,"o":"m 485 -16 l 485 -16 q 265 -16 161 108 q 57 231 57 471 l 57 471 l 57 1760 l 399 1760 l 399 485 q 399 441 404 401 q 409 360 427 334 q 445 308 485 308 l 485 308 q 526 308 544 334 q 562 359 567 400 q 571 441 571 485 l 571 485 l 571 1760 l 913 1760 l 913 471 q 913 231 809 108 q 705 -16 485 -16 m 399 -512 l 40 -512 l 281 -109 l 689 -109 l 930 -512 l 571 -512 l 485 -227 l 399 -512"},"Ȕ":{"x_min":-1,"x_max":913,"ha":970,"o":"m 485 -16 l 485 -16 q 265 -16 161 108 q 57 231 57 471 l 57 471 l 57 1760 l 399 1760 l 399 485 q 399 441 404 401 q 409 360 427 334 q 445 308 485 308 l 485 308 q 526 308 544 334 q 562 359 567 400 q 571 441 571 485 l 571 485 l 571 1760 l 913 1760 l 913 471 q 913 231 809 108 q 705 -16 485 -16 m 454 1904 l 288 1846 l -1 2275 l 233 2383 l 454 1904 m 756 1904 l 590 1846 l 342 2275 l 572 2383 l 756 1904"},"Ü":{"x_min":57,"x_max":913,"ha":970,"o":"m 485 -16 l 485 -16 q 265 -16 161 108 q 57 231 57 471 l 57 471 l 57 1760 l 399 1760 l 399 485 q 399 441 404 401 q 409 360 427 334 q 445 308 485 308 l 485 308 q 526 308 544 334 q 562 359 567 400 q 571 441 571 485 l 571 485 l 571 1760 l 913 1760 l 913 471 q 913 231 809 108 q 705 -16 485 -16 m 899 1859 l 541 1859 l 541 2157 l 899 2157 l 899 1859 m 415 1859 l 57 1859 l 57 2157 l 415 2157 l 415 1859"},"Ǘ":{"x_min":57,"x_max":913,"ha":970,"o":"m 485 -16 l 485 -16 q 265 -16 161 108 q 57 231 57 471 l 57 471 l 57 1760 l 399 1760 l 399 485 q 399 441 404 401 q 409 360 427 334 q 445 308 485 308 l 485 308 q 526 308 544 334 q 562 359 567 400 q 571 441 571 485 l 571 485 l 571 1760 l 913 1760 l 913 471 q 913 231 809 108 q 705 -16 485 -16 m 906 1859 l 548 1859 l 548 2107 l 906 2107 l 906 1859 m 422 1859 l 64 1859 l 64 2107 l 422 2107 l 422 1859 m 723 2268 l 248 2194 l 248 2387 l 723 2555 l 723 2268"},"Ṳ":{"x_min":57,"x_max":913,"ha":970,"o":"m 485 -16 l 485 -16 q 265 -16 161 108 q 57 231 57 471 l 57 471 l 57 1760 l 399 1760 l 399 485 q 399 441 404 401 q 409 360 427 334 q 445 308 485 308 l 485 308 q 526 308 544 334 q 562 359 567 400 q 571 441 571 485 l 571 485 l 571 1760 l 913 1760 l 913 471 q 913 231 809 108 q 705 -16 485 -16 m 906 -417 l 548 -417 l 548 -119 l 906 -119 l 906 -417 m 422 -417 l 64 -417 l 64 -119 l 422 -119 l 422 -417"},"Ǚ":{"x_min":57,"x_max":913,"ha":970,"o":"m 632 2204 l 338 2204 l 101 2459 l 386 2459 l 485 2323 l 584 2459 l 869 2459 l 632 2204 m 906 1857 l 548 1857 l 548 2105 l 906 2105 l 906 1857 m 422 1857 l 64 1857 l 64 2105 l 422 2105 l 422 1857 m 485 -16 l 485 -16 q 265 -16 161 108 q 57 231 57 471 l 57 471 l 57 1760 l 399 1760 l 399 485 q 399 441 404 401 q 409 360 427 334 q 445 308 485 308 l 485 308 q 526 308 544 334 q 562 359 567 400 q 571 441 571 485 l 571 485 l 571 1760 l 913 1760 l 913 471 q 913 231 809 108 q 705 -16 485 -16"},"Ǜ":{"x_min":57,"x_max":913,"ha":970,"o":"m 485 -16 l 485 -16 q 265 -16 161 108 q 57 231 57 471 l 57 471 l 57 1760 l 399 1760 l 399 485 q 399 441 404 401 q 409 360 427 334 q 445 308 485 308 l 485 308 q 526 308 544 334 q 562 359 567 400 q 571 441 571 485 l 571 485 l 571 1760 l 913 1760 l 913 471 q 913 231 809 108 q 705 -16 485 -16 m 906 1859 l 548 1859 l 548 2107 l 906 2107 l 906 1859 m 422 1859 l 64 1859 l 64 2107 l 422 2107 l 422 1859 m 722 2387 l 722 2194 l 247 2268 l 247 2555 l 722 2387"},"Ǖ":{"x_min":57,"x_max":913,"ha":970,"o":"m 485 -16 l 485 -16 q 265 -16 161 108 q 57 231 57 471 l 57 471 l 57 1760 l 399 1760 l 399 485 q 399 441 404 401 q 409 360 427 334 q 445 308 485 308 l 485 308 q 526 308 544 334 q 562 359 567 400 q 571 441 571 485 l 571 485 l 571 1760 l 913 1760 l 913 471 q 913 231 809 108 q 705 -16 485 -16 m 906 1859 l 548 1859 l 548 2107 l 906 2107 l 906 1859 m 422 1859 l 64 1859 l 64 2107 l 422 2107 l 422 1859 m 810 2216 l 160 2216 l 160 2369 l 810 2369 l 810 2216"},"Ụ":{"x_min":57,"x_max":913,"ha":970,"o":"m 485 -16 l 485 -16 q 265 -16 161 108 q 57 231 57 471 l 57 471 l 57 1760 l 399 1760 l 399 485 q 399 441 404 401 q 409 360 427 334 q 445 308 485 308 l 485 308 q 526 308 544 334 q 562 359 567 400 q 571 441 571 485 l 571 485 l 571 1760 l 913 1760 l 913 471 q 913 231 809 108 q 705 -16 485 -16 m 664 -417 l 306 -417 l 306 -119 l 664 -119 l 664 -417"},"Ù":{"x_min":57,"x_max":913,"ha":970,"o":"m 485 -16 l 485 -16 q 265 -16 161 108 q 57 231 57 471 l 57 471 l 57 1760 l 399 1760 l 399 485 q 399 441 404 401 q 409 360 427 334 q 445 308 485 308 l 485 308 q 526 308 544 334 q 562 359 567 400 q 571 441 571 485 l 571 485 l 571 1760 l 913 1760 l 913 471 q 913 231 809 108 q 705 -16 485 -16 m 722 2036 l 722 1813 l 247 1907 l 247 2254 l 722 2036"},"Ủ":{"x_min":57,"x_max":913,"ha":970,"o":"m 485 -16 l 485 -16 q 265 -16 161 108 q 57 231 57 471 l 57 471 l 57 1760 l 399 1760 l 399 485 q 399 441 404 401 q 409 360 427 334 q 445 308 485 308 l 485 308 q 526 308 544 334 q 562 359 567 400 q 571 441 571 485 l 571 485 l 571 1760 l 913 1760 l 913 471 q 913 231 809 108 q 705 -16 485 -16 m 456 1837 l 456 1837 l 350 1961 q 404 1981 437 2011 q 470 2041 470 2091 l 470 2091 q 470 2186 369 2186 l 369 2186 q 322 2186 279 2170 l 279 2170 l 279 2350 q 367 2383 462 2383 l 462 2383 q 587 2383 658 2321 q 728 2258 728 2145 l 728 2145 q 728 2018 650 1946 q 572 1873 456 1837"},"Ư":{"x_min":57,"x_max":1093,"ha":1083,"o":"m 485 -16 l 485 -16 q 265 -16 161 108 q 57 231 57 471 l 57 471 l 57 1760 l 399 1760 l 399 485 q 399 441 404 401 q 409 360 427 334 q 445 308 485 308 l 485 308 q 526 308 544 334 q 562 359 567 400 q 571 441 571 485 l 571 485 l 571 1760 l 700 1760 q 815 1760 815 1885 l 815 1885 l 815 1908 l 1093 1908 l 1093 1893 q 1093 1762 1043 1686 q 993 1610 913 1577 l 913 1577 l 913 471 q 913 231 809 108 q 705 -16 485 -16"},"Ứ":{"x_min":57,"x_max":1093,"ha":1083,"o":"m 485 -16 l 485 -16 q 265 -16 161 108 q 57 231 57 471 l 57 471 l 57 1760 l 399 1760 l 399 485 q 399 441 404 401 q 409 360 427 334 q 445 308 485 308 l 485 308 q 526 308 544 334 q 562 359 567 400 q 571 441 571 485 l 571 485 l 571 1760 l 700 1760 q 815 1760 815 1885 l 815 1885 l 815 1908 l 1093 1908 l 1093 1893 q 1093 1762 1043 1686 q 993 1610 913 1577 l 913 1577 l 913 471 q 913 231 809 108 q 705 -16 485 -16 m 723 1871 l 248 1797 l 248 1990 l 723 2158 l 723 1871"},"Ự":{"x_min":57,"x_max":1093,"ha":1083,"o":"m 485 -16 l 485 -16 q 265 -16 161 108 q 57 231 57 471 l 57 471 l 57 1760 l 399 1760 l 399 485 q 399 441 404 401 q 409 360 427 334 q 445 308 485 308 l 485 308 q 526 308 544 334 q 562 359 567 400 q 571 441 571 485 l 571 485 l 571 1760 l 700 1760 q 815 1760 815 1885 l 815 1885 l 815 1908 l 1093 1908 l 1093 1893 q 1093 1762 1043 1686 q 993 1610 913 1577 l 913 1577 l 913 471 q 913 231 809 108 q 705 -16 485 -16 m 664 -417 l 306 -417 l 306 -119 l 664 -119 l 664 -417"},"Ừ":{"x_min":57,"x_max":1093,"ha":1083,"o":"m 485 -16 l 485 -16 q 265 -16 161 108 q 57 231 57 471 l 57 471 l 57 1760 l 399 1760 l 399 485 q 399 441 404 401 q 409 360 427 334 q 445 308 485 308 l 485 308 q 526 308 544 334 q 562 359 567 400 q 571 441 571 485 l 571 485 l 571 1760 l 700 1760 q 815 1760 815 1885 l 815 1885 l 815 1908 l 1093 1908 l 1093 1893 q 1093 1762 1043 1686 q 993 1610 913 1577 l 913 1577 l 913 471 q 913 231 809 108 q 705 -16 485 -16 m 722 1990 l 722 1797 l 247 1871 l 247 2158 l 722 1990"},"Ử":{"x_min":57,"x_max":1093,"ha":1083,"o":"m 485 -16 l 485 -16 q 265 -16 161 108 q 57 231 57 471 l 57 471 l 57 1760 l 399 1760 l 399 485 q 399 441 404 401 q 409 360 427 334 q 445 308 485 308 l 485 308 q 526 308 544 334 q 562 359 567 400 q 571 441 571 485 l 571 485 l 571 1760 l 700 1760 q 815 1760 815 1885 l 815 1885 l 815 1908 l 1093 1908 l 1093 1893 q 1093 1762 1043 1686 q 993 1610 913 1577 l 913 1577 l 913 471 q 913 231 809 108 q 705 -16 485 -16 m 456 1837 l 456 1837 l 350 1961 q 404 1981 437 2011 q 470 2041 470 2091 l 470 2091 q 470 2186 369 2186 l 369 2186 q 322 2186 279 2170 l 279 2170 l 279 2350 q 367 2383 462 2383 l 462 2383 q 587 2383 658 2321 q 728 2258 728 2145 l 728 2145 q 728 2018 650 1946 q 572 1873 456 1837"},"Ữ":{"x_min":57,"x_max":1093,"ha":1083,"o":"m 600 1841 l 600 1841 q 526 1841 477 1864 q 428 1887 391 1910 q 353 1932 312 1932 l 312 1932 q 286 1932 263 1917 q 240 1902 220 1864 l 220 1864 l 72 1942 q 97 1997 127 2043 q 156 2089 202 2117 q 247 2145 319 2145 l 319 2145 q 390 2145 436 2124 q 481 2103 516 2082 q 551 2061 589 2061 l 589 2061 q 616 2061 639 2078 q 662 2095 682 2136 l 682 2136 l 848 2082 q 824 2020 795 1965 q 766 1909 721 1875 q 675 1841 600 1841 m 485 -16 l 485 -16 q 265 -16 161 108 q 57 231 57 471 l 57 471 l 57 1760 l 399 1760 l 399 485 q 399 441 404 401 q 409 360 427 334 q 445 308 485 308 l 485 308 q 526 308 544 334 q 562 359 567 400 q 571 441 571 485 l 571 485 l 571 1760 l 700 1760 q 815 1760 815 1885 l 815 1885 l 815 1908 l 1093 1908 l 1093 1893 q 1093 1762 1043 1686 q 993 1610 913 1577 l 913 1577 l 913 471 q 913 231 809 108 q 705 -16 485 -16"},"Ű":{"x_min":57,"x_max":1003,"ha":970,"o":"m 485 -16 l 485 -16 q 265 -16 161 108 q 57 231 57 471 l 57 471 l 57 1760 l 399 1760 l 399 485 q 399 441 404 401 q 409 360 427 334 q 445 308 485 308 l 485 308 q 526 308 544 334 q 562 359 567 400 q 571 441 571 485 l 571 485 l 571 1760 l 913 1760 l 913 471 q 913 231 809 108 q 705 -16 485 -16 m 1003 2295 l 714 1866 l 548 1924 l 769 2403 l 1003 2295 m 660 2295 l 412 1866 l 246 1924 l 430 2403 l 660 2295"},"Ȗ":{"x_min":57,"x_max":913,"ha":970,"o":"m 485 -16 l 485 -16 q 265 -16 161 108 q 57 231 57 471 l 57 471 l 57 1760 l 399 1760 l 399 485 q 399 441 404 401 q 409 360 427 334 q 445 308 485 308 l 485 308 q 526 308 544 334 q 562 359 567 400 q 571 441 571 485 l 571 485 l 571 1760 l 913 1760 l 913 471 q 913 231 809 108 q 705 -16 485 -16 m 350 1868 l 114 1868 q 111 1888 111 1909 l 111 1909 q 111 2072 210 2146 q 308 2220 483 2220 l 483 2220 q 663 2220 761 2145 q 858 2069 858 1902 l 858 1902 q 858 1897 858 1888 q 857 1878 856 1868 l 856 1868 l 620 1868 q 620 1936 582 1969 q 544 2002 485 2002 l 485 2002 q 427 2002 389 1969 q 350 1936 350 1868 l 350 1868"},"Ū":{"x_min":57,"x_max":913,"ha":970,"o":"m 485 -16 l 485 -16 q 265 -16 161 108 q 57 231 57 471 l 57 471 l 57 1760 l 399 1760 l 399 485 q 399 441 404 401 q 409 360 427 334 q 445 308 485 308 l 485 308 q 526 308 544 334 q 562 359 567 400 q 571 441 571 485 l 571 485 l 571 1760 l 913 1760 l 913 471 q 913 231 809 108 q 705 -16 485 -16 m 806 1879 l 156 1879 l 156 2032 l 806 2032 l 806 1879"},"Ṻ":{"x_min":57,"x_max":913,"ha":970,"o":"m 485 -16 l 485 -16 q 265 -16 161 108 q 57 231 57 471 l 57 471 l 57 1760 l 399 1760 l 399 485 q 399 441 404 401 q 409 360 427 334 q 445 308 485 308 l 485 308 q 526 308 544 334 q 562 359 567 400 q 571 441 571 485 l 571 485 l 571 1760 l 913 1760 l 913 471 q 913 231 809 108 q 705 -16 485 -16 m 810 1878 l 160 1878 l 160 2031 l 810 2031 l 810 1878 m 906 2129 l 548 2129 l 548 2377 l 906 2377 l 906 2129 m 422 2129 l 64 2129 l 64 2377 l 422 2377 l 422 2129"},"Ų":{"x_min":57,"x_max":913,"ha":970,"o":"m 485 -16 l 485 -16 q 265 -16 161 108 q 57 231 57 471 l 57 471 l 57 1760 l 399 1760 l 399 485 q 399 441 404 401 q 409 360 427 334 q 445 308 485 308 l 485 308 q 526 308 544 334 q 562 359 567 400 q 571 441 571 485 l 571 485 l 571 1760 l 913 1760 l 913 471 q 913 231 809 108 q 705 -16 485 -16 m 492 -631 l 492 -631 q 397 -631 318 -595 q 239 -559 192 -491 q 144 -424 144 -330 l 144 -330 q 144 -148 408 0 l 408 0 l 619 0 q 563 -58 511 -127 q 459 -196 459 -279 l 459 -279 q 459 -391 574 -391 l 574 -391 q 623 -391 690 -368 l 690 -368 l 690 -591 q 595 -631 492 -631"},"Ʊ":{"x_min":47,"x_max":945,"ha":992,"o":"m 496 -16 l 496 -16 q 288 -16 180 91 q 72 197 72 402 l 72 402 l 72 958 q 72 1274 169 1422 l 169 1422 l 47 1422 l 47 1760 l 463 1760 l 463 1421 q 441 1404 430 1376 q 419 1348 415 1283 q 411 1217 411 1087 l 411 1087 l 411 380 q 411 328 428 292 q 444 256 496 256 l 496 256 q 548 256 565 292 q 581 328 581 380 l 581 380 l 581 1087 q 581 1217 577 1283 q 573 1348 562 1376 q 551 1404 529 1421 l 529 1421 l 529 1760 l 945 1760 l 945 1422 l 823 1422 q 920 1274 920 958 l 920 958 l 920 402 q 920 197 813 91 q 705 -16 496 -16"},"Ů":{"x_min":57,"x_max":913,"ha":970,"o":"m 485 -16 l 485 -16 q 265 -16 161 108 q 57 231 57 471 l 57 471 l 57 1760 l 399 1760 l 399 485 q 399 441 404 401 q 409 360 427 334 q 445 308 485 308 l 485 308 q 526 308 544 334 q 562 359 567 400 q 571 441 571 485 l 571 485 l 571 1760 l 913 1760 l 913 471 q 913 231 809 108 q 705 -16 485 -16 m 484 1840 l 484 1840 q 324 1840 228 1930 q 131 2019 131 2178 l 131 2178 q 131 2336 228 2426 q 324 2516 484 2516 l 484 2516 q 645 2516 742 2426 q 838 2336 838 2178 l 838 2178 q 838 2020 742 1930 q 645 1840 484 1840 m 485 2021 l 485 2021 q 552 2021 590 2067 q 627 2113 627 2178 l 627 2178 q 627 2243 590 2289 q 552 2335 485 2335 l 485 2335 q 418 2335 381 2289 q 343 2243 343 2178 l 343 2178 q 343 2113 381 2067 q 418 2021 485 2021"},"Ũ":{"x_min":57,"x_max":913,"ha":970,"o":"m 485 -16 l 485 -16 q 265 -16 161 108 q 57 231 57 471 l 57 471 l 57 1760 l 399 1760 l 399 485 q 399 441 404 401 q 409 360 427 334 q 445 308 485 308 l 485 308 q 526 308 544 334 q 562 359 567 400 q 571 441 571 485 l 571 485 l 571 1760 l 913 1760 l 913 471 q 913 231 809 108 q 705 -16 485 -16 m 650 1871 l 650 1871 q 576 1871 515 1894 q 453 1917 403 1940 q 353 1962 312 1962 l 312 1962 q 286 1962 263 1947 q 240 1932 220 1894 l 220 1894 l 72 1972 q 97 2033 127 2084 q 156 2134 202 2165 q 248 2195 319 2195 l 319 2195 q 390 2195 448 2174 q 505 2153 553 2132 q 600 2111 639 2111 l 639 2111 q 666 2111 689 2128 q 712 2145 732 2186 l 732 2186 l 898 2132 q 874 2065 845 2005 q 816 1945 771 1908 q 725 1871 650 1871"},"Ṹ":{"x_min":57,"x_max":913,"ha":970,"o":"m 485 -16 l 485 -16 q 265 -16 161 108 q 57 231 57 471 l 57 471 l 57 1760 l 399 1760 l 399 485 q 399 441 404 401 q 409 360 427 334 q 445 308 485 308 l 485 308 q 526 308 544 334 q 562 359 567 400 q 571 441 571 485 l 571 485 l 571 1760 l 913 1760 l 913 471 q 913 231 809 108 q 705 -16 485 -16 m 650 1841 l 650 1841 q 576 1841 515 1864 q 453 1887 403 1910 q 353 1932 312 1932 l 312 1932 q 286 1932 263 1917 q 240 1902 220 1864 l 220 1864 l 72 1942 q 97 1997 127 2043 q 156 2089 202 2117 q 248 2145 319 2145 l 319 2145 q 390 2145 449 2124 q 507 2103 554 2082 q 601 2061 639 2061 l 639 2061 q 666 2061 689 2078 q 712 2095 732 2136 l 732 2136 l 898 2082 q 874 2020 845 1965 q 816 1909 771 1875 q 725 1841 650 1841 m 723 2278 l 248 2204 l 248 2397 l 723 2565 l 723 2278"},"Ṵ":{"x_min":57,"x_max":913,"ha":970,"o":"m 485 -16 l 485 -16 q 265 -16 161 108 q 57 231 57 471 l 57 471 l 57 1760 l 399 1760 l 399 485 q 399 441 404 401 q 409 360 427 334 q 445 308 485 308 l 485 308 q 526 308 544 334 q 562 359 567 400 q 571 441 571 485 l 571 485 l 571 1760 l 913 1760 l 913 471 q 913 231 809 108 q 705 -16 485 -16 m 650 -435 l 650 -435 q 576 -435 515 -412 q 453 -389 403 -366 q 353 -344 312 -344 l 312 -344 q 286 -344 263 -359 q 240 -374 220 -412 l 220 -412 l 72 -334 q 97 -273 127 -222 q 156 -172 202 -141 q 248 -111 319 -111 l 319 -111 q 390 -111 448 -132 q 505 -153 553 -174 q 600 -195 639 -195 l 639 -195 q 666 -195 689 -178 q 712 -161 732 -120 l 732 -120 l 898 -174 q 874 -241 845 -301 q 816 -361 771 -398 q 725 -435 650 -435"},"V":{"x_min":23,"x_max":937,"ha":961,"o":"m 720 0 l 240 0 l 23 1761 l 358 1761 l 487 563 l 602 1761 l 937 1761 l 720 0"},"Ṿ":{"x_min":23,"x_max":937,"ha":961,"o":"m 720 0 l 240 0 l 23 1761 l 358 1761 l 487 563 l 602 1761 l 937 1761 l 720 0 m 660 -417 l 302 -417 l 302 -119 l 660 -119 l 660 -417"},"Ʋ":{"x_min":23,"x_max":887,"ha":911,"o":"m 717 0 l 239 0 l 23 1749 l 357 1749 l 485 560 l 564 1367 q 565 1373 565 1379 q 565 1385 565 1390 l 565 1390 q 565 1461 501 1461 l 501 1461 l 501 1762 q 697 1762 792 1683 q 887 1603 887 1421 l 887 1421 q 887 1372 879 1306 l 879 1306 l 717 0"},"Ṽ":{"x_min":23,"x_max":937,"ha":961,"o":"m 720 0 l 240 0 l 23 1761 l 358 1761 l 487 563 l 602 1761 l 937 1761 l 720 0 m 646 1871 l 646 1871 q 569 1871 510 1894 q 451 1917 403 1940 q 354 1962 308 1962 l 308 1962 q 282 1962 259 1947 q 236 1932 216 1894 l 216 1894 l 68 1972 q 93 2033 123 2084 q 152 2134 198 2165 q 244 2195 315 2195 l 315 2195 q 389 2195 446 2174 q 503 2153 550 2132 q 596 2111 635 2111 l 635 2111 q 662 2111 685 2128 q 708 2145 728 2186 l 728 2186 l 894 2132 q 870 2065 841 2005 q 812 1945 767 1908 q 721 1871 646 1871"},"Ʌ":{"x_min":24,"x_max":938,"ha":961,"o":"m 241 1760 l 721 1760 l 938 -1 l 603 -1 l 474 1197 l 359 -1 l 24 -1 l 241 1760"},"W":{"x_min":27,"x_max":1431,"ha":1458,"o":"m 645 0 l 216 0 l 27 1760 l 371 1760 l 468 649 l 567 1760 l 895 1760 l 989 649 l 1083 1760 l 1431 1760 l 1239 0 l 817 0 l 729 847 l 645 0"},"Ẃ":{"x_min":27,"x_max":1431,"ha":1458,"o":"m 645 0 l 216 0 l 27 1760 l 371 1760 l 468 649 l 567 1760 l 895 1760 l 989 649 l 1083 1760 l 1431 1760 l 1239 0 l 817 0 l 729 847 l 645 0 m 980 1907 l 505 1813 l 505 2036 l 980 2254 l 980 1907"},"Ŵ":{"x_min":27,"x_max":1431,"ha":1458,"o":"m 645 0 l 216 0 l 27 1760 l 371 1760 l 468 649 l 567 1760 l 895 1760 l 989 649 l 1083 1760 l 1431 1760 l 1239 0 l 817 0 l 729 847 l 645 0 m 657 1851 l 298 1851 l 539 2254 l 947 2254 l 1188 1851 l 829 1851 l 743 2136 l 657 1851"},"Ẅ":{"x_min":27,"x_max":1431,"ha":1458,"o":"m 645 0 l 216 0 l 27 1760 l 371 1760 l 468 649 l 567 1760 l 895 1760 l 989 649 l 1083 1760 l 1431 1760 l 1239 0 l 817 0 l 729 847 l 645 0 m 1157 1859 l 799 1859 l 799 2157 l 1157 2157 l 1157 1859 m 673 1859 l 315 1859 l 315 2157 l 673 2157 l 673 1859"},"Ẇ":{"x_min":27,"x_max":1431,"ha":1458,"o":"m 645 0 l 216 0 l 27 1760 l 371 1760 l 468 649 l 567 1760 l 895 1760 l 989 649 l 1083 1760 l 1431 1760 l 1239 0 l 817 0 l 729 847 l 645 0 m 922 1852 l 564 1852 l 564 2150 l 922 2150 l 922 1852"},"Ẉ":{"x_min":27,"x_max":1431,"ha":1458,"o":"m 645 0 l 216 0 l 27 1760 l 371 1760 l 468 649 l 567 1760 l 895 1760 l 989 649 l 1083 1760 l 1431 1760 l 1239 0 l 817 0 l 729 847 l 645 0 m 908 -417 l 550 -417 l 550 -119 l 908 -119 l 908 -417"},"Ẁ":{"x_min":27,"x_max":1431,"ha":1458,"o":"m 645 0 l 216 0 l 27 1760 l 371 1760 l 468 649 l 567 1760 l 895 1760 l 989 649 l 1083 1760 l 1431 1760 l 1239 0 l 817 0 l 729 847 l 645 0 m 980 2036 l 980 1813 l 505 1907 l 505 2254 l 980 2036"},"Ⱳ":{"x_min":26,"x_max":1505,"ha":1495,"o":"m 646 0 l 215 0 l 26 1760 l 371 1760 l 469 647 l 568 1760 l 897 1760 l 992 647 l 1056 1417 q 1072 1604 1176 1690 q 1279 1775 1505 1775 l 1505 1775 l 1505 1471 q 1435 1471 1415 1434 q 1394 1396 1385 1315 l 1385 1315 l 1242 0 l 819 0 l 730 846 l 646 0"},"X":{"x_min":27,"x_max":965,"ha":991,"o":"m 384 0 l 27 0 l 216 933 l 66 1761 l 410 1761 l 501 1156 l 582 1761 l 927 1761 l 777 933 l 965 0 l 609 0 l 498 688 l 384 0"},"Ẍ":{"x_min":27,"x_max":965,"ha":991,"o":"m 384 0 l 27 0 l 216 933 l 66 1761 l 410 1761 l 501 1156 l 582 1761 l 927 1761 l 777 933 l 965 0 l 609 0 l 498 688 l 384 0 m 910 1859 l 552 1859 l 552 2157 l 910 2157 l 910 1859 m 426 1859 l 68 1859 l 68 2157 l 426 2157 l 426 1859"},"Ẋ":{"x_min":27,"x_max":965,"ha":991,"o":"m 384 0 l 27 0 l 216 933 l 66 1761 l 410 1761 l 501 1156 l 582 1761 l 927 1761 l 777 933 l 965 0 l 609 0 l 498 688 l 384 0 m 675 1852 l 317 1852 l 317 2150 l 675 2150 l 675 1852"},"Y":{"x_min":10,"x_max":903,"ha":914,"o":"m 623 0 l 291 0 l 291 579 l 10 1760 l 359 1760 l 457 1164 l 555 1760 l 903 1760 l 623 579 l 623 0"},"Ý":{"x_min":10,"x_max":903,"ha":914,"o":"m 623 0 l 291 0 l 291 579 l 10 1760 l 359 1760 l 457 1164 l 555 1760 l 903 1760 l 623 579 l 623 0 m 693 1907 l 218 1813 l 218 2036 l 693 2254 l 693 1907"},"Ŷ":{"x_min":10,"x_max":903,"ha":914,"o":"m 623 0 l 291 0 l 291 579 l 10 1760 l 359 1760 l 457 1164 l 555 1760 l 903 1760 l 623 579 l 623 0 m 370 1851 l 11 1851 l 252 2254 l 660 2254 l 901 1851 l 542 1851 l 456 2136 l 370 1851"},"Ÿ":{"x_min":10,"x_max":903,"ha":914,"o":"m 623 0 l 291 0 l 291 579 l 10 1760 l 359 1760 l 457 1164 l 555 1760 l 903 1760 l 623 579 l 623 0 m 870 1859 l 512 1859 l 512 2157 l 870 2157 l 870 1859 m 386 1859 l 28 1859 l 28 2157 l 386 2157 l 386 1859"},"Ẏ":{"x_min":10,"x_max":903,"ha":914,"o":"m 623 0 l 291 0 l 291 579 l 10 1760 l 359 1760 l 457 1164 l 555 1760 l 903 1760 l 623 579 l 623 0 m 635 1852 l 277 1852 l 277 2110 l 635 2110 l 635 1852"},"Ỵ":{"x_min":10,"x_max":903,"ha":914,"o":"m 623 0 l 291 0 l 291 579 l 10 1760 l 359 1760 l 457 1164 l 555 1760 l 903 1760 l 623 579 l 623 0 m 636 -417 l 278 -417 l 278 -119 l 636 -119 l 636 -417"},"Ỳ":{"x_min":10,"x_max":903,"ha":914,"o":"m 623 0 l 291 0 l 291 579 l 10 1760 l 359 1760 l 457 1164 l 555 1760 l 903 1760 l 623 579 l 623 0 m 693 2036 l 693 1813 l 218 1907 l 218 2254 l 693 2036"},"Ƴ":{"x_min":10,"x_max":944,"ha":934,"o":"m 623 0 l 289 0 l 289 589 l 10 1760 l 359 1760 l 457 1165 l 499 1420 q 520 1543 567 1622 q 614 1700 705 1737 q 795 1774 944 1774 l 944 1774 l 944 1473 q 875 1473 847 1436 q 818 1399 798 1319 l 798 1319 l 623 589 l 623 0"},"Ỷ":{"x_min":10,"x_max":903,"ha":914,"o":"m 623 0 l 291 0 l 291 579 l 10 1760 l 359 1760 l 457 1164 l 555 1760 l 903 1760 l 623 579 l 623 0 m 427 1837 l 427 1837 l 321 1961 q 375 1981 408 2011 q 441 2041 441 2091 l 441 2091 q 441 2186 340 2186 l 340 2186 q 293 2186 250 2170 l 250 2170 l 250 2350 q 338 2383 433 2383 l 433 2383 q 558 2383 629 2321 q 699 2258 699 2145 l 699 2145 q 699 2018 621 1946 q 543 1873 427 1837"},"Ȳ":{"x_min":10,"x_max":903,"ha":914,"o":"m 623 0 l 291 0 l 291 579 l 10 1760 l 359 1760 l 457 1164 l 555 1760 l 903 1760 l 623 579 l 623 0 m 782 1879 l 132 1879 l 132 2032 l 782 2032 l 782 1879"},"Ɏ":{"x_min":10,"x_max":903,"ha":913,"o":"m 623 0 l 291 0 l 291 579 l 170 1086 l 16 1086 l 16 1306 l 118 1306 l 10 1760 l 359 1760 l 457 1164 l 555 1760 l 903 1760 l 795 1306 l 897 1306 l 897 1086 l 743 1086 l 623 579 l 623 0"},"Ỹ":{"x_min":10,"x_max":903,"ha":914,"o":"m 623 0 l 291 0 l 291 579 l 10 1760 l 359 1760 l 457 1164 l 555 1760 l 903 1760 l 623 579 l 623 0 m 621 1871 l 621 1871 q 547 1871 486 1894 q 424 1917 374 1940 q 324 1962 283 1962 l 283 1962 q 257 1962 234 1947 q 211 1932 191 1894 l 191 1894 l 43 1972 q 68 2033 98 2084 q 127 2134 173 2165 q 219 2195 290 2195 l 290 2195 q 361 2195 419 2174 q 476 2153 524 2132 q 571 2111 610 2111 l 610 2111 q 637 2111 660 2128 q 683 2145 703 2186 l 703 2186 l 869 2132 q 845 2065 816 2005 q 787 1945 742 1908 q 696 1871 621 1871"},"Z":{"x_min":32,"x_max":806,"ha":840,"o":"m 789 0 l 32 0 l 32 320 l 435 1436 l 71 1436 l 71 1760 l 806 1760 l 806 1452 l 396 324 l 789 324 l 789 0"},"Ź":{"x_min":32,"x_max":806,"ha":840,"o":"m 789 0 l 32 0 l 32 320 l 435 1436 l 71 1436 l 71 1760 l 806 1760 l 806 1452 l 396 324 l 789 324 l 789 0 m 676 1907 l 201 1813 l 201 2036 l 676 2254 l 676 1907"},"Ž":{"x_min":-6,"x_max":884,"ha":840,"o":"m 789 0 l 32 0 l 32 320 l 435 1436 l 71 1436 l 71 1760 l 806 1760 l 806 1452 l 396 324 l 789 324 l 789 0 m 643 1851 l 235 1851 l -6 2254 l 353 2254 l 439 1969 l 525 2254 l 884 2254 l 643 1851"},"Ẑ":{"x_min":-6,"x_max":884,"ha":840,"o":"m 789 0 l 32 0 l 32 320 l 435 1436 l 71 1436 l 71 1760 l 806 1760 l 806 1452 l 396 324 l 789 324 l 789 0 m 353 1851 l -6 1851 l 235 2254 l 643 2254 l 884 1851 l 525 1851 l 439 2136 l 353 1851"},"Ż":{"x_min":32,"x_max":806,"ha":840,"o":"m 789 0 l 32 0 l 32 320 l 435 1436 l 71 1436 l 71 1760 l 806 1760 l 806 1452 l 396 324 l 789 324 l 789 0 m 618 1852 l 260 1852 l 260 2150 l 618 2150 l 618 1852"},"Ẓ":{"x_min":32,"x_max":806,"ha":840,"o":"m 789 0 l 32 0 l 32 320 l 435 1436 l 71 1436 l 71 1760 l 806 1760 l 806 1452 l 396 324 l 789 324 l 789 0 m 599 -417 l 241 -417 l 241 -119 l 599 -119 l 599 -417"},"Ẕ":{"x_min":32,"x_max":806,"ha":840,"o":"m 789 0 l 32 0 l 32 320 l 435 1436 l 71 1436 l 71 1760 l 806 1760 l 806 1452 l 396 324 l 789 324 l 789 0 m 745 -272 l 95 -272 l 95 -119 l 745 -119 l 745 -272"},"Ƶ":{"x_min":32,"x_max":806,"ha":840,"o":"m 789 0 l 32 0 l 32 320 l 199 782 l 95 782 l 95 1014 l 283 1014 l 435 1436 l 71 1436 l 71 1760 l 806 1760 l 806 1452 l 647 1014 l 755 1014 l 755 782 l 562 782 l 396 324 l 789 324 l 789 0"},"a":{"x_min":41,"x_max":924,"ha":990,"o":"m 345 -16 l 345 -16 q 220 -16 155 42 q 89 100 65 201 q 41 302 41 430 l 41 430 q 41 567 68 655 q 95 742 161 798 q 226 854 341 893 l 341 893 l 563 969 l 563 1123 q 563 1244 484 1244 l 484 1244 q 412 1244 412 1146 l 412 1146 l 412 1056 l 64 1056 q 63 1064 63 1077 q 63 1089 63 1105 l 63 1105 q 63 1329 169 1423 q 274 1516 503 1516 l 503 1516 q 623 1516 718 1474 q 813 1431 869 1348 q 924 1265 924 1143 l 924 1143 l 924 0 l 568 0 l 568 178 q 542 84 482 34 q 422 -16 345 -16 m 486 262 l 486 262 q 530 262 546 299 q 562 336 562 379 l 562 379 l 562 797 q 488 767 447 722 q 406 676 406 588 l 406 588 l 406 395 q 406 262 486 262"},"á":{"x_min":41,"x_max":924,"ha":990,"o":"m 345 -16 l 345 -16 q 220 -16 155 42 q 89 100 65 201 q 41 302 41 430 l 41 430 q 41 567 68 655 q 95 742 161 798 q 226 854 341 893 l 341 893 l 563 969 l 563 1123 q 563 1244 484 1244 l 484 1244 q 412 1244 412 1146 l 412 1146 l 412 1056 l 64 1056 q 63 1064 63 1077 q 63 1089 63 1105 l 63 1105 q 63 1329 169 1423 q 274 1516 503 1516 l 503 1516 q 623 1516 718 1474 q 813 1431 869 1348 q 924 1265 924 1143 l 924 1143 l 924 0 l 568 0 l 568 178 q 542 84 482 34 q 422 -16 345 -16 m 486 262 l 486 262 q 530 262 546 299 q 562 336 562 379 l 562 379 l 562 797 q 488 767 447 722 q 406 676 406 588 l 406 588 l 406 395 q 406 262 486 262 m 740 1663 l 265 1569 l 265 1792 l 740 2010 l 740 1663"},"ă":{"x_min":41,"x_max":924,"ha":990,"o":"m 345 -16 l 345 -16 q 220 -16 155 42 q 89 100 65 201 q 41 302 41 430 l 41 430 q 41 567 68 655 q 95 742 161 798 q 226 854 341 893 l 341 893 l 563 969 l 563 1123 q 563 1244 484 1244 l 484 1244 q 412 1244 412 1146 l 412 1146 l 412 1056 l 64 1056 q 63 1064 63 1077 q 63 1089 63 1105 l 63 1105 q 63 1329 169 1423 q 274 1516 503 1516 l 503 1516 q 623 1516 718 1474 q 813 1431 869 1348 q 924 1265 924 1143 l 924 1143 l 924 0 l 568 0 l 568 178 q 542 84 482 34 q 422 -16 345 -16 m 486 262 l 486 262 q 530 262 546 299 q 562 336 562 379 l 562 379 l 562 797 q 488 767 447 722 q 406 676 406 588 l 406 588 l 406 395 q 406 262 486 262 m 506 1608 l 506 1608 q 331 1608 223 1682 q 114 1756 114 1919 l 114 1919 q 114 1940 117 1961 l 117 1961 l 373 1961 q 373 1904 402 1875 q 431 1845 508 1845 l 508 1845 q 585 1845 614 1875 q 643 1904 643 1961 l 643 1961 l 899 1961 q 900 1951 901 1941 q 901 1931 901 1926 l 901 1926 q 901 1759 794 1684 q 686 1608 506 1608"},"ắ":{"x_min":41,"x_max":924,"ha":990,"o":"m 345 -16 l 345 -16 q 220 -16 155 42 q 89 100 65 201 q 41 302 41 430 l 41 430 q 41 567 68 655 q 95 742 161 798 q 226 854 341 893 l 341 893 l 563 969 l 563 1123 q 563 1244 484 1244 l 484 1244 q 412 1244 412 1146 l 412 1146 l 412 1056 l 64 1056 q 63 1064 63 1077 q 63 1089 63 1105 l 63 1105 q 63 1329 169 1423 q 274 1516 503 1516 l 503 1516 q 623 1516 718 1474 q 813 1431 869 1348 q 924 1265 924 1143 l 924 1143 l 924 0 l 568 0 l 568 178 q 542 84 482 34 q 422 -16 345 -16 m 486 262 l 486 262 q 530 262 546 299 q 562 336 562 379 l 562 379 l 562 797 q 488 767 447 722 q 406 676 406 588 l 406 588 l 406 395 q 406 262 486 262 m 502 1592 l 502 1592 q 327 1592 219 1659 q 110 1726 110 1873 l 110 1873 q 110 1894 113 1915 l 113 1915 l 369 1915 q 369 1853 398 1821 q 427 1789 504 1789 l 504 1789 q 581 1789 610 1821 q 639 1853 639 1915 l 639 1915 l 895 1915 q 897 1891 897 1880 l 897 1880 q 897 1729 790 1661 q 682 1592 502 1592 m 742 2025 l 267 1951 l 267 2144 l 742 2312 l 742 2025"},"ặ":{"x_min":41,"x_max":924,"ha":990,"o":"m 345 -16 l 345 -16 q 220 -16 155 42 q 89 100 65 201 q 41 302 41 430 l 41 430 q 41 567 68 655 q 95 742 161 798 q 226 854 341 893 l 341 893 l 563 969 l 563 1123 q 563 1244 484 1244 l 484 1244 q 412 1244 412 1146 l 412 1146 l 412 1056 l 64 1056 q 63 1064 63 1077 q 63 1089 63 1105 l 63 1105 q 63 1329 169 1423 q 274 1516 503 1516 l 503 1516 q 623 1516 718 1474 q 813 1431 869 1348 q 924 1265 924 1143 l 924 1143 l 924 0 l 568 0 l 568 178 q 542 84 482 34 q 422 -16 345 -16 m 486 262 l 486 262 q 530 262 546 299 q 562 336 562 379 l 562 379 l 562 797 q 488 767 447 722 q 406 676 406 588 l 406 588 l 406 395 q 406 262 486 262 m 673 -417 l 315 -417 l 315 -119 l 673 -119 l 673 -417 m 506 1608 l 506 1608 q 331 1608 223 1682 q 114 1756 114 1919 l 114 1919 q 114 1940 117 1961 l 117 1961 l 373 1961 q 373 1904 402 1875 q 431 1845 508 1845 l 508 1845 q 585 1845 614 1875 q 643 1904 643 1961 l 643 1961 l 899 1961 q 900 1951 901 1941 q 901 1931 901 1926 l 901 1926 q 901 1759 794 1684 q 686 1608 506 1608"},"ằ":{"x_min":41,"x_max":924,"ha":990,"o":"m 345 -16 l 345 -16 q 220 -16 155 42 q 89 100 65 201 q 41 302 41 430 l 41 430 q 41 567 68 655 q 95 742 161 798 q 226 854 341 893 l 341 893 l 563 969 l 563 1123 q 563 1244 484 1244 l 484 1244 q 412 1244 412 1146 l 412 1146 l 412 1056 l 64 1056 q 63 1064 63 1077 q 63 1089 63 1105 l 63 1105 q 63 1329 169 1423 q 274 1516 503 1516 l 503 1516 q 623 1516 718 1474 q 813 1431 869 1348 q 924 1265 924 1143 l 924 1143 l 924 0 l 568 0 l 568 178 q 542 84 482 34 q 422 -16 345 -16 m 486 262 l 486 262 q 530 262 546 299 q 562 336 562 379 l 562 379 l 562 797 q 488 767 447 722 q 406 676 406 588 l 406 588 l 406 395 q 406 262 486 262 m 740 2126 l 740 1963 l 265 2027 l 265 2314 l 740 2126 m 503 1582 l 503 1582 q 327 1582 219 1649 q 110 1716 110 1863 l 110 1863 q 110 1884 113 1905 l 113 1905 l 369 1905 q 369 1843 398 1811 q 427 1779 503 1779 l 503 1779 q 580 1779 609 1811 q 637 1843 637 1905 l 637 1905 l 893 1905 q 894 1895 895 1885 q 895 1875 895 1870 l 895 1870 q 895 1719 789 1651 q 682 1582 503 1582"},"ẳ":{"x_min":41,"x_max":924,"ha":990,"o":"m 345 -16 l 345 -16 q 220 -16 155 42 q 89 100 65 201 q 41 302 41 430 l 41 430 q 41 567 68 655 q 95 742 161 798 q 226 854 341 893 l 341 893 l 563 969 l 563 1123 q 563 1244 484 1244 l 484 1244 q 412 1244 412 1146 l 412 1146 l 412 1056 l 64 1056 q 63 1064 63 1077 q 63 1089 63 1105 l 63 1105 q 63 1329 169 1423 q 274 1516 503 1516 l 503 1516 q 623 1516 718 1474 q 813 1431 869 1348 q 924 1265 924 1143 l 924 1143 l 924 0 l 568 0 l 568 178 q 542 84 482 34 q 422 -16 345 -16 m 486 262 l 486 262 q 530 262 546 299 q 562 336 562 379 l 562 379 l 562 797 q 488 767 447 722 q 406 676 406 588 l 406 588 l 406 395 q 406 262 486 262 m 472 1913 l 472 1913 l 366 2037 q 420 2057 453 2087 q 486 2117 486 2167 l 486 2167 q 486 2262 385 2262 l 385 2262 q 338 2262 295 2246 l 295 2246 l 295 2426 q 383 2459 478 2459 l 478 2459 q 603 2459 674 2397 q 744 2334 744 2221 l 744 2221 q 744 2094 666 2022 q 588 1949 472 1913 m 503 1582 l 503 1582 q 327 1582 219 1649 q 110 1716 110 1863 l 110 1863 q 110 1884 113 1905 l 113 1905 l 369 1905 q 369 1843 398 1811 q 427 1779 503 1779 l 503 1779 q 580 1779 609 1811 q 637 1843 637 1905 l 637 1905 l 893 1905 q 894 1895 895 1885 q 895 1875 895 1870 l 895 1870 q 895 1719 789 1651 q 682 1582 503 1582"},"ẵ":{"x_min":41,"x_max":924,"ha":990,"o":"m 345 -16 l 345 -16 q 220 -16 155 42 q 89 100 65 201 q 41 302 41 430 l 41 430 q 41 567 68 655 q 95 742 161 798 q 226 854 341 893 l 341 893 l 563 969 l 563 1123 q 563 1244 484 1244 l 484 1244 q 412 1244 412 1146 l 412 1146 l 412 1056 l 64 1056 q 63 1064 63 1077 q 63 1089 63 1105 l 63 1105 q 63 1329 169 1423 q 274 1516 503 1516 l 503 1516 q 623 1516 718 1474 q 813 1431 869 1348 q 924 1265 924 1143 l 924 1143 l 924 0 l 568 0 l 568 178 q 542 84 482 34 q 422 -16 345 -16 m 486 262 l 486 262 q 530 262 546 299 q 562 336 562 379 l 562 379 l 562 797 q 488 767 447 722 q 406 676 406 588 l 406 588 l 406 395 q 406 262 486 262 m 668 1969 l 668 1969 q 608 1969 556 1992 q 503 2015 453 2038 q 403 2060 350 2060 l 350 2060 q 318 2060 290 2045 q 262 2030 238 1992 l 238 1992 l 90 2070 q 125 2156 173 2218 q 220 2280 320 2280 l 320 2280 q 382 2280 435 2258 q 487 2235 536 2212 q 585 2189 638 2189 l 638 2189 q 676 2189 701 2206 q 725 2223 750 2264 l 750 2264 l 916 2210 q 892 2148 863 2093 q 834 2037 789 2003 q 743 1969 668 1969 m 503 1582 l 503 1582 q 327 1582 219 1649 q 110 1716 110 1863 l 110 1863 q 110 1884 113 1905 l 113 1905 l 369 1905 q 369 1843 398 1811 q 427 1779 503 1779 l 503 1779 q 580 1779 609 1811 q 637 1843 637 1905 l 637 1905 l 893 1905 q 894 1895 895 1885 q 895 1875 895 1870 l 895 1870 q 895 1719 789 1651 q 682 1582 503 1582"},"ǎ":{"x_min":41,"x_max":948,"ha":990,"o":"m 345 -16 l 345 -16 q 220 -16 155 42 q 89 100 65 201 q 41 302 41 430 l 41 430 q 41 567 68 655 q 95 742 161 798 q 226 854 341 893 l 341 893 l 563 969 l 563 1123 q 563 1244 484 1244 l 484 1244 q 412 1244 412 1146 l 412 1146 l 412 1056 l 64 1056 q 63 1064 63 1077 q 63 1089 63 1105 l 63 1105 q 63 1329 169 1423 q 274 1516 503 1516 l 503 1516 q 623 1516 718 1474 q 813 1431 869 1348 q 924 1265 924 1143 l 924 1143 l 924 0 l 568 0 l 568 178 q 542 84 482 34 q 422 -16 345 -16 m 486 262 l 486 262 q 530 262 546 299 q 562 336 562 379 l 562 379 l 562 797 q 488 767 447 722 q 406 676 406 588 l 406 588 l 406 395 q 406 262 486 262 m 707 1607 l 299 1607 l 58 2010 l 417 2010 l 503 1725 l 589 2010 l 948 2010 l 707 1607"},"â":{"x_min":41,"x_max":948,"ha":990,"o":"m 345 -16 l 345 -16 q 220 -16 155 42 q 89 100 65 201 q 41 302 41 430 l 41 430 q 41 567 68 655 q 95 742 161 798 q 226 854 341 893 l 341 893 l 563 969 l 563 1123 q 563 1244 484 1244 l 484 1244 q 412 1244 412 1146 l 412 1146 l 412 1056 l 64 1056 q 63 1064 63 1077 q 63 1089 63 1105 l 63 1105 q 63 1329 169 1423 q 274 1516 503 1516 l 503 1516 q 623 1516 718 1474 q 813 1431 869 1348 q 924 1265 924 1143 l 924 1143 l 924 0 l 568 0 l 568 178 q 542 84 482 34 q 422 -16 345 -16 m 486 262 l 486 262 q 530 262 546 299 q 562 336 562 379 l 562 379 l 562 797 q 488 767 447 722 q 406 676 406 588 l 406 588 l 406 395 q 406 262 486 262 m 417 1607 l 58 1607 l 299 2010 l 707 2010 l 948 1607 l 589 1607 l 503 1892 l 417 1607"},"ấ":{"x_min":41,"x_max":1288,"ha":990,"o":"m 345 -16 l 345 -16 q 220 -16 155 42 q 89 100 65 201 q 41 302 41 430 l 41 430 q 41 567 68 655 q 95 742 161 798 q 226 854 341 893 l 341 893 l 563 969 l 563 1123 q 563 1244 484 1244 l 484 1244 q 412 1244 412 1146 l 412 1146 l 412 1056 l 64 1056 q 63 1064 63 1077 q 63 1089 63 1105 l 63 1105 q 63 1329 169 1423 q 274 1516 503 1516 l 503 1516 q 623 1516 718 1474 q 813 1431 869 1348 q 924 1265 924 1143 l 924 1143 l 924 0 l 568 0 l 568 178 q 542 84 482 34 q 422 -16 345 -16 m 486 262 l 486 262 q 530 262 546 299 q 562 336 562 379 l 562 379 l 562 797 q 488 767 447 722 q 406 676 406 588 l 406 588 l 406 395 q 406 262 486 262 m 1050 1832 l 817 1832 l 981 2127 l 1288 2127 l 1050 1832 m 413 1591 l 58 1591 l 299 1894 l 707 1894 l 948 1591 l 593 1591 l 503 1786 l 413 1591"},"ậ":{"x_min":41,"x_max":948,"ha":990,"o":"m 345 -16 l 345 -16 q 220 -16 155 42 q 89 100 65 201 q 41 302 41 430 l 41 430 q 41 567 68 655 q 95 742 161 798 q 226 854 341 893 l 341 893 l 563 969 l 563 1123 q 563 1244 484 1244 l 484 1244 q 412 1244 412 1146 l 412 1146 l 412 1056 l 64 1056 q 63 1064 63 1077 q 63 1089 63 1105 l 63 1105 q 63 1329 169 1423 q 274 1516 503 1516 l 503 1516 q 623 1516 718 1474 q 813 1431 869 1348 q 924 1265 924 1143 l 924 1143 l 924 0 l 568 0 l 568 178 q 542 84 482 34 q 422 -16 345 -16 m 486 262 l 486 262 q 530 262 546 299 q 562 336 562 379 l 562 379 l 562 797 q 488 767 447 722 q 406 676 406 588 l 406 588 l 406 395 q 406 262 486 262 m 417 1607 l 58 1607 l 299 2010 l 707 2010 l 948 1607 l 589 1607 l 503 1892 l 417 1607 m 673 -417 l 315 -417 l 315 -119 l 673 -119 l 673 -417"},"ầ":{"x_min":41,"x_max":1108,"ha":990,"o":"m 345 -16 l 345 -16 q 220 -16 155 42 q 89 100 65 201 q 41 302 41 430 l 41 430 q 41 567 68 655 q 95 742 161 798 q 226 854 341 893 l 341 893 l 563 969 l 563 1123 q 563 1244 484 1244 l 484 1244 q 412 1244 412 1146 l 412 1146 l 412 1056 l 64 1056 q 63 1064 63 1077 q 63 1089 63 1105 l 63 1105 q 63 1329 169 1423 q 274 1516 503 1516 l 503 1516 q 623 1516 718 1474 q 813 1431 869 1348 q 924 1265 924 1143 l 924 1143 l 924 0 l 568 0 l 568 178 q 542 84 482 34 q 422 -16 345 -16 m 486 262 l 486 262 q 530 262 546 299 q 562 336 562 379 l 562 379 l 562 797 q 488 767 447 722 q 406 676 406 588 l 406 588 l 406 395 q 406 262 486 262 m 1108 1832 l 875 1832 l 637 2127 l 944 2127 l 1108 1832 m 413 1591 l 58 1591 l 299 1894 l 707 1894 l 948 1591 l 593 1591 l 503 1786 l 413 1591"},"ẩ":{"x_min":41,"x_max":1136,"ha":990,"o":"m 345 -16 l 345 -16 q 220 -16 155 42 q 89 100 65 201 q 41 302 41 430 l 41 430 q 41 567 68 655 q 95 742 161 798 q 226 854 341 893 l 341 893 l 563 969 l 563 1123 q 563 1244 484 1244 l 484 1244 q 412 1244 412 1146 l 412 1146 l 412 1056 l 64 1056 q 63 1064 63 1077 q 63 1089 63 1105 l 63 1105 q 63 1329 169 1423 q 274 1516 503 1516 l 503 1516 q 623 1516 718 1474 q 813 1431 869 1348 q 924 1265 924 1143 l 924 1143 l 924 0 l 568 0 l 568 178 q 542 84 482 34 q 422 -16 345 -16 m 486 262 l 486 262 q 530 262 546 299 q 562 336 562 379 l 562 379 l 562 797 q 488 767 447 722 q 406 676 406 588 l 406 588 l 406 395 q 406 262 486 262 m 864 1797 l 864 1797 l 758 1921 q 812 1941 845 1971 q 878 2001 878 2051 l 878 2051 q 878 2146 777 2146 l 777 2146 q 730 2146 687 2130 l 687 2130 l 687 2310 q 775 2343 870 2343 l 870 2343 q 995 2343 1066 2281 q 1136 2218 1136 2105 l 1136 2105 q 1136 1978 1058 1906 q 980 1833 864 1797 m 413 1591 l 108 1591 l 329 1904 l 677 1904 l 898 1591 l 593 1591 l 503 1786 l 413 1591"},"ẫ":{"x_min":41,"x_max":948,"ha":990,"o":"m 345 -16 l 345 -16 q 220 -16 155 42 q 89 100 65 201 q 41 302 41 430 l 41 430 q 41 567 68 655 q 95 742 161 798 q 226 854 341 893 l 341 893 l 563 969 l 563 1123 q 563 1244 484 1244 l 484 1244 q 412 1244 412 1146 l 412 1146 l 412 1056 l 64 1056 q 63 1064 63 1077 q 63 1089 63 1105 l 63 1105 q 63 1329 169 1423 q 274 1516 503 1516 l 503 1516 q 623 1516 718 1474 q 813 1431 869 1348 q 924 1265 924 1143 l 924 1143 l 924 0 l 568 0 l 568 178 q 542 84 482 34 q 422 -16 345 -16 m 486 262 l 486 262 q 530 262 546 299 q 562 336 562 379 l 562 379 l 562 797 q 488 767 447 722 q 406 676 406 588 l 406 588 l 406 395 q 406 262 486 262 m 668 1969 l 668 1969 q 608 1969 556 1992 q 503 2015 453 2038 q 403 2060 350 2060 l 350 2060 q 318 2060 290 2045 q 262 2030 238 1992 l 238 1992 l 90 2070 q 125 2156 173 2218 q 220 2280 320 2280 l 320 2280 q 382 2280 435 2258 q 487 2235 536 2212 q 585 2189 638 2189 l 638 2189 q 676 2189 701 2206 q 725 2223 750 2264 l 750 2264 l 916 2210 q 892 2148 863 2093 q 834 2037 789 2003 q 743 1969 668 1969 m 413 1591 l 58 1591 l 299 1894 l 707 1894 l 948 1591 l 593 1591 l 503 1786 l 413 1591"},"´":{"x_min":91,"x_max":566,"ha":650,"o":"m 566 1647 l 91 1553 l 91 1776 l 566 1994 l 566 1647"},"́":{"x_min":-238,"x_max":237,"ha":0,"o":"m 237 1647 l -238 1553 l -238 1776 l 237 1994 l 237 1647"},"᷇":{"x_min":-326,"x_max":324,"ha":0,"o":"m 324 2022 l -326 2022 l -326 2175 l 324 2175 l 324 2022 m 237 1647 l -238 1553 l -238 1776 l 237 1994 l 237 1647"},"ȁ":{"x_min":17,"x_max":924,"ha":990,"o":"m 345 -16 l 345 -16 q 220 -16 155 42 q 89 100 65 201 q 41 302 41 430 l 41 430 q 41 567 68 655 q 95 742 161 798 q 226 854 341 893 l 341 893 l 563 969 l 563 1123 q 563 1244 484 1244 l 484 1244 q 412 1244 412 1146 l 412 1146 l 412 1056 l 64 1056 q 63 1064 63 1077 q 63 1089 63 1105 l 63 1105 q 63 1329 169 1423 q 274 1516 503 1516 l 503 1516 q 623 1516 718 1474 q 813 1431 869 1348 q 924 1265 924 1143 l 924 1143 l 924 0 l 568 0 l 568 178 q 542 84 482 34 q 422 -16 345 -16 m 486 262 l 486 262 q 530 262 546 299 q 562 336 562 379 l 562 379 l 562 797 q 488 767 447 722 q 406 676 406 588 l 406 588 l 406 395 q 406 262 486 262 m 472 1660 l 306 1602 l 17 2031 l 251 2139 l 472 1660 m 774 1660 l 608 1602 l 360 2031 l 590 2139 l 774 1660"},"ä":{"x_min":41,"x_max":924,"ha":990,"o":"m 345 -16 l 345 -16 q 220 -16 155 42 q 89 100 65 201 q 41 302 41 430 l 41 430 q 41 567 68 655 q 95 742 161 798 q 226 854 341 893 l 341 893 l 563 969 l 563 1123 q 563 1244 484 1244 l 484 1244 q 412 1244 412 1146 l 412 1146 l 412 1056 l 64 1056 q 63 1064 63 1077 q 63 1089 63 1105 l 63 1105 q 63 1329 169 1423 q 274 1516 503 1516 l 503 1516 q 623 1516 718 1474 q 813 1431 869 1348 q 924 1265 924 1143 l 924 1143 l 924 0 l 568 0 l 568 178 q 542 84 482 34 q 422 -16 345 -16 m 486 262 l 486 262 q 530 262 546 299 q 562 336 562 379 l 562 379 l 562 797 q 488 767 447 722 q 406 676 406 588 l 406 588 l 406 395 q 406 262 486 262 m 917 1615 l 559 1615 l 559 1913 l 917 1913 l 917 1615 m 433 1615 l 75 1615 l 75 1913 l 433 1913 l 433 1615"},"ǟ":{"x_min":41,"x_max":924,"ha":990,"o":"m 345 -16 l 345 -16 q 220 -16 155 42 q 89 100 65 201 q 41 302 41 430 l 41 430 q 41 567 68 655 q 95 742 161 798 q 226 854 341 893 l 341 893 l 563 969 l 563 1123 q 563 1244 484 1244 l 484 1244 q 412 1244 412 1146 l 412 1146 l 412 1056 l 64 1056 q 63 1064 63 1077 q 63 1089 63 1105 l 63 1105 q 63 1329 169 1423 q 274 1516 503 1516 l 503 1516 q 623 1516 718 1474 q 813 1431 869 1348 q 924 1265 924 1143 l 924 1143 l 924 0 l 568 0 l 568 178 q 542 84 482 34 q 422 -16 345 -16 m 486 262 l 486 262 q 530 262 546 299 q 562 336 562 379 l 562 379 l 562 797 q 488 767 447 722 q 406 676 406 588 l 406 588 l 406 395 q 406 262 486 262 m 924 1599 l 566 1599 l 566 1847 l 924 1847 l 924 1599 m 440 1599 l 82 1599 l 82 1847 l 440 1847 l 440 1599 m 828 1956 l 178 1956 l 178 2109 l 828 2109 l 828 1956"},"ȧ":{"x_min":41,"x_max":924,"ha":990,"o":"m 345 -16 l 345 -16 q 220 -16 155 42 q 89 100 65 201 q 41 302 41 430 l 41 430 q 41 567 68 655 q 95 742 161 798 q 226 854 341 893 l 341 893 l 563 969 l 563 1123 q 563 1244 484 1244 l 484 1244 q 412 1244 412 1146 l 412 1146 l 412 1056 l 64 1056 q 63 1064 63 1077 q 63 1089 63 1105 l 63 1105 q 63 1329 169 1423 q 274 1516 503 1516 l 503 1516 q 623 1516 718 1474 q 813 1431 869 1348 q 924 1265 924 1143 l 924 1143 l 924 0 l 568 0 l 568 178 q 542 84 482 34 q 422 -16 345 -16 m 486 262 l 486 262 q 530 262 546 299 q 562 336 562 379 l 562 379 l 562 797 q 488 767 447 722 q 406 676 406 588 l 406 588 l 406 395 q 406 262 486 262 m 682 1608 l 324 1608 l 324 1906 l 682 1906 l 682 1608"},"ạ":{"x_min":41,"x_max":924,"ha":990,"o":"m 345 -16 l 345 -16 q 220 -16 155 42 q 89 100 65 201 q 41 302 41 430 l 41 430 q 41 567 68 655 q 95 742 161 798 q 226 854 341 893 l 341 893 l 563 969 l 563 1123 q 563 1244 484 1244 l 484 1244 q 412 1244 412 1146 l 412 1146 l 412 1056 l 64 1056 q 63 1064 63 1077 q 63 1089 63 1105 l 63 1105 q 63 1329 169 1423 q 274 1516 503 1516 l 503 1516 q 623 1516 718 1474 q 813 1431 869 1348 q 924 1265 924 1143 l 924 1143 l 924 0 l 568 0 l 568 178 q 542 84 482 34 q 422 -16 345 -16 m 486 262 l 486 262 q 530 262 546 299 q 562 336 562 379 l 562 379 l 562 797 q 488 767 447 722 q 406 676 406 588 l 406 588 l 406 395 q 406 262 486 262 m 673 -417 l 315 -417 l 315 -119 l 673 -119 l 673 -417"},"ǡ":{"x_min":41,"x_max":924,"ha":990,"o":"m 345 -16 l 345 -16 q 220 -16 155 42 q 89 100 65 201 q 41 302 41 430 l 41 430 q 41 567 68 655 q 95 742 161 798 q 226 854 341 893 l 341 893 l 563 969 l 563 1123 q 563 1244 484 1244 l 484 1244 q 412 1244 412 1146 l 412 1146 l 412 1056 l 64 1056 q 63 1064 63 1077 q 63 1089 63 1105 l 63 1105 q 63 1329 169 1423 q 274 1516 503 1516 l 503 1516 q 623 1516 718 1474 q 813 1431 869 1348 q 924 1265 924 1143 l 924 1143 l 924 0 l 568 0 l 568 178 q 542 84 482 34 q 422 -16 345 -16 m 486 262 l 486 262 q 530 262 546 299 q 562 336 562 379 l 562 379 l 562 797 q 488 767 447 722 q 406 676 406 588 l 406 588 l 406 395 q 406 262 486 262 m 682 1592 l 324 1592 l 324 1850 l 682 1850 l 682 1592 m 828 1938 l 178 1938 l 178 2091 l 828 2091 l 828 1938"},"æ":{"x_min":38,"x_max":1446,"ha":1497,"o":"m 449 -18 l 449 -18 q 249 -18 144 103 q 38 223 38 430 l 38 430 q 38 595 77 688 q 116 780 193 831 q 269 881 380 919 l 380 919 l 560 980 l 560 1083 q 560 1165 542 1202 q 524 1239 483 1239 l 483 1239 q 409 1239 409 1157 l 409 1157 l 409 1056 l 61 1056 q 60 1064 60 1077 q 60 1089 60 1105 l 60 1105 q 60 1329 159 1424 q 257 1518 441 1518 l 441 1518 q 568 1518 637 1488 q 706 1457 747 1396 l 747 1396 q 787 1457 858 1488 q 928 1518 1044 1518 l 1044 1518 q 1238 1518 1342 1412 q 1446 1305 1446 1092 l 1446 1092 l 1446 983 q 1446 882 1445 812 q 1444 742 1442 704 l 1442 704 l 921 704 l 921 494 q 921 370 942 315 q 963 260 1012 260 l 1012 260 q 1056 260 1073 301 q 1090 342 1090 453 l 1090 453 l 1090 579 l 1446 579 l 1446 494 q 1446 333 1411 219 q 1375 104 1286 43 q 1197 -18 1036 -18 l 1036 -18 q 931 -18 855 30 q 779 77 748 148 l 748 148 q 714 75 638 29 q 561 -18 449 -18 m 921 1052 l 921 931 l 1090 931 l 1090 1087 q 1090 1249 1010 1249 l 1010 1249 q 943 1249 932 1194 q 921 1138 921 1052 l 921 1052 m 483 262 l 483 262 q 527 262 543 299 q 559 336 559 379 l 559 379 l 559 774 q 485 744 444 701 q 403 658 403 570 l 403 570 l 403 395 q 403 262 483 262"},"ǽ":{"x_min":38,"x_max":1446,"ha":1497,"o":"m 449 -18 l 449 -18 q 249 -18 144 103 q 38 223 38 430 l 38 430 q 38 595 77 688 q 116 780 193 831 q 269 881 380 919 l 380 919 l 560 980 l 560 1083 q 560 1165 542 1202 q 524 1239 483 1239 l 483 1239 q 409 1239 409 1157 l 409 1157 l 409 1056 l 61 1056 q 60 1064 60 1077 q 60 1089 60 1105 l 60 1105 q 60 1329 159 1424 q 257 1518 441 1518 l 441 1518 q 568 1518 637 1488 q 706 1457 747 1396 l 747 1396 q 787 1457 858 1488 q 928 1518 1044 1518 l 1044 1518 q 1238 1518 1342 1412 q 1446 1305 1446 1092 l 1446 1092 l 1446 983 q 1446 882 1445 812 q 1444 742 1442 704 l 1442 704 l 921 704 l 921 494 q 921 370 942 315 q 963 260 1012 260 l 1012 260 q 1056 260 1073 301 q 1090 342 1090 453 l 1090 453 l 1090 579 l 1446 579 l 1446 494 q 1446 333 1411 219 q 1375 104 1286 43 q 1197 -18 1036 -18 l 1036 -18 q 931 -18 855 30 q 779 77 748 148 l 748 148 q 714 75 638 29 q 561 -18 449 -18 m 921 1052 l 921 931 l 1090 931 l 1090 1087 q 1090 1249 1010 1249 l 1010 1249 q 943 1249 932 1194 q 921 1138 921 1052 l 921 1052 m 483 262 l 483 262 q 527 262 543 299 q 559 336 559 379 l 559 379 l 559 774 q 485 744 444 701 q 403 658 403 570 l 403 570 l 403 395 q 403 262 483 262 m 986 1647 l 511 1553 l 511 1776 l 986 1994 l 986 1647"},"ǣ":{"x_min":38,"x_max":1446,"ha":1497,"o":"m 449 -18 l 449 -18 q 249 -18 144 103 q 38 223 38 430 l 38 430 q 38 595 77 688 q 116 780 193 831 q 269 881 380 919 l 380 919 l 560 980 l 560 1083 q 560 1165 542 1202 q 524 1239 483 1239 l 483 1239 q 409 1239 409 1157 l 409 1157 l 409 1056 l 61 1056 q 60 1064 60 1077 q 60 1089 60 1105 l 60 1105 q 60 1329 159 1424 q 257 1518 441 1518 l 441 1518 q 568 1518 637 1488 q 706 1457 747 1396 l 747 1396 q 787 1457 858 1488 q 928 1518 1044 1518 l 1044 1518 q 1238 1518 1342 1412 q 1446 1305 1446 1092 l 1446 1092 l 1446 983 q 1446 882 1445 812 q 1444 742 1442 704 l 1442 704 l 921 704 l 921 494 q 921 370 942 315 q 963 260 1012 260 l 1012 260 q 1056 260 1073 301 q 1090 342 1090 453 l 1090 453 l 1090 579 l 1446 579 l 1446 494 q 1446 333 1411 219 q 1375 104 1286 43 q 1197 -18 1036 -18 l 1036 -18 q 931 -18 855 30 q 779 77 748 148 l 748 148 q 714 75 638 29 q 561 -18 449 -18 m 921 1052 l 921 931 l 1090 931 l 1090 1087 q 1090 1249 1010 1249 l 1010 1249 q 943 1249 932 1194 q 921 1138 921 1052 l 921 1052 m 483 262 l 483 262 q 527 262 543 299 q 559 336 559 379 l 559 379 l 559 774 q 485 744 444 701 q 403 658 403 570 l 403 570 l 403 395 q 403 262 483 262 m 1073 1619 l 423 1619 l 423 1772 l 1073 1772 l 1073 1619"},"à":{"x_min":41,"x_max":924,"ha":990,"o":"m 345 -16 l 345 -16 q 220 -16 155 42 q 89 100 65 201 q 41 302 41 430 l 41 430 q 41 567 68 655 q 95 742 161 798 q 226 854 341 893 l 341 893 l 563 969 l 563 1123 q 563 1244 484 1244 l 484 1244 q 412 1244 412 1146 l 412 1146 l 412 1056 l 64 1056 q 63 1064 63 1077 q 63 1089 63 1105 l 63 1105 q 63 1329 169 1423 q 274 1516 503 1516 l 503 1516 q 623 1516 718 1474 q 813 1431 869 1348 q 924 1265 924 1143 l 924 1143 l 924 0 l 568 0 l 568 178 q 542 84 482 34 q 422 -16 345 -16 m 486 262 l 486 262 q 530 262 546 299 q 562 336 562 379 l 562 379 l 562 797 q 488 767 447 722 q 406 676 406 588 l 406 588 l 406 395 q 406 262 486 262 m 740 1792 l 740 1569 l 265 1663 l 265 2010 l 740 1792"},"ả":{"x_min":41,"x_max":924,"ha":990,"o":"m 345 -16 l 345 -16 q 220 -16 155 42 q 89 100 65 201 q 41 302 41 430 l 41 430 q 41 567 68 655 q 95 742 161 798 q 226 854 341 893 l 341 893 l 563 969 l 563 1123 q 563 1244 484 1244 l 484 1244 q 412 1244 412 1146 l 412 1146 l 412 1056 l 64 1056 q 63 1064 63 1077 q 63 1089 63 1105 l 63 1105 q 63 1329 169 1423 q 274 1516 503 1516 l 503 1516 q 623 1516 718 1474 q 813 1431 869 1348 q 924 1265 924 1143 l 924 1143 l 924 0 l 568 0 l 568 178 q 542 84 482 34 q 422 -16 345 -16 m 486 262 l 486 262 q 530 262 546 299 q 562 336 562 379 l 562 379 l 562 797 q 488 767 447 722 q 406 676 406 588 l 406 588 l 406 395 q 406 262 486 262 m 474 1577 l 474 1577 l 368 1701 q 422 1721 455 1751 q 488 1781 488 1831 l 488 1831 q 488 1926 387 1926 l 387 1926 q 340 1926 297 1910 l 297 1910 l 297 2090 q 385 2123 480 2123 l 480 2123 q 605 2123 676 2061 q 746 1998 746 1885 l 746 1885 q 746 1758 668 1686 q 590 1613 474 1577"},"ȃ":{"x_min":41,"x_max":924,"ha":990,"o":"m 345 -16 l 345 -16 q 220 -16 155 42 q 89 100 65 201 q 41 302 41 430 l 41 430 q 41 567 68 655 q 95 742 161 798 q 226 854 341 893 l 341 893 l 563 969 l 563 1123 q 563 1244 484 1244 l 484 1244 q 412 1244 412 1146 l 412 1146 l 412 1056 l 64 1056 q 63 1064 63 1077 q 63 1089 63 1105 l 63 1105 q 63 1329 169 1423 q 274 1516 503 1516 l 503 1516 q 623 1516 718 1474 q 813 1431 869 1348 q 924 1265 924 1143 l 924 1143 l 924 0 l 568 0 l 568 178 q 542 84 482 34 q 422 -16 345 -16 m 486 262 l 486 262 q 530 262 546 299 q 562 336 562 379 l 562 379 l 562 797 q 488 767 447 722 q 406 676 406 588 l 406 588 l 406 395 q 406 262 486 262 m 368 1624 l 132 1624 q 129 1644 129 1665 l 129 1665 q 129 1828 228 1902 q 326 1976 501 1976 l 501 1976 q 681 1976 779 1901 q 876 1825 876 1658 l 876 1658 q 876 1653 876 1644 q 875 1634 874 1624 l 874 1624 l 638 1624 q 638 1692 600 1725 q 562 1758 503 1758 l 503 1758 q 445 1758 407 1725 q 368 1692 368 1624 l 368 1624"},"ɑ":{"x_min":60,"x_max":1028,"ha":1028,"o":"m 367 -16 l 367 -16 q 263 -16 202 22 q 140 60 110 127 q 79 194 70 284 q 60 374 60 477 l 60 477 l 60 1023 q 60 1127 70 1217 q 79 1306 110 1373 q 140 1440 202 1478 q 263 1516 367 1516 l 367 1516 q 461 1516 511 1469 q 560 1422 590 1341 l 590 1341 l 590 1500 l 948 1500 l 948 432 q 948 347 970 324 q 991 300 1028 300 l 1028 300 l 1028 -16 q 738 -16 618 144 l 618 144 q 586 79 529 32 q 472 -16 367 -16 m 504 264 l 504 264 q 551 264 571 311 q 590 358 590 452 l 590 452 l 590 1060 q 590 1152 569 1194 q 548 1236 504 1236 l 504 1236 q 461 1236 440 1194 q 418 1152 418 1058 l 418 1058 l 418 452 q 418 264 504 264"},"ā":{"x_min":41,"x_max":924,"ha":990,"o":"m 345 -16 l 345 -16 q 220 -16 155 42 q 89 100 65 201 q 41 302 41 430 l 41 430 q 41 567 68 655 q 95 742 161 798 q 226 854 341 893 l 341 893 l 563 969 l 563 1123 q 563 1244 484 1244 l 484 1244 q 412 1244 412 1146 l 412 1146 l 412 1056 l 64 1056 q 63 1064 63 1077 q 63 1089 63 1105 l 63 1105 q 63 1329 169 1423 q 274 1516 503 1516 l 503 1516 q 623 1516 718 1474 q 813 1431 869 1348 q 924 1265 924 1143 l 924 1143 l 924 0 l 568 0 l 568 178 q 542 84 482 34 q 422 -16 345 -16 m 486 262 l 486 262 q 530 262 546 299 q 562 336 562 379 l 562 379 l 562 797 q 488 767 447 722 q 406 676 406 588 l 406 588 l 406 395 q 406 262 486 262 m 824 1635 l 174 1635 l 174 1788 l 824 1788 l 824 1635"},"&":{"x_min":35,"x_max":1035,"ha":1065,"o":"m 386 -21 l 386 -21 q 222 -21 129 106 q 35 233 35 456 l 35 456 q 35 615 64 720 q 92 825 143 895 q 194 965 260 1017 l 260 1017 l 252 1037 q 210 1141 179 1236 q 147 1330 147 1430 l 147 1430 q 147 1531 190 1609 q 233 1687 310 1732 q 386 1776 485 1776 l 485 1776 q 583 1776 664 1734 q 744 1691 792 1606 q 840 1521 840 1391 l 840 1391 q 840 1250 788 1155 q 735 1060 630 972 l 630 972 l 726 730 q 785 879 896 961 l 896 961 l 1035 744 q 919 651 841 441 l 841 441 l 1017 0 l 677 0 l 638 95 q 599 47 534 13 q 468 -21 386 -21 m 461 1461 l 461 1461 q 461 1435 474 1385 q 487 1334 535 1210 l 535 1210 q 554 1230 569 1273 q 584 1316 584 1391 l 584 1391 q 584 1468 566 1499 q 547 1530 517 1530 l 517 1530 q 488 1530 475 1509 q 461 1487 461 1461 m 341 493 l 341 413 q 341 235 442 235 l 442 235 q 483 235 508 266 q 533 296 542 329 l 542 329 l 374 738 q 341 668 341 493 l 341 493"},"ą":{"x_min":41,"x_max":938,"ha":990,"o":"m 345 -16 l 345 -16 q 220 -16 155 42 q 89 100 65 201 q 41 302 41 430 l 41 430 q 41 567 68 655 q 95 742 161 798 q 226 854 341 893 l 341 893 l 563 969 l 563 1123 q 563 1244 484 1244 l 484 1244 q 412 1244 412 1146 l 412 1146 l 412 1056 l 64 1056 q 63 1064 63 1077 q 63 1089 63 1105 l 63 1105 q 63 1329 169 1423 q 274 1516 503 1516 l 503 1516 q 623 1516 718 1474 q 813 1431 869 1348 q 924 1265 924 1143 l 924 1143 l 924 0 l 568 0 l 568 178 q 542 84 482 34 q 422 -16 345 -16 m 486 262 l 486 262 q 530 262 546 299 q 562 336 562 379 l 562 379 l 562 797 q 488 767 447 722 q 406 676 406 588 l 406 588 l 406 395 q 406 262 486 262 m 740 -631 l 740 -631 q 645 -631 566 -595 q 487 -559 440 -491 q 392 -424 392 -330 l 392 -330 q 392 -148 656 0 l 656 0 l 867 0 q 799 -65 753 -130 q 707 -196 707 -279 l 707 -279 q 707 -391 822 -391 l 822 -391 q 871 -391 938 -368 l 938 -368 l 938 -591 q 843 -631 740 -631"},"ʼ":{"x_min":122,"x_max":496,"ha":600,"o":"m 394 966 l 183 966 l 249 1202 l 122 1202 l 122 1500 l 496 1500 l 496 1211 l 394 966"},"≈":{"x_min":50,"x_max":1004,"ha":1009,"o":"m 732 810 l 732 810 q 662 810 604 824 q 545 838 483 862 l 483 862 q 422 886 382 898 q 341 910 313 910 l 313 910 q 284 910 259 894 q 234 877 212 835 l 212 835 l 50 921 q 77 987 110 1043 q 143 1098 193 1131 q 242 1164 320 1164 l 320 1164 q 400 1164 454 1152 q 507 1139 574 1113 l 574 1113 q 633 1091 665 1082 q 696 1073 720 1073 l 720 1073 q 750 1073 775 1091 q 800 1109 822 1155 l 822 1155 l 1004 1095 q 977 1022 946 957 q 914 891 865 851 q 815 810 732 810 m 732 340 l 732 340 q 662 340 604 354 q 545 368 483 392 l 483 392 q 422 416 382 428 q 341 440 313 440 l 313 440 q 284 440 259 424 q 234 407 212 365 l 212 365 l 50 451 q 77 517 110 573 q 143 628 193 661 q 242 694 320 694 l 320 694 q 400 694 454 682 q 507 669 574 643 l 574 643 q 633 621 665 612 q 696 603 720 603 l 720 603 q 750 603 775 621 q 800 639 822 685 l 822 685 l 1004 625 q 977 552 946 487 q 914 421 865 381 q 815 340 732 340"},"å":{"x_min":41,"x_max":924,"ha":990,"o":"m 345 -16 l 345 -16 q 220 -16 155 42 q 89 100 65 201 q 41 302 41 430 l 41 430 q 41 567 68 655 q 95 742 161 798 q 226 854 341 893 l 341 893 l 563 969 l 563 1123 q 563 1244 484 1244 l 484 1244 q 412 1244 412 1146 l 412 1146 l 412 1056 l 64 1056 q 63 1064 63 1077 q 63 1089 63 1105 l 63 1105 q 63 1329 169 1423 q 274 1516 503 1516 l 503 1516 q 623 1516 718 1474 q 813 1431 869 1348 q 924 1265 924 1143 l 924 1143 l 924 0 l 568 0 l 568 178 q 542 84 482 34 q 422 -16 345 -16 m 486 262 l 486 262 q 530 262 546 299 q 562 336 562 379 l 562 379 l 562 797 q 488 767 447 722 q 406 676 406 588 l 406 588 l 406 395 q 406 262 486 262 m 502 1596 l 502 1596 q 342 1596 246 1686 q 149 1775 149 1934 l 149 1934 q 149 2092 246 2182 q 342 2272 502 2272 l 502 2272 q 663 2272 760 2182 q 856 2092 856 1934 l 856 1934 q 856 1776 760 1686 q 663 1596 502 1596 m 503 1777 l 503 1777 q 570 1777 608 1823 q 645 1869 645 1934 l 645 1934 q 645 1999 608 2045 q 570 2091 503 2091 l 503 2091 q 436 2091 399 2045 q 361 1999 361 1934 l 361 1934 q 361 1869 399 1823 q 436 1777 503 1777"},"ǻ":{"x_min":41,"x_max":924,"ha":990,"o":"m 345 -16 l 345 -16 q 220 -16 155 42 q 89 100 65 201 q 41 302 41 430 l 41 430 q 41 567 68 655 q 95 742 161 798 q 226 854 341 893 l 341 893 l 563 969 l 563 1123 q 563 1244 484 1244 l 484 1244 q 412 1244 412 1146 l 412 1146 l 412 1056 l 64 1056 q 63 1064 63 1077 q 63 1089 63 1105 l 63 1105 q 63 1329 169 1423 q 274 1516 503 1516 l 503 1516 q 623 1516 718 1474 q 813 1431 869 1348 q 924 1265 924 1143 l 924 1143 l 924 0 l 568 0 l 568 178 q 542 84 482 34 q 422 -16 345 -16 m 486 262 l 486 262 q 530 262 546 299 q 562 336 562 379 l 562 379 l 562 797 q 488 767 447 722 q 406 676 406 588 l 406 588 l 406 395 q 406 262 486 262 m 503 1580 l 503 1580 q 343 1580 247 1664 q 150 1748 150 1898 l 150 1898 q 150 2047 247 2132 q 343 2216 503 2216 l 503 2216 q 664 2216 761 2132 q 857 2047 857 1898 l 857 1898 q 857 1750 761 1665 q 664 1580 503 1580 m 504 1761 l 504 1761 q 571 1761 609 1801 q 646 1841 646 1898 l 646 1898 q 646 1955 609 1995 q 571 2035 504 2035 l 504 2035 q 437 2035 400 1995 q 362 1955 362 1898 l 362 1898 q 362 1841 400 1801 q 437 1761 504 1761 m 741 2327 l 266 2253 l 266 2446 l 741 2614 l 741 2327"},"ḁ":{"x_min":41,"x_max":924,"ha":990,"o":"m 345 -16 l 345 -16 q 220 -16 155 42 q 89 100 65 201 q 41 302 41 430 l 41 430 q 41 567 68 655 q 95 742 161 798 q 226 854 341 893 l 341 893 l 563 969 l 563 1123 q 563 1244 484 1244 l 484 1244 q 412 1244 412 1146 l 412 1146 l 412 1056 l 64 1056 q 63 1064 63 1077 q 63 1089 63 1105 l 63 1105 q 63 1329 169 1423 q 274 1516 503 1516 l 503 1516 q 623 1516 718 1474 q 813 1431 869 1348 q 924 1265 924 1143 l 924 1143 l 924 0 l 568 0 l 568 178 q 542 84 482 34 q 422 -16 345 -16 m 486 262 l 486 262 q 530 262 546 299 q 562 336 562 379 l 562 379 l 562 797 q 488 767 447 722 q 406 676 406 588 l 406 588 l 406 395 q 406 262 486 262 m 493 -633 l 493 -633 q 333 -633 237 -549 q 140 -465 140 -315 l 140 -315 q 140 -166 237 -81 q 333 3 493 3 l 493 3 q 654 3 751 -81 q 847 -166 847 -315 l 847 -315 q 847 -463 751 -548 q 654 -633 493 -633 m 494 -452 l 494 -452 q 561 -452 599 -412 q 636 -372 636 -315 l 636 -315 q 636 -258 599 -218 q 561 -178 494 -178 l 494 -178 q 427 -178 390 -218 q 352 -258 352 -315 l 352 -315 q 352 -372 390 -412 q 427 -452 494 -452"},"^":{"x_min":40,"x_max":930,"ha":970,"o":"m 399 432 l 40 432 l 281 1355 l 689 1355 l 930 432 l 571 432 l 485 1027 l 399 432"},"~":{"x_min":50,"x_max":1004,"ha":1009,"o":"m 732 810 l 732 810 q 662 810 604 824 q 545 838 483 862 l 483 862 q 422 886 382 898 q 341 910 313 910 l 313 910 q 284 910 259 894 q 234 877 212 835 l 212 835 l 50 921 q 77 987 110 1043 q 143 1098 193 1131 q 242 1164 320 1164 l 320 1164 q 400 1164 454 1152 q 507 1139 574 1113 l 574 1113 q 633 1091 665 1082 q 696 1073 720 1073 l 720 1073 q 750 1073 775 1091 q 800 1109 822 1155 l 822 1155 l 1004 1095 q 977 1022 946 957 q 914 891 865 851 q 815 810 732 810"},"*":{"x_min":36,"x_max":890,"ha":926,"o":"m 579 741 l 347 741 l 391 1043 l 152 854 l 36 1054 l 310 1171 l 36 1280 l 152 1480 l 390 1301 l 347 1593 l 579 1593 l 544 1307 l 774 1480 l 890 1280 l 615 1171 l 890 1054 l 774 854 l 543 1036 l 579 741"},"ⱥ":{"x_min":41,"x_max":924,"ha":990,"o":"m 241 -186 l 101 -186 l 159 39 q 89 95 65 198 q 41 300 41 430 l 41 430 q 41 567 68 655 q 95 742 161 798 q 226 854 341 893 l 341 893 l 563 969 l 563 1123 q 563 1244 484 1244 l 484 1244 q 412 1244 412 1146 l 412 1146 l 412 1056 l 64 1056 q 63 1064 63 1077 q 63 1089 63 1105 l 63 1105 q 63 1329 169 1423 q 274 1516 503 1516 l 503 1516 q 524 1516 544 1515 l 544 1515 l 606 1760 l 746 1760 l 678 1490 q 789 1453 857 1366 q 924 1278 924 1143 l 924 1143 l 924 0 l 568 0 l 568 178 q 542 84 482 34 q 422 -16 345 -16 l 345 -16 q 314 -16 286 -12 l 286 -12 l 241 -186 m 486 262 l 486 262 q 530 262 546 299 q 562 336 562 379 l 562 379 l 562 797 q 488 767 447 722 q 406 676 406 588 l 406 588 l 406 395 q 406 262 486 262"},"@":{"x_min":64,"x_max":1712,"ha":1770,"o":"m 919 -158 l 919 -158 q 742 -158 588 -106 q 433 -55 315 57 q 197 168 131 346 q 64 524 64 777 l 64 777 q 64 1091 167 1315 q 270 1538 464 1657 q 657 1776 928 1776 l 928 1776 q 1186 1776 1361 1669 q 1535 1562 1624 1362 q 1712 1161 1712 882 l 1712 882 q 1712 590 1623 434 q 1534 277 1329 277 l 1329 277 q 1182 277 1112 338 q 1042 398 1007 491 l 1007 491 q 989 400 941 343 q 892 285 810 285 l 810 285 q 711 285 644 354 q 577 422 544 534 q 510 645 510 774 l 510 774 q 510 918 537 1038 q 563 1157 626 1228 q 689 1299 798 1299 l 798 1299 q 870 1299 918 1261 q 965 1222 1002 1159 l 1002 1159 l 1041 1290 l 1267 1290 l 1267 650 q 1267 572 1291 539 q 1315 505 1356 505 l 1356 505 q 1422 505 1444 600 q 1466 695 1466 877 l 1466 877 q 1466 1082 1417 1230 q 1368 1377 1256 1457 q 1143 1536 950 1536 l 950 1536 q 655 1536 503 1339 q 350 1142 350 774 l 350 774 q 350 427 510 253 q 669 78 934 78 l 934 78 q 1041 78 1200 99 l 1200 99 l 1231 -127 q 1054 -158 919 -158 m 903 532 l 903 532 q 949 532 966 580 q 982 627 982 682 l 982 682 l 982 1074 q 920 1074 885 1049 q 849 1024 835 961 q 820 898 820 783 l 820 783 q 820 724 827 666 q 834 608 853 570 q 871 532 903 532"},"ã":{"x_min":41,"x_max":924,"ha":990,"o":"m 345 -16 l 345 -16 q 220 -16 155 42 q 89 100 65 201 q 41 302 41 430 l 41 430 q 41 567 68 655 q 95 742 161 798 q 226 854 341 893 l 341 893 l 563 969 l 563 1123 q 563 1244 484 1244 l 484 1244 q 412 1244 412 1146 l 412 1146 l 412 1056 l 64 1056 q 63 1064 63 1077 q 63 1089 63 1105 l 63 1105 q 63 1329 169 1423 q 274 1516 503 1516 l 503 1516 q 623 1516 718 1474 q 813 1431 869 1348 q 924 1265 924 1143 l 924 1143 l 924 0 l 568 0 l 568 178 q 542 84 482 34 q 422 -16 345 -16 m 486 262 l 486 262 q 530 262 546 299 q 562 336 562 379 l 562 379 l 562 797 q 488 767 447 722 q 406 676 406 588 l 406 588 l 406 395 q 406 262 486 262 m 668 1627 l 668 1627 q 591 1627 532 1650 q 473 1673 425 1696 q 376 1718 330 1718 l 330 1718 q 304 1718 281 1703 q 258 1688 238 1650 l 238 1650 l 90 1728 q 115 1789 145 1840 q 174 1890 220 1921 q 266 1951 337 1951 l 337 1951 q 411 1951 468 1930 q 525 1909 572 1888 q 618 1867 657 1867 l 657 1867 q 684 1867 707 1884 q 730 1901 750 1942 l 750 1942 l 916 1888 q 892 1821 863 1761 q 834 1701 789 1664 q 743 1627 668 1627"},"b":{"x_min":76,"x_max":967,"ha":1027,"o":"m 671 -16 l 671 -16 q 583 -16 528 28 q 473 71 440 160 l 440 160 l 440 0 l 76 0 l 76 1760 l 440 1760 l 440 1340 q 473 1423 532 1470 q 590 1516 699 1516 l 699 1516 q 846 1516 907 1409 q 967 1302 967 1129 l 967 1129 l 967 391 q 967 276 936 184 q 904 91 839 38 q 773 -16 671 -16 m 523 263 l 523 263 q 580 263 592 319 q 604 375 604 457 l 604 457 l 604 1043 q 604 1126 592 1182 q 580 1237 524 1237 l 524 1237 q 466 1237 453 1181 q 440 1124 440 1043 l 440 1043 l 440 457 q 440 376 453 320 q 466 263 523 263"},"\\":{"x_min":27,"x_max":801,"ha":830,"o":"m 801 0 l 438 0 l 27 1767 l 391 1767 l 801 0"},"|":{"x_min":62,"x_max":381,"ha":443,"o":"m 381 -84 l 62 -84 l 62 1953 l 381 1953 l 381 -84"},"ḃ":{"x_min":76,"x_max":967,"ha":1027,"o":"m 671 -16 l 671 -16 q 583 -16 528 28 q 473 71 440 160 l 440 160 l 440 0 l 76 0 l 76 1760 l 440 1760 l 440 1340 q 473 1423 532 1470 q 590 1516 699 1516 l 699 1516 q 846 1516 907 1409 q 967 1302 967 1129 l 967 1129 l 967 391 q 967 276 936 184 q 904 91 839 38 q 773 -16 671 -16 m 523 263 l 523 263 q 580 263 592 319 q 604 375 604 457 l 604 457 l 604 1043 q 604 1126 592 1182 q 580 1237 524 1237 l 524 1237 q 466 1237 453 1181 q 440 1124 440 1043 l 440 1043 l 440 457 q 440 376 453 320 q 466 263 523 263 m 904 1619 l 546 1619 l 546 1917 l 904 1917 l 904 1619"},"ḅ":{"x_min":76,"x_max":967,"ha":1027,"o":"m 671 -16 l 671 -16 q 583 -16 528 28 q 473 71 440 160 l 440 160 l 440 0 l 76 0 l 76 1760 l 440 1760 l 440 1340 q 473 1423 532 1470 q 590 1516 699 1516 l 699 1516 q 846 1516 907 1409 q 967 1302 967 1129 l 967 1129 l 967 391 q 967 276 936 184 q 904 91 839 38 q 773 -16 671 -16 m 523 263 l 523 263 q 580 263 592 319 q 604 375 604 457 l 604 457 l 604 1043 q 604 1126 592 1182 q 580 1237 524 1237 l 524 1237 q 466 1237 453 1181 q 440 1124 440 1043 l 440 1043 l 440 457 q 440 376 453 320 q 466 263 523 263 m 693 -417 l 335 -417 l 335 -119 l 693 -119 l 693 -417"},"ꞵ":{"x_min":58,"x_max":969,"ha":1007,"o":"m 408 -250 l 58 -250 l 58 1412 q 58 1776 483 1776 l 483 1776 q 677 1776 793 1692 q 909 1608 909 1412 l 909 1412 l 909 1295 q 909 1190 875 1118 q 840 1046 759 1020 l 759 1020 q 886 990 928 872 q 969 753 969 559 l 969 559 q 969 257 862 124 q 755 -10 563 -10 l 563 -10 q 470 -10 408 15 l 408 15 l 408 -250 m 408 1453 l 408 314 q 408 277 437 257 q 466 237 513 237 l 513 237 q 560 237 591 262 q 621 286 621 336 l 621 336 l 621 731 q 621 812 589 845 q 556 878 474 878 l 474 878 l 474 1126 q 527 1126 543 1160 q 558 1194 558 1245 l 558 1245 l 558 1453 q 558 1529 483 1529 l 483 1529 q 408 1529 408 1453 l 408 1453"},"ɓ":{"x_min":72,"x_max":967,"ha":1027,"o":"m 671 -16 l 671 -16 q 583 -16 528 28 q 473 71 440 160 l 440 160 l 440 0 l 72 0 l 72 1328 q 72 1459 121 1560 q 169 1661 273 1719 q 377 1776 544 1776 l 544 1776 l 544 1500 q 488 1500 464 1467 q 440 1433 440 1368 l 440 1368 l 440 1242 q 473 1325 532 1372 q 590 1418 699 1418 l 699 1418 q 846 1418 907 1311 q 967 1204 967 1031 l 967 1031 l 967 391 q 967 276 936 184 q 904 91 839 38 q 773 -16 671 -16 m 523 263 l 523 263 q 580 263 592 319 q 604 375 604 457 l 604 457 l 604 945 q 604 1028 592 1084 q 580 1139 524 1139 l 524 1139 q 466 1139 453 1083 q 440 1026 440 945 l 440 945 l 440 457 q 440 376 453 320 q 466 263 523 263"},"ʘ":{"x_min":60,"x_max":957,"ha":1017,"o":"m 508 -16 l 508 -16 q 60 -16 60 449 l 60 449 l 60 1051 q 60 1263 179 1390 q 298 1516 508 1516 l 508 1516 q 719 1516 838 1390 q 957 1263 957 1051 l 957 1051 l 957 449 q 957 -16 508 -16 m 508 260 l 508 260 q 553 260 573 293 q 592 325 592 375 l 592 375 l 592 1108 q 592 1239 508 1239 l 508 1239 q 424 1239 424 1108 l 424 1108 l 424 375 q 424 325 444 293 q 463 260 508 260 m 563 630 l 453 630 l 453 894 l 563 894 l 563 630"},"◆":{"x_min":40,"x_max":1444,"ha":1484,"o":"m 1444 756 l 742 52 l 40 756 l 742 1460 l 1444 756"},"■":{"x_min":78,"x_max":1574,"ha":1652,"o":"m 1574 0 l 78 0 l 78 1500 l 1574 1500 l 1574 0"},"ḇ":{"x_min":76,"x_max":967,"ha":1027,"o":"m 671 -16 l 671 -16 q 583 -16 528 28 q 473 71 440 160 l 440 160 l 440 0 l 76 0 l 76 1760 l 440 1760 l 440 1340 q 473 1423 532 1470 q 590 1516 699 1516 l 699 1516 q 846 1516 907 1409 q 967 1302 967 1129 l 967 1129 l 967 391 q 967 276 936 184 q 904 91 839 38 q 773 -16 671 -16 m 523 263 l 523 263 q 580 263 592 319 q 604 375 604 457 l 604 457 l 604 1043 q 604 1126 592 1182 q 580 1237 524 1237 l 524 1237 q 466 1237 453 1181 q 440 1124 440 1043 l 440 1043 l 440 457 q 440 376 453 320 q 466 263 523 263 m 839 -272 l 189 -272 l 189 -119 l 839 -119 l 839 -272"},"{":{"x_min":31,"x_max":661,"ha":696,"o":"m 661 79 l 661 -188 q 471 -184 364 -150 q 257 -117 214 -38 q 170 41 170 180 l 170 180 l 170 515 q 170 615 147 662 q 123 709 31 719 l 31 719 l 31 916 q 123 927 147 974 q 170 1020 170 1120 l 170 1120 l 170 1455 q 170 1595 214 1674 q 257 1752 364 1786 q 471 1819 661 1823 l 661 1823 l 661 1556 q 607 1552 565 1539 q 522 1525 522 1472 l 522 1472 l 522 1097 q 522 1001 492 945 q 461 888 411 860 q 361 831 304 818 l 304 818 q 361 805 411 777 q 461 748 492 692 q 522 635 522 538 l 522 538 l 522 163 q 522 110 565 97 q 607 83 661 79 l 661 79"}}}
